<?xml version="1.0" encoding="utf-8" standalone="no"?>
<!DOCTYPE svg PUBLIC "-//W3C//DTD SVG 1.1//EN"
  "http://www.w3.org/Graphics/SVG/1.1/DTD/svg11.dtd">
<svg xmlns:xlink="http://www.w3.org/1999/xlink" width="648pt" height="259.2pt" viewBox="0 0 648 259.2" xmlns="http://www.w3.org/2000/svg" version="1.1">
 <metadata>
  <rdf:RDF xmlns:dc="http://purl.org/dc/elements/1.1/" xmlns:cc="http://creativecommons.org/ns#" xmlns:rdf="http://www.w3.org/1999/02/22-rdf-syntax-ns#">
   <cc:Work>
    <dc:type rdf:resource="http://purl.org/dc/dcmitype/StillImage"/>
    <dc:date>2026-07-18T23:47:43.554958</dc:date>
    <dc:format>image/svg+xml</dc:format>
    <dc:creator>
     <cc:Agent>
      <dc:title>Matplotlib v3.11.1, https://matplotlib.org/</dc:title>
     </cc:Agent>
    </dc:creator>
   </cc:Work>
  </rdf:RDF>
 </metadata>
 <defs>
  <style type="text/css">*{stroke-linejoin: round; stroke-linecap: butt}</style>
 </defs>
 <g id="figure_1">
  <g id="patch_1">
   <path d="M 0 259.2 
L 648 259.2 
L 648 0 
L 0 0 
z
" style="fill: #262626"/>
  </g>
  <g id="axes_1">
   <g id="patch_2">
    <path d="M 38.88 212.544 
L 628.56 212.544 
L 628.56 36.288 
L 38.88 36.288 
z
" style="fill: #262626"/>
   </g>
   <g id="matplotlib.axis_1">
    <g id="xtick_1">
     <g id="line2d_1">
      <path d="M 52.178773 212.544 
L 52.178773 36.288 
" clip-path="url(#p2685e667b0)" style="fill: none; stroke: #e1e0d9; stroke-width: 0.8; stroke-linecap: square"/>
     </g>
     <g id="line2d_2"/>
     <g id="text_1">
      <!-- 04h -->
      <g style="fill: #898781" transform="translate(43.600648 223.783473) scale(0.09 -0.09)">
       <defs>
        <path id="DejaVuSans-13" d="M 2034 4250 
Q 1547 4250 1301 3770 
Q 1056 3291 1056 2328 
Q 1056 1369 1301 889 
Q 1547 409 2034 409 
Q 2525 409 2770 889 
Q 3016 1369 3016 2328 
Q 3016 3291 2770 3770 
Q 2525 4250 2034 4250 
z
M 2034 4750 
Q 2819 4750 3233 4129 
Q 3647 3509 3647 2328 
Q 3647 1150 3233 529 
Q 2819 -91 2034 -91 
Q 1250 -91 836 529 
Q 422 1150 422 2328 
Q 422 3509 836 4129 
Q 1250 4750 2034 4750 
z
" transform="scale(0.015625)"/>
        <path id="DejaVuSans-17" d="M 2419 4116 
L 825 1625 
L 2419 1625 
L 2419 4116 
z
M 2253 4666 
L 3047 4666 
L 3047 1625 
L 3713 1625 
L 3713 1100 
L 3047 1100 
L 3047 0 
L 2419 0 
L 2419 1100 
L 313 1100 
L 313 1709 
L 2253 4666 
z
" transform="scale(0.015625)"/>
        <path id="DejaVuSans-4b" d="M 3513 2113 
L 3513 0 
L 2938 0 
L 2938 2094 
Q 2938 2591 2744 2837 
Q 2550 3084 2163 3084 
Q 1697 3084 1428 2787 
Q 1159 2491 1159 1978 
L 1159 0 
L 581 0 
L 581 4863 
L 1159 4863 
L 1159 2956 
Q 1366 3272 1645 3428 
Q 1925 3584 2291 3584 
Q 2894 3584 3203 3211 
Q 3513 2838 3513 2113 
z
" transform="scale(0.015625)"/>
       </defs>
       <use xlink:href="#DejaVuSans-13"/>
       <use xlink:href="#DejaVuSans-17" transform="translate(63.625 0)"/>
       <use xlink:href="#DejaVuSans-4b" transform="translate(127.25 0)"/>
      </g>
      <!-- 18/07 -->
      <g style="fill: #898781" transform="translate(39.210336 234.58523) scale(0.09 -0.09)">
       <defs>
        <path id="DejaVuSans-14" d="M 794 531 
L 1825 531 
L 1825 4091 
L 703 3866 
L 703 4441 
L 1819 4666 
L 2450 4666 
L 2450 531 
L 3481 531 
L 3481 0 
L 794 0 
L 794 531 
z
" transform="scale(0.015625)"/>
        <path id="DejaVuSans-1b" d="M 2034 2216 
Q 1584 2216 1326 1975 
Q 1069 1734 1069 1313 
Q 1069 891 1326 650 
Q 1584 409 2034 409 
Q 2484 409 2743 651 
Q 3003 894 3003 1313 
Q 3003 1734 2745 1975 
Q 2488 2216 2034 2216 
z
M 1403 2484 
Q 997 2584 770 2862 
Q 544 3141 544 3541 
Q 544 4100 942 4425 
Q 1341 4750 2034 4750 
Q 2731 4750 3128 4425 
Q 3525 4100 3525 3541 
Q 3525 3141 3298 2862 
Q 3072 2584 2669 2484 
Q 3125 2378 3379 2068 
Q 3634 1759 3634 1313 
Q 3634 634 3220 271 
Q 2806 -91 2034 -91 
Q 1263 -91 848 271 
Q 434 634 434 1313 
Q 434 1759 690 2068 
Q 947 2378 1403 2484 
z
M 1172 3481 
Q 1172 3119 1398 2916 
Q 1625 2713 2034 2713 
Q 2441 2713 2670 2916 
Q 2900 3119 2900 3481 
Q 2900 3844 2670 4047 
Q 2441 4250 2034 4250 
Q 1625 4250 1398 4047 
Q 1172 3844 1172 3481 
z
" transform="scale(0.015625)"/>
        <path id="DejaVuSans-12" d="M 1625 4666 
L 2156 4666 
L 531 -594 
L 0 -594 
L 1625 4666 
z
" transform="scale(0.015625)"/>
        <path id="DejaVuSans-1a" d="M 525 4666 
L 3525 4666 
L 3525 4397 
L 1831 0 
L 1172 0 
L 2766 4134 
L 525 4134 
L 525 4666 
z
" transform="scale(0.015625)"/>
       </defs>
       <use xlink:href="#DejaVuSans-14"/>
       <use xlink:href="#DejaVuSans-1b" transform="translate(63.625 0)"/>
       <use xlink:href="#DejaVuSans-12" transform="translate(127.25 0)"/>
       <use xlink:href="#DejaVuSans-13" transform="translate(160.9375 0)"/>
       <use xlink:href="#DejaVuSans-1a" transform="translate(224.5625 0)"/>
      </g>
     </g>
    </g>
    <g id="xtick_2">
     <g id="line2d_3">
      <path d="M 104.028649 212.544 
L 104.028649 36.288 
" clip-path="url(#p2685e667b0)" style="fill: none; stroke: #e1e0d9; stroke-width: 0.8; stroke-linecap: square"/>
     </g>
     <g id="line2d_4"/>
     <g id="text_2">
      <!-- 06h -->
      <g style="fill: #898781" transform="translate(95.450524 223.783473) scale(0.09 -0.09)">
       <defs>
        <path id="DejaVuSans-19" d="M 2113 2584 
Q 1688 2584 1439 2293 
Q 1191 2003 1191 1497 
Q 1191 994 1439 701 
Q 1688 409 2113 409 
Q 2538 409 2786 701 
Q 3034 994 3034 1497 
Q 3034 2003 2786 2293 
Q 2538 2584 2113 2584 
z
M 3366 4563 
L 3366 3988 
Q 3128 4100 2886 4159 
Q 2644 4219 2406 4219 
Q 1781 4219 1451 3797 
Q 1122 3375 1075 2522 
Q 1259 2794 1537 2939 
Q 1816 3084 2150 3084 
Q 2853 3084 3261 2657 
Q 3669 2231 3669 1497 
Q 3669 778 3244 343 
Q 2819 -91 2113 -91 
Q 1303 -91 875 529 
Q 447 1150 447 2328 
Q 447 3434 972 4092 
Q 1497 4750 2381 4750 
Q 2619 4750 2861 4703 
Q 3103 4656 3366 4563 
z
" transform="scale(0.015625)"/>
       </defs>
       <use xlink:href="#DejaVuSans-13"/>
       <use xlink:href="#DejaVuSans-19" transform="translate(63.625 0)"/>
       <use xlink:href="#DejaVuSans-4b" transform="translate(127.25 0)"/>
      </g>
      <!-- 18/07 -->
      <g style="fill: #898781" transform="translate(91.060212 234.58523) scale(0.09 -0.09)">
       <use xlink:href="#DejaVuSans-14"/>
       <use xlink:href="#DejaVuSans-1b" transform="translate(63.625 0)"/>
       <use xlink:href="#DejaVuSans-12" transform="translate(127.25 0)"/>
       <use xlink:href="#DejaVuSans-13" transform="translate(160.9375 0)"/>
       <use xlink:href="#DejaVuSans-1a" transform="translate(224.5625 0)"/>
      </g>
     </g>
    </g>
    <g id="xtick_3">
     <g id="line2d_5">
      <path d="M 155.878525 212.544 
L 155.878525 36.288 
" clip-path="url(#p2685e667b0)" style="fill: none; stroke: #e1e0d9; stroke-width: 0.8; stroke-linecap: square"/>
     </g>
     <g id="line2d_6"/>
     <g id="text_3">
      <!-- 08h -->
      <g style="fill: #898781" transform="translate(147.3004 223.783473) scale(0.09 -0.09)">
       <use xlink:href="#DejaVuSans-13"/>
       <use xlink:href="#DejaVuSans-1b" transform="translate(63.625 0)"/>
       <use xlink:href="#DejaVuSans-4b" transform="translate(127.25 0)"/>
      </g>
      <!-- 18/07 -->
      <g style="fill: #898781" transform="translate(142.910088 234.58523) scale(0.09 -0.09)">
       <use xlink:href="#DejaVuSans-14"/>
       <use xlink:href="#DejaVuSans-1b" transform="translate(63.625 0)"/>
       <use xlink:href="#DejaVuSans-12" transform="translate(127.25 0)"/>
       <use xlink:href="#DejaVuSans-13" transform="translate(160.9375 0)"/>
       <use xlink:href="#DejaVuSans-1a" transform="translate(224.5625 0)"/>
      </g>
     </g>
    </g>
    <g id="xtick_4">
     <g id="line2d_7">
      <path d="M 207.728402 212.544 
L 207.728402 36.288 
" clip-path="url(#p2685e667b0)" style="fill: none; stroke: #e1e0d9; stroke-width: 0.8; stroke-linecap: square"/>
     </g>
     <g id="line2d_8"/>
     <g id="text_4">
      <!-- 10h -->
      <g style="fill: #898781" transform="translate(199.150277 223.783473) scale(0.09 -0.09)">
       <use xlink:href="#DejaVuSans-14"/>
       <use xlink:href="#DejaVuSans-13" transform="translate(63.625 0)"/>
       <use xlink:href="#DejaVuSans-4b" transform="translate(127.25 0)"/>
      </g>
      <!-- 18/07 -->
      <g style="fill: #898781" transform="translate(194.759964 234.58523) scale(0.09 -0.09)">
       <use xlink:href="#DejaVuSans-14"/>
       <use xlink:href="#DejaVuSans-1b" transform="translate(63.625 0)"/>
       <use xlink:href="#DejaVuSans-12" transform="translate(127.25 0)"/>
       <use xlink:href="#DejaVuSans-13" transform="translate(160.9375 0)"/>
       <use xlink:href="#DejaVuSans-1a" transform="translate(224.5625 0)"/>
      </g>
     </g>
    </g>
    <g id="xtick_5">
     <g id="line2d_9">
      <path d="M 259.578278 212.544 
L 259.578278 36.288 
" clip-path="url(#p2685e667b0)" style="fill: none; stroke: #e1e0d9; stroke-width: 0.8; stroke-linecap: square"/>
     </g>
     <g id="line2d_10"/>
     <g id="text_5">
      <!-- 12h -->
      <g style="fill: #898781" transform="translate(251.000153 223.783473) scale(0.09 -0.09)">
       <defs>
        <path id="DejaVuSans-15" d="M 1228 531 
L 3431 531 
L 3431 0 
L 469 0 
L 469 531 
Q 828 903 1448 1529 
Q 2069 2156 2228 2338 
Q 2531 2678 2651 2914 
Q 2772 3150 2772 3378 
Q 2772 3750 2511 3984 
Q 2250 4219 1831 4219 
Q 1534 4219 1204 4116 
Q 875 4013 500 3803 
L 500 4441 
Q 881 4594 1212 4672 
Q 1544 4750 1819 4750 
Q 2544 4750 2975 4387 
Q 3406 4025 3406 3419 
Q 3406 3131 3298 2873 
Q 3191 2616 2906 2266 
Q 2828 2175 2409 1742 
Q 1991 1309 1228 531 
z
" transform="scale(0.015625)"/>
       </defs>
       <use xlink:href="#DejaVuSans-14"/>
       <use xlink:href="#DejaVuSans-15" transform="translate(63.625 0)"/>
       <use xlink:href="#DejaVuSans-4b" transform="translate(127.25 0)"/>
      </g>
      <!-- 18/07 -->
      <g style="fill: #898781" transform="translate(246.60984 234.58523) scale(0.09 -0.09)">
       <use xlink:href="#DejaVuSans-14"/>
       <use xlink:href="#DejaVuSans-1b" transform="translate(63.625 0)"/>
       <use xlink:href="#DejaVuSans-12" transform="translate(127.25 0)"/>
       <use xlink:href="#DejaVuSans-13" transform="translate(160.9375 0)"/>
       <use xlink:href="#DejaVuSans-1a" transform="translate(224.5625 0)"/>
      </g>
     </g>
    </g>
    <g id="xtick_6">
     <g id="line2d_11">
      <path d="M 311.428154 212.544 
L 311.428154 36.288 
" clip-path="url(#p2685e667b0)" style="fill: none; stroke: #e1e0d9; stroke-width: 0.8; stroke-linecap: square"/>
     </g>
     <g id="line2d_12"/>
     <g id="text_6">
      <!-- 14h -->
      <g style="fill: #898781" transform="translate(302.850029 223.783473) scale(0.09 -0.09)">
       <use xlink:href="#DejaVuSans-14"/>
       <use xlink:href="#DejaVuSans-17" transform="translate(63.625 0)"/>
       <use xlink:href="#DejaVuSans-4b" transform="translate(127.25 0)"/>
      </g>
      <!-- 18/07 -->
      <g style="fill: #898781" transform="translate(298.459716 234.58523) scale(0.09 -0.09)">
       <use xlink:href="#DejaVuSans-14"/>
       <use xlink:href="#DejaVuSans-1b" transform="translate(63.625 0)"/>
       <use xlink:href="#DejaVuSans-12" transform="translate(127.25 0)"/>
       <use xlink:href="#DejaVuSans-13" transform="translate(160.9375 0)"/>
       <use xlink:href="#DejaVuSans-1a" transform="translate(224.5625 0)"/>
      </g>
     </g>
    </g>
    <g id="xtick_7">
     <g id="line2d_13">
      <path d="M 363.27803 212.544 
L 363.27803 36.288 
" clip-path="url(#p2685e667b0)" style="fill: none; stroke: #e1e0d9; stroke-width: 0.8; stroke-linecap: square"/>
     </g>
     <g id="line2d_14"/>
     <g id="text_7">
      <!-- 16h -->
      <g style="fill: #898781" transform="translate(354.699905 223.783473) scale(0.09 -0.09)">
       <use xlink:href="#DejaVuSans-14"/>
       <use xlink:href="#DejaVuSans-19" transform="translate(63.625 0)"/>
       <use xlink:href="#DejaVuSans-4b" transform="translate(127.25 0)"/>
      </g>
      <!-- 18/07 -->
      <g style="fill: #898781" transform="translate(350.309593 234.58523) scale(0.09 -0.09)">
       <use xlink:href="#DejaVuSans-14"/>
       <use xlink:href="#DejaVuSans-1b" transform="translate(63.625 0)"/>
       <use xlink:href="#DejaVuSans-12" transform="translate(127.25 0)"/>
       <use xlink:href="#DejaVuSans-13" transform="translate(160.9375 0)"/>
       <use xlink:href="#DejaVuSans-1a" transform="translate(224.5625 0)"/>
      </g>
     </g>
    </g>
    <g id="xtick_8">
     <g id="line2d_15">
      <path d="M 415.127906 212.544 
L 415.127906 36.288 
" clip-path="url(#p2685e667b0)" style="fill: none; stroke: #e1e0d9; stroke-width: 0.8; stroke-linecap: square"/>
     </g>
     <g id="line2d_16"/>
     <g id="text_8">
      <!-- 18h -->
      <g style="fill: #898781" transform="translate(406.549781 223.783473) scale(0.09 -0.09)">
       <use xlink:href="#DejaVuSans-14"/>
       <use xlink:href="#DejaVuSans-1b" transform="translate(63.625 0)"/>
       <use xlink:href="#DejaVuSans-4b" transform="translate(127.25 0)"/>
      </g>
      <!-- 18/07 -->
      <g style="fill: #898781" transform="translate(402.159469 234.58523) scale(0.09 -0.09)">
       <use xlink:href="#DejaVuSans-14"/>
       <use xlink:href="#DejaVuSans-1b" transform="translate(63.625 0)"/>
       <use xlink:href="#DejaVuSans-12" transform="translate(127.25 0)"/>
       <use xlink:href="#DejaVuSans-13" transform="translate(160.9375 0)"/>
       <use xlink:href="#DejaVuSans-1a" transform="translate(224.5625 0)"/>
      </g>
     </g>
    </g>
    <g id="xtick_9">
     <g id="line2d_17">
      <path d="M 466.977782 212.544 
L 466.977782 36.288 
" clip-path="url(#p2685e667b0)" style="fill: none; stroke: #e1e0d9; stroke-width: 0.8; stroke-linecap: square"/>
     </g>
     <g id="line2d_18"/>
     <g id="text_9">
      <!-- 20h -->
      <g style="fill: #898781" transform="translate(458.399657 223.783473) scale(0.09 -0.09)">
       <use xlink:href="#DejaVuSans-15"/>
       <use xlink:href="#DejaVuSans-13" transform="translate(63.625 0)"/>
       <use xlink:href="#DejaVuSans-4b" transform="translate(127.25 0)"/>
      </g>
      <!-- 18/07 -->
      <g style="fill: #898781" transform="translate(454.009345 234.58523) scale(0.09 -0.09)">
       <use xlink:href="#DejaVuSans-14"/>
       <use xlink:href="#DejaVuSans-1b" transform="translate(63.625 0)"/>
       <use xlink:href="#DejaVuSans-12" transform="translate(127.25 0)"/>
       <use xlink:href="#DejaVuSans-13" transform="translate(160.9375 0)"/>
       <use xlink:href="#DejaVuSans-1a" transform="translate(224.5625 0)"/>
      </g>
     </g>
    </g>
    <g id="xtick_10">
     <g id="line2d_19">
      <path d="M 518.827659 212.544 
L 518.827659 36.288 
" clip-path="url(#p2685e667b0)" style="fill: none; stroke: #e1e0d9; stroke-width: 0.8; stroke-linecap: square"/>
     </g>
     <g id="line2d_20"/>
     <g id="text_10">
      <!-- 22h -->
      <g style="fill: #898781" transform="translate(510.249534 223.783473) scale(0.09 -0.09)">
       <use xlink:href="#DejaVuSans-15"/>
       <use xlink:href="#DejaVuSans-15" transform="translate(63.625 0)"/>
       <use xlink:href="#DejaVuSans-4b" transform="translate(127.25 0)"/>
      </g>
      <!-- 18/07 -->
      <g style="fill: #898781" transform="translate(505.859221 234.58523) scale(0.09 -0.09)">
       <use xlink:href="#DejaVuSans-14"/>
       <use xlink:href="#DejaVuSans-1b" transform="translate(63.625 0)"/>
       <use xlink:href="#DejaVuSans-12" transform="translate(127.25 0)"/>
       <use xlink:href="#DejaVuSans-13" transform="translate(160.9375 0)"/>
       <use xlink:href="#DejaVuSans-1a" transform="translate(224.5625 0)"/>
      </g>
     </g>
    </g>
    <g id="xtick_11">
     <g id="line2d_21">
      <path d="M 570.677535 212.544 
L 570.677535 36.288 
" clip-path="url(#p2685e667b0)" style="fill: none; stroke: #e1e0d9; stroke-width: 0.8; stroke-linecap: square"/>
     </g>
     <g id="line2d_22"/>
     <g id="text_11">
      <!-- 00h -->
      <g style="fill: #898781" transform="translate(562.09941 223.783473) scale(0.09 -0.09)">
       <use xlink:href="#DejaVuSans-13"/>
       <use xlink:href="#DejaVuSans-13" transform="translate(63.625 0)"/>
       <use xlink:href="#DejaVuSans-4b" transform="translate(127.25 0)"/>
      </g>
      <!-- 19/07 -->
      <g style="fill: #898781" transform="translate(557.709097 234.58523) scale(0.09 -0.09)">
       <defs>
        <path id="DejaVuSans-1c" d="M 703 97 
L 703 672 
Q 941 559 1184 500 
Q 1428 441 1663 441 
Q 2288 441 2617 861 
Q 2947 1281 2994 2138 
Q 2813 1869 2534 1725 
Q 2256 1581 1919 1581 
Q 1219 1581 811 2004 
Q 403 2428 403 3163 
Q 403 3881 828 4315 
Q 1253 4750 1959 4750 
Q 2769 4750 3195 4129 
Q 3622 3509 3622 2328 
Q 3622 1225 3098 567 
Q 2575 -91 1691 -91 
Q 1453 -91 1209 -44 
Q 966 3 703 97 
z
M 1959 2075 
Q 2384 2075 2632 2365 
Q 2881 2656 2881 3163 
Q 2881 3666 2632 3958 
Q 2384 4250 1959 4250 
Q 1534 4250 1286 3958 
Q 1038 3666 1038 3163 
Q 1038 2656 1286 2365 
Q 1534 2075 1959 2075 
z
" transform="scale(0.015625)"/>
       </defs>
       <use xlink:href="#DejaVuSans-14"/>
       <use xlink:href="#DejaVuSans-1c" transform="translate(63.625 0)"/>
       <use xlink:href="#DejaVuSans-12" transform="translate(127.25 0)"/>
       <use xlink:href="#DejaVuSans-13" transform="translate(160.9375 0)"/>
       <use xlink:href="#DejaVuSans-1a" transform="translate(224.5625 0)"/>
      </g>
     </g>
    </g>
    <g id="xtick_12">
     <g id="line2d_23">
      <path d="M 622.527411 212.544 
L 622.527411 36.288 
" clip-path="url(#p2685e667b0)" style="fill: none; stroke: #e1e0d9; stroke-width: 0.8; stroke-linecap: square"/>
     </g>
     <g id="line2d_24"/>
     <g id="text_12">
      <!-- 02h -->
      <g style="fill: #898781" transform="translate(613.949286 223.783473) scale(0.09 -0.09)">
       <use xlink:href="#DejaVuSans-13"/>
       <use xlink:href="#DejaVuSans-15" transform="translate(63.625 0)"/>
       <use xlink:href="#DejaVuSans-4b" transform="translate(127.25 0)"/>
      </g>
      <!-- 19/07 -->
      <g style="fill: #898781" transform="translate(609.558973 234.58523) scale(0.09 -0.09)">
       <use xlink:href="#DejaVuSans-14"/>
       <use xlink:href="#DejaVuSans-1c" transform="translate(63.625 0)"/>
       <use xlink:href="#DejaVuSans-12" transform="translate(127.25 0)"/>
       <use xlink:href="#DejaVuSans-13" transform="translate(160.9375 0)"/>
       <use xlink:href="#DejaVuSans-1a" transform="translate(224.5625 0)"/>
      </g>
     </g>
    </g>
   </g>
   <g id="matplotlib.axis_2">
    <g id="ytick_1">
     <g id="line2d_25">
      <path d="M 38.88 212.544 
L 628.56 212.544 
" clip-path="url(#p2685e667b0)" style="fill: none; stroke: #e1e0d9; stroke-width: 0.8; stroke-linecap: square"/>
     </g>
     <g id="line2d_26"/>
     <g id="text_13">
      <!-- 0 -->
      <g style="fill: #898781" transform="translate(29.65375 215.962945) scale(0.09 -0.09)">
       <use xlink:href="#DejaVuSans-13"/>
      </g>
     </g>
    </g>
    <g id="ytick_2">
     <g id="line2d_27">
      <path d="M 38.88 190.885607 
L 628.56 190.885607 
" clip-path="url(#p2685e667b0)" style="fill: none; stroke: #e1e0d9; stroke-width: 0.8; stroke-linecap: square"/>
     </g>
     <g id="line2d_28"/>
     <g id="text_14">
      <!-- 50 -->
      <g style="fill: #898781" transform="translate(23.9275 194.304553) scale(0.09 -0.09)">
       <defs>
        <path id="DejaVuSans-18" d="M 691 4666 
L 3169 4666 
L 3169 4134 
L 1269 4134 
L 1269 2991 
Q 1406 3038 1543 3061 
Q 1681 3084 1819 3084 
Q 2600 3084 3056 2656 
Q 3513 2228 3513 1497 
Q 3513 744 3044 326 
Q 2575 -91 1722 -91 
Q 1428 -91 1123 -41 
Q 819 9 494 109 
L 494 744 
Q 775 591 1075 516 
Q 1375 441 1709 441 
Q 2250 441 2565 725 
Q 2881 1009 2881 1497 
Q 2881 1984 2565 2268 
Q 2250 2553 1709 2553 
Q 1456 2553 1204 2497 
Q 953 2441 691 2322 
L 691 4666 
z
" transform="scale(0.015625)"/>
       </defs>
       <use xlink:href="#DejaVuSans-18"/>
       <use xlink:href="#DejaVuSans-13" transform="translate(63.625 0)"/>
      </g>
     </g>
    </g>
    <g id="ytick_3">
     <g id="line2d_29">
      <path d="M 38.88 169.227215 
L 628.56 169.227215 
" clip-path="url(#p2685e667b0)" style="fill: none; stroke: #e1e0d9; stroke-width: 0.8; stroke-linecap: square"/>
     </g>
     <g id="line2d_30"/>
     <g id="text_15">
      <!-- 100 -->
      <g style="fill: #898781" transform="translate(18.20125 172.64616) scale(0.09 -0.09)">
       <use xlink:href="#DejaVuSans-14"/>
       <use xlink:href="#DejaVuSans-13" transform="translate(63.625 0)"/>
       <use xlink:href="#DejaVuSans-13" transform="translate(127.25 0)"/>
      </g>
     </g>
    </g>
    <g id="ytick_4">
     <g id="line2d_31">
      <path d="M 38.88 147.568822 
L 628.56 147.568822 
" clip-path="url(#p2685e667b0)" style="fill: none; stroke: #e1e0d9; stroke-width: 0.8; stroke-linecap: square"/>
     </g>
     <g id="line2d_32"/>
     <g id="text_16">
      <!-- 150 -->
      <g style="fill: #898781" transform="translate(18.20125 150.987767) scale(0.09 -0.09)">
       <use xlink:href="#DejaVuSans-14"/>
       <use xlink:href="#DejaVuSans-18" transform="translate(63.625 0)"/>
       <use xlink:href="#DejaVuSans-13" transform="translate(127.25 0)"/>
      </g>
     </g>
    </g>
    <g id="ytick_5">
     <g id="line2d_33">
      <path d="M 38.88 125.910429 
L 628.56 125.910429 
" clip-path="url(#p2685e667b0)" style="fill: none; stroke: #e1e0d9; stroke-width: 0.8; stroke-linecap: square"/>
     </g>
     <g id="line2d_34"/>
     <g id="text_17">
      <!-- 200 -->
      <g style="fill: #898781" transform="translate(18.20125 129.329374) scale(0.09 -0.09)">
       <use xlink:href="#DejaVuSans-15"/>
       <use xlink:href="#DejaVuSans-13" transform="translate(63.625 0)"/>
       <use xlink:href="#DejaVuSans-13" transform="translate(127.25 0)"/>
      </g>
     </g>
    </g>
    <g id="ytick_6">
     <g id="line2d_35">
      <path d="M 38.88 104.252036 
L 628.56 104.252036 
" clip-path="url(#p2685e667b0)" style="fill: none; stroke: #e1e0d9; stroke-width: 0.8; stroke-linecap: square"/>
     </g>
     <g id="line2d_36"/>
     <g id="text_18">
      <!-- 250 -->
      <g style="fill: #898781" transform="translate(18.20125 107.670982) scale(0.09 -0.09)">
       <use xlink:href="#DejaVuSans-15"/>
       <use xlink:href="#DejaVuSans-18" transform="translate(63.625 0)"/>
       <use xlink:href="#DejaVuSans-13" transform="translate(127.25 0)"/>
      </g>
     </g>
    </g>
    <g id="ytick_7">
     <g id="line2d_37">
      <path d="M 38.88 82.593644 
L 628.56 82.593644 
" clip-path="url(#p2685e667b0)" style="fill: none; stroke: #e1e0d9; stroke-width: 0.8; stroke-linecap: square"/>
     </g>
     <g id="line2d_38"/>
     <g id="text_19">
      <!-- 300 -->
      <g style="fill: #898781" transform="translate(18.20125 86.012589) scale(0.09 -0.09)">
       <defs>
        <path id="DejaVuSans-16" d="M 2597 2516 
Q 3050 2419 3304 2112 
Q 3559 1806 3559 1356 
Q 3559 666 3084 287 
Q 2609 -91 1734 -91 
Q 1441 -91 1130 -33 
Q 819 25 488 141 
L 488 750 
Q 750 597 1062 519 
Q 1375 441 1716 441 
Q 2309 441 2620 675 
Q 2931 909 2931 1356 
Q 2931 1769 2642 2001 
Q 2353 2234 1838 2234 
L 1294 2234 
L 1294 2753 
L 1863 2753 
Q 2328 2753 2575 2939 
Q 2822 3125 2822 3475 
Q 2822 3834 2567 4026 
Q 2313 4219 1838 4219 
Q 1578 4219 1281 4162 
Q 984 4106 628 3988 
L 628 4550 
Q 988 4650 1302 4700 
Q 1616 4750 1894 4750 
Q 2613 4750 3031 4423 
Q 3450 4097 3450 3541 
Q 3450 3153 3228 2886 
Q 3006 2619 2597 2516 
z
" transform="scale(0.015625)"/>
       </defs>
       <use xlink:href="#DejaVuSans-16"/>
       <use xlink:href="#DejaVuSans-13" transform="translate(63.625 0)"/>
       <use xlink:href="#DejaVuSans-13" transform="translate(127.25 0)"/>
      </g>
     </g>
    </g>
    <g id="ytick_8">
     <g id="line2d_39">
      <path d="M 38.88 60.935251 
L 628.56 60.935251 
" clip-path="url(#p2685e667b0)" style="fill: none; stroke: #e1e0d9; stroke-width: 0.8; stroke-linecap: square"/>
     </g>
     <g id="line2d_40"/>
     <g id="text_20">
      <!-- 350 -->
      <g style="fill: #898781" transform="translate(18.20125 64.354196) scale(0.09 -0.09)">
       <use xlink:href="#DejaVuSans-16"/>
       <use xlink:href="#DejaVuSans-18" transform="translate(63.625 0)"/>
       <use xlink:href="#DejaVuSans-13" transform="translate(127.25 0)"/>
      </g>
     </g>
    </g>
    <g id="ytick_9">
     <g id="line2d_41">
      <path d="M 38.88 39.276858 
L 628.56 39.276858 
" clip-path="url(#p2685e667b0)" style="fill: none; stroke: #e1e0d9; stroke-width: 0.8; stroke-linecap: square"/>
     </g>
     <g id="line2d_42"/>
     <g id="text_21">
      <!-- 400 -->
      <g style="fill: #898781" transform="translate(18.20125 42.695804) scale(0.09 -0.09)">
       <use xlink:href="#DejaVuSans-17"/>
       <use xlink:href="#DejaVuSans-13" transform="translate(63.625 0)"/>
       <use xlink:href="#DejaVuSans-13" transform="translate(127.25 0)"/>
      </g>
     </g>
    </g>
   </g>
   <g id="line2d_43">
    <path d="M 50.22 204.746979 
L 123.50836 203.447475 
L 180.802473 199.982132 
L 228.799615 206.046482 
L 265.778659 199.115797 
L 307.071324 194.35095 
L 337.885994 199.548964 
L 383.096205 199.982132 
L 411.116742 196.516789 
L 437.185708 202.581139 
L 463.643547 192.185111 
L 490.634288 189.586104 
L 519.504588 167.927711 
L 563.800225 187.420264 
L 589.084241 196.083622 
L 617.22 208.212321 
" clip-path="url(#p2685e667b0)" style="fill: none; stroke: #2a78d6; stroke-width: 2; stroke-linecap: square"/>
    <defs>
     <path id="madd024f24f" d="M 0 1.5 
C 0.397805 1.5 0.77937 1.341951 1.06066 1.06066 
C 1.341951 0.77937 1.5 0.397805 1.5 0 
C 1.5 -0.397805 1.341951 -0.77937 1.06066 -1.06066 
C 0.77937 -1.341951 0.397805 -1.5 0 -1.5 
C -0.397805 -1.5 -0.77937 -1.341951 -1.06066 -1.06066 
C -1.341951 -0.77937 -1.5 -0.397805 -1.5 0 
C -1.5 0.397805 -1.341951 0.77937 -1.06066 1.06066 
C -0.77937 1.341951 -0.397805 1.5 0 1.5 
z
" style="stroke: #2a78d6"/>
    </defs>
    <g clip-path="url(#p2685e667b0)">
     <use xlink:href="#madd024f24f" x="50.22" y="204.746979" style="fill: #2a78d6; stroke: #2a78d6"/>
     <use xlink:href="#madd024f24f" x="123.50836" y="203.447475" style="fill: #2a78d6; stroke: #2a78d6"/>
     <use xlink:href="#madd024f24f" x="180.802473" y="199.982132" style="fill: #2a78d6; stroke: #2a78d6"/>
     <use xlink:href="#madd024f24f" x="228.799615" y="206.046482" style="fill: #2a78d6; stroke: #2a78d6"/>
     <use xlink:href="#madd024f24f" x="265.778659" y="199.115797" style="fill: #2a78d6; stroke: #2a78d6"/>
     <use xlink:href="#madd024f24f" x="307.071324" y="194.35095" style="fill: #2a78d6; stroke: #2a78d6"/>
     <use xlink:href="#madd024f24f" x="337.885994" y="199.548964" style="fill: #2a78d6; stroke: #2a78d6"/>
     <use xlink:href="#madd024f24f" x="383.096205" y="199.982132" style="fill: #2a78d6; stroke: #2a78d6"/>
     <use xlink:href="#madd024f24f" x="411.116742" y="196.516789" style="fill: #2a78d6; stroke: #2a78d6"/>
     <use xlink:href="#madd024f24f" x="437.185708" y="202.581139" style="fill: #2a78d6; stroke: #2a78d6"/>
     <use xlink:href="#madd024f24f" x="463.643547" y="192.185111" style="fill: #2a78d6; stroke: #2a78d6"/>
     <use xlink:href="#madd024f24f" x="490.634288" y="189.586104" style="fill: #2a78d6; stroke: #2a78d6"/>
     <use xlink:href="#madd024f24f" x="519.504588" y="167.927711" style="fill: #2a78d6; stroke: #2a78d6"/>
     <use xlink:href="#madd024f24f" x="563.800225" y="187.420264" style="fill: #2a78d6; stroke: #2a78d6"/>
     <use xlink:href="#madd024f24f" x="589.084241" y="196.083622" style="fill: #2a78d6; stroke: #2a78d6"/>
     <use xlink:href="#madd024f24f" x="617.22" y="208.212321" style="fill: #2a78d6; stroke: #2a78d6"/>
    </g>
   </g>
   <g id="line2d_44">
    <path d="M 50.22 203.447475 
L 123.50836 205.613314 
L 180.802473 193.051447 
L 228.799615 136.739625 
L 265.778659 104.252036 
L 307.071324 95.155511 
L 337.885994 97.754519 
L 383.096205 109.450051 
L 411.116742 127.209933 
L 437.185708 136.739625 
L 463.643547 163.162865 
L 490.634288 129.375772 
L 519.504588 106.417876 
L 563.800225 143.670311 
L 589.084241 180.922747 
L 617.22 186.120761 
" clip-path="url(#p2685e667b0)" style="fill: none; stroke: #eb6834; stroke-width: 2; stroke-linecap: square"/>
    <defs>
     <path id="me40145b685" d="M 0 1.5 
C 0.397805 1.5 0.77937 1.341951 1.06066 1.06066 
C 1.341951 0.77937 1.5 0.397805 1.5 0 
C 1.5 -0.397805 1.341951 -0.77937 1.06066 -1.06066 
C 0.77937 -1.341951 0.397805 -1.5 0 -1.5 
C -0.397805 -1.5 -0.77937 -1.341951 -1.06066 -1.06066 
C -1.341951 -0.77937 -1.5 -0.397805 -1.5 0 
C -1.5 0.397805 -1.341951 0.77937 -1.06066 1.06066 
C -0.77937 1.341951 -0.397805 1.5 0 1.5 
z
" style="stroke: #eb6834"/>
    </defs>
    <g clip-path="url(#p2685e667b0)">
     <use xlink:href="#me40145b685" x="50.22" y="203.447475" style="fill: #eb6834; stroke: #eb6834"/>
     <use xlink:href="#me40145b685" x="123.50836" y="205.613314" style="fill: #eb6834; stroke: #eb6834"/>
     <use xlink:href="#me40145b685" x="180.802473" y="193.051447" style="fill: #eb6834; stroke: #eb6834"/>
     <use xlink:href="#me40145b685" x="228.799615" y="136.739625" style="fill: #eb6834; stroke: #eb6834"/>
     <use xlink:href="#me40145b685" x="265.778659" y="104.252036" style="fill: #eb6834; stroke: #eb6834"/>
     <use xlink:href="#me40145b685" x="307.071324" y="95.155511" style="fill: #eb6834; stroke: #eb6834"/>
     <use xlink:href="#me40145b685" x="337.885994" y="97.754519" style="fill: #eb6834; stroke: #eb6834"/>
     <use xlink:href="#me40145b685" x="383.096205" y="109.450051" style="fill: #eb6834; stroke: #eb6834"/>
     <use xlink:href="#me40145b685" x="411.116742" y="127.209933" style="fill: #eb6834; stroke: #eb6834"/>
     <use xlink:href="#me40145b685" x="437.185708" y="136.739625" style="fill: #eb6834; stroke: #eb6834"/>
     <use xlink:href="#me40145b685" x="463.643547" y="163.162865" style="fill: #eb6834; stroke: #eb6834"/>
     <use xlink:href="#me40145b685" x="490.634288" y="129.375772" style="fill: #eb6834; stroke: #eb6834"/>
     <use xlink:href="#me40145b685" x="519.504588" y="106.417876" style="fill: #eb6834; stroke: #eb6834"/>
     <use xlink:href="#me40145b685" x="563.800225" y="143.670311" style="fill: #eb6834; stroke: #eb6834"/>
     <use xlink:href="#me40145b685" x="589.084241" y="180.922747" style="fill: #eb6834; stroke: #eb6834"/>
     <use xlink:href="#me40145b685" x="617.22" y="186.120761" style="fill: #eb6834; stroke: #eb6834"/>
    </g>
   </g>
   <g id="line2d_45">
    <path d="M 50.22 132.841115 
L 123.50836 92.123336 
L 180.802473 63.534258 
L 228.799615 44.474872 
L 265.778659 56.603572 
L 307.071324 51.838726 
L 337.885994 65.266929 
L 383.096205 71.764447 
L 411.116742 88.657994 
L 437.185708 97.321351 
L 463.643547 133.70745 
L 490.634288 164.462368 
L 519.504588 178.323739 
L 563.800225 162.296529 
L 589.084241 141.93764 
L 617.22 142.803975 
" clip-path="url(#p2685e667b0)" style="fill: none; stroke: #007f1c; stroke-width: 2; stroke-linecap: square"/>
    <defs>
     <path id="m12bb597cd9" d="M 0 1.5 
C 0.397805 1.5 0.77937 1.341951 1.06066 1.06066 
C 1.341951 0.77937 1.5 0.397805 1.5 0 
C 1.5 -0.397805 1.341951 -0.77937 1.06066 -1.06066 
C 0.77937 -1.341951 0.397805 -1.5 0 -1.5 
C -0.397805 -1.5 -0.77937 -1.341951 -1.06066 -1.06066 
C -1.341951 -0.77937 -1.5 -0.397805 -1.5 0 
C -1.5 0.397805 -1.341951 0.77937 -1.06066 1.06066 
C -0.77937 1.341951 -0.397805 1.5 0 1.5 
z
" style="stroke: #007f1c"/>
    </defs>
    <g clip-path="url(#p2685e667b0)">
     <use xlink:href="#m12bb597cd9" x="50.22" y="132.841115" style="fill: #007f1c; stroke: #007f1c"/>
     <use xlink:href="#m12bb597cd9" x="123.50836" y="92.123336" style="fill: #007f1c; stroke: #007f1c"/>
     <use xlink:href="#m12bb597cd9" x="180.802473" y="63.534258" style="fill: #007f1c; stroke: #007f1c"/>
     <use xlink:href="#m12bb597cd9" x="228.799615" y="44.474872" style="fill: #007f1c; stroke: #007f1c"/>
     <use xlink:href="#m12bb597cd9" x="265.778659" y="56.603572" style="fill: #007f1c; stroke: #007f1c"/>
     <use xlink:href="#m12bb597cd9" x="307.071324" y="51.838726" style="fill: #007f1c; stroke: #007f1c"/>
     <use xlink:href="#m12bb597cd9" x="337.885994" y="65.266929" style="fill: #007f1c; stroke: #007f1c"/>
     <use xlink:href="#m12bb597cd9" x="383.096205" y="71.764447" style="fill: #007f1c; stroke: #007f1c"/>
     <use xlink:href="#m12bb597cd9" x="411.116742" y="88.657994" style="fill: #007f1c; stroke: #007f1c"/>
     <use xlink:href="#m12bb597cd9" x="437.185708" y="97.321351" style="fill: #007f1c; stroke: #007f1c"/>
     <use xlink:href="#m12bb597cd9" x="463.643547" y="133.70745" style="fill: #007f1c; stroke: #007f1c"/>
     <use xlink:href="#m12bb597cd9" x="490.634288" y="164.462368" style="fill: #007f1c; stroke: #007f1c"/>
     <use xlink:href="#m12bb597cd9" x="519.504588" y="178.323739" style="fill: #007f1c; stroke: #007f1c"/>
     <use xlink:href="#m12bb597cd9" x="563.800225" y="162.296529" style="fill: #007f1c; stroke: #007f1c"/>
     <use xlink:href="#m12bb597cd9" x="589.084241" y="141.93764" style="fill: #007f1c; stroke: #007f1c"/>
     <use xlink:href="#m12bb597cd9" x="617.22" y="142.803975" style="fill: #007f1c; stroke: #007f1c"/>
    </g>
   </g>
   <g id="line2d_46">
    <path d="M 50.22 128.076268 
L 123.50836 138.039129 
L 180.802473 164.0292 
L 228.799615 195.217286 
L 265.778659 200.4153 
L 307.071324 201.281636 
L 337.885994 196.083622 
L 383.096205 207.345986 
L 411.116742 206.912818 
L 437.185708 207.345986 
L 463.643547 201.281636 
L 490.634288 200.4153 
L 519.504588 196.083622 
L 563.800225 178.756907 
L 589.084241 175.291565 
L 617.22 177.024236 
" clip-path="url(#p2685e667b0)" style="fill: none; stroke: #d03b3b; stroke-width: 2; stroke-linecap: square"/>
    <defs>
     <path id="m40a779caf3" d="M 0 1.5 
C 0.397805 1.5 0.77937 1.341951 1.06066 1.06066 
C 1.341951 0.77937 1.5 0.397805 1.5 0 
C 1.5 -0.397805 1.341951 -0.77937 1.06066 -1.06066 
C 0.77937 -1.341951 0.397805 -1.5 0 -1.5 
C -0.397805 -1.5 -0.77937 -1.341951 -1.06066 -1.06066 
C -1.341951 -0.77937 -1.5 -0.397805 -1.5 0 
C -1.5 0.397805 -1.341951 0.77937 -1.06066 1.06066 
C -0.77937 1.341951 -0.397805 1.5 0 1.5 
z
" style="stroke: #d03b3b"/>
    </defs>
    <g clip-path="url(#p2685e667b0)">
     <use xlink:href="#m40a779caf3" x="50.22" y="128.076268" style="fill: #d03b3b; stroke: #d03b3b"/>
     <use xlink:href="#m40a779caf3" x="123.50836" y="138.039129" style="fill: #d03b3b; stroke: #d03b3b"/>
     <use xlink:href="#m40a779caf3" x="180.802473" y="164.0292" style="fill: #d03b3b; stroke: #d03b3b"/>
     <use xlink:href="#m40a779caf3" x="228.799615" y="195.217286" style="fill: #d03b3b; stroke: #d03b3b"/>
     <use xlink:href="#m40a779caf3" x="265.778659" y="200.4153" style="fill: #d03b3b; stroke: #d03b3b"/>
     <use xlink:href="#m40a779caf3" x="307.071324" y="201.281636" style="fill: #d03b3b; stroke: #d03b3b"/>
     <use xlink:href="#m40a779caf3" x="337.885994" y="196.083622" style="fill: #d03b3b; stroke: #d03b3b"/>
     <use xlink:href="#m40a779caf3" x="383.096205" y="207.345986" style="fill: #d03b3b; stroke: #d03b3b"/>
     <use xlink:href="#m40a779caf3" x="411.116742" y="206.912818" style="fill: #d03b3b; stroke: #d03b3b"/>
     <use xlink:href="#m40a779caf3" x="437.185708" y="207.345986" style="fill: #d03b3b; stroke: #d03b3b"/>
     <use xlink:href="#m40a779caf3" x="463.643547" y="201.281636" style="fill: #d03b3b; stroke: #d03b3b"/>
     <use xlink:href="#m40a779caf3" x="490.634288" y="200.4153" style="fill: #d03b3b; stroke: #d03b3b"/>
     <use xlink:href="#m40a779caf3" x="519.504588" y="196.083622" style="fill: #d03b3b; stroke: #d03b3b"/>
     <use xlink:href="#m40a779caf3" x="563.800225" y="178.756907" style="fill: #d03b3b; stroke: #d03b3b"/>
     <use xlink:href="#m40a779caf3" x="589.084241" y="175.291565" style="fill: #d03b3b; stroke: #d03b3b"/>
     <use xlink:href="#m40a779caf3" x="617.22" y="177.024236" style="fill: #d03b3b; stroke: #d03b3b"/>
    </g>
   </g>
   <g id="line2d_47">
    <path d="M 50.22 178.756907 
L 123.50836 184.821257 
L 180.802473 188.2866 
L 228.799615 196.083622 
L 265.778659 197.816293 
L 307.071324 192.185111 
L 337.885994 196.949957 
L 383.096205 200.848468 
L 411.116742 187.853432 
L 437.185708 180.489579 
L 463.643547 158.831186 
L 490.634288 141.071304 
L 519.504588 138.472297 
L 563.800225 183.521754 
L 589.084241 186.987097 
L 617.22 186.120761 
" clip-path="url(#p2685e667b0)" style="fill: none; stroke: #9b5de5; stroke-width: 2; stroke-linecap: square"/>
    <defs>
     <path id="m5d6bc342a2" d="M 0 1.5 
C 0.397805 1.5 0.77937 1.341951 1.06066 1.06066 
C 1.341951 0.77937 1.5 0.397805 1.5 0 
C 1.5 -0.397805 1.341951 -0.77937 1.06066 -1.06066 
C 0.77937 -1.341951 0.397805 -1.5 0 -1.5 
C -0.397805 -1.5 -0.77937 -1.341951 -1.06066 -1.06066 
C -1.341951 -0.77937 -1.5 -0.397805 -1.5 0 
C -1.5 0.397805 -1.341951 0.77937 -1.06066 1.06066 
C -0.77937 1.341951 -0.397805 1.5 0 1.5 
z
" style="stroke: #9b5de5"/>
    </defs>
    <g clip-path="url(#p2685e667b0)">
     <use xlink:href="#m5d6bc342a2" x="50.22" y="178.756907" style="fill: #9b5de5; stroke: #9b5de5"/>
     <use xlink:href="#m5d6bc342a2" x="123.50836" y="184.821257" style="fill: #9b5de5; stroke: #9b5de5"/>
     <use xlink:href="#m5d6bc342a2" x="180.802473" y="188.2866" style="fill: #9b5de5; stroke: #9b5de5"/>
     <use xlink:href="#m5d6bc342a2" x="228.799615" y="196.083622" style="fill: #9b5de5; stroke: #9b5de5"/>
     <use xlink:href="#m5d6bc342a2" x="265.778659" y="197.816293" style="fill: #9b5de5; stroke: #9b5de5"/>
     <use xlink:href="#m5d6bc342a2" x="307.071324" y="192.185111" style="fill: #9b5de5; stroke: #9b5de5"/>
     <use xlink:href="#m5d6bc342a2" x="337.885994" y="196.949957" style="fill: #9b5de5; stroke: #9b5de5"/>
     <use xlink:href="#m5d6bc342a2" x="383.096205" y="200.848468" style="fill: #9b5de5; stroke: #9b5de5"/>
     <use xlink:href="#m5d6bc342a2" x="411.116742" y="187.853432" style="fill: #9b5de5; stroke: #9b5de5"/>
     <use xlink:href="#m5d6bc342a2" x="437.185708" y="180.489579" style="fill: #9b5de5; stroke: #9b5de5"/>
     <use xlink:href="#m5d6bc342a2" x="463.643547" y="158.831186" style="fill: #9b5de5; stroke: #9b5de5"/>
     <use xlink:href="#m5d6bc342a2" x="490.634288" y="141.071304" style="fill: #9b5de5; stroke: #9b5de5"/>
     <use xlink:href="#m5d6bc342a2" x="519.504588" y="138.472297" style="fill: #9b5de5; stroke: #9b5de5"/>
     <use xlink:href="#m5d6bc342a2" x="563.800225" y="183.521754" style="fill: #9b5de5; stroke: #9b5de5"/>
     <use xlink:href="#m5d6bc342a2" x="589.084241" y="186.987097" style="fill: #9b5de5; stroke: #9b5de5"/>
     <use xlink:href="#m5d6bc342a2" x="617.22" y="186.120761" style="fill: #9b5de5; stroke: #9b5de5"/>
    </g>
   </g>
   <g id="line2d_48">
    <path d="M 50.22 203.447475 
L 123.50836 204.313811 
L 180.802473 195.217286 
L 228.799615 173.125725 
L 265.778659 169.227215 
L 307.071324 162.296529 
L 337.885994 161.430193 
L 383.096205 154.932675 
L 411.116742 151.034165 
L 437.185708 155.365843 
L 463.643547 150.167829 
L 490.634288 155.365843 
L 519.504588 182.655418 
L 563.800225 196.516789 
L 589.084241 200.4153 
L 617.22 208.212321 
" clip-path="url(#p2685e667b0)" style="fill: none; stroke: #00b4b4; stroke-width: 2; stroke-linecap: square"/>
    <defs>
     <path id="m85b799a6b2" d="M 0 1.5 
C 0.397805 1.5 0.77937 1.341951 1.06066 1.06066 
C 1.341951 0.77937 1.5 0.397805 1.5 0 
C 1.5 -0.397805 1.341951 -0.77937 1.06066 -1.06066 
C 0.77937 -1.341951 0.397805 -1.5 0 -1.5 
C -0.397805 -1.5 -0.77937 -1.341951 -1.06066 -1.06066 
C -1.341951 -0.77937 -1.5 -0.397805 -1.5 0 
C -1.5 0.397805 -1.341951 0.77937 -1.06066 1.06066 
C -0.77937 1.341951 -0.397805 1.5 0 1.5 
z
" style="stroke: #00b4b4"/>
    </defs>
    <g clip-path="url(#p2685e667b0)">
     <use xlink:href="#m85b799a6b2" x="50.22" y="203.447475" style="fill: #00b4b4; stroke: #00b4b4"/>
     <use xlink:href="#m85b799a6b2" x="123.50836" y="204.313811" style="fill: #00b4b4; stroke: #00b4b4"/>
     <use xlink:href="#m85b799a6b2" x="180.802473" y="195.217286" style="fill: #00b4b4; stroke: #00b4b4"/>
     <use xlink:href="#m85b799a6b2" x="228.799615" y="173.125725" style="fill: #00b4b4; stroke: #00b4b4"/>
     <use xlink:href="#m85b799a6b2" x="265.778659" y="169.227215" style="fill: #00b4b4; stroke: #00b4b4"/>
     <use xlink:href="#m85b799a6b2" x="307.071324" y="162.296529" style="fill: #00b4b4; stroke: #00b4b4"/>
     <use xlink:href="#m85b799a6b2" x="337.885994" y="161.430193" style="fill: #00b4b4; stroke: #00b4b4"/>
     <use xlink:href="#m85b799a6b2" x="383.096205" y="154.932675" style="fill: #00b4b4; stroke: #00b4b4"/>
     <use xlink:href="#m85b799a6b2" x="411.116742" y="151.034165" style="fill: #00b4b4; stroke: #00b4b4"/>
     <use xlink:href="#m85b799a6b2" x="437.185708" y="155.365843" style="fill: #00b4b4; stroke: #00b4b4"/>
     <use xlink:href="#m85b799a6b2" x="463.643547" y="150.167829" style="fill: #00b4b4; stroke: #00b4b4"/>
     <use xlink:href="#m85b799a6b2" x="490.634288" y="155.365843" style="fill: #00b4b4; stroke: #00b4b4"/>
     <use xlink:href="#m85b799a6b2" x="519.504588" y="182.655418" style="fill: #00b4b4; stroke: #00b4b4"/>
     <use xlink:href="#m85b799a6b2" x="563.800225" y="196.516789" style="fill: #00b4b4; stroke: #00b4b4"/>
     <use xlink:href="#m85b799a6b2" x="589.084241" y="200.4153" style="fill: #00b4b4; stroke: #00b4b4"/>
     <use xlink:href="#m85b799a6b2" x="617.22" y="208.212321" style="fill: #00b4b4; stroke: #00b4b4"/>
    </g>
   </g>
   <g id="line2d_49">
    <path d="M 50.22 160.997025 
L 123.50836 162.296529 
L 180.802473 167.927711 
L 228.799615 177.024236 
L 265.778659 182.655418 
L 307.071324 172.25939 
L 337.885994 170.959886 
L 383.096205 157.96485 
L 411.116742 159.264354 
L 437.185708 169.227215 
L 463.643547 164.895536 
L 490.634288 153.633172 
L 519.504588 154.932675 
L 563.800225 147.568822 
L 589.084241 138.472297 
L 617.22 135.87329 
" clip-path="url(#p2685e667b0)" style="fill: none; stroke: #e0b400; stroke-width: 2; stroke-linecap: square"/>
    <defs>
     <path id="me7d51c1106" d="M 0 1.5 
C 0.397805 1.5 0.77937 1.341951 1.06066 1.06066 
C 1.341951 0.77937 1.5 0.397805 1.5 0 
C 1.5 -0.397805 1.341951 -0.77937 1.06066 -1.06066 
C 0.77937 -1.341951 0.397805 -1.5 0 -1.5 
C -0.397805 -1.5 -0.77937 -1.341951 -1.06066 -1.06066 
C -1.341951 -0.77937 -1.5 -0.397805 -1.5 0 
C -1.5 0.397805 -1.341951 0.77937 -1.06066 1.06066 
C -0.77937 1.341951 -0.397805 1.5 0 1.5 
z
" style="stroke: #e0b400"/>
    </defs>
    <g clip-path="url(#p2685e667b0)">
     <use xlink:href="#me7d51c1106" x="50.22" y="160.997025" style="fill: #e0b400; stroke: #e0b400"/>
     <use xlink:href="#me7d51c1106" x="123.50836" y="162.296529" style="fill: #e0b400; stroke: #e0b400"/>
     <use xlink:href="#me7d51c1106" x="180.802473" y="167.927711" style="fill: #e0b400; stroke: #e0b400"/>
     <use xlink:href="#me7d51c1106" x="228.799615" y="177.024236" style="fill: #e0b400; stroke: #e0b400"/>
     <use xlink:href="#me7d51c1106" x="265.778659" y="182.655418" style="fill: #e0b400; stroke: #e0b400"/>
     <use xlink:href="#me7d51c1106" x="307.071324" y="172.25939" style="fill: #e0b400; stroke: #e0b400"/>
     <use xlink:href="#me7d51c1106" x="337.885994" y="170.959886" style="fill: #e0b400; stroke: #e0b400"/>
     <use xlink:href="#me7d51c1106" x="383.096205" y="157.96485" style="fill: #e0b400; stroke: #e0b400"/>
     <use xlink:href="#me7d51c1106" x="411.116742" y="159.264354" style="fill: #e0b400; stroke: #e0b400"/>
     <use xlink:href="#me7d51c1106" x="437.185708" y="169.227215" style="fill: #e0b400; stroke: #e0b400"/>
     <use xlink:href="#me7d51c1106" x="463.643547" y="164.895536" style="fill: #e0b400; stroke: #e0b400"/>
     <use xlink:href="#me7d51c1106" x="490.634288" y="153.633172" style="fill: #e0b400; stroke: #e0b400"/>
     <use xlink:href="#me7d51c1106" x="519.504588" y="154.932675" style="fill: #e0b400; stroke: #e0b400"/>
     <use xlink:href="#me7d51c1106" x="563.800225" y="147.568822" style="fill: #e0b400; stroke: #e0b400"/>
     <use xlink:href="#me7d51c1106" x="589.084241" y="138.472297" style="fill: #e0b400; stroke: #e0b400"/>
     <use xlink:href="#me7d51c1106" x="617.22" y="135.87329" style="fill: #e0b400; stroke: #e0b400"/>
    </g>
   </g>
   <g id="line2d_50">
    <path d="M 50.22 87.35849 
L 123.50836 93.856008 
L 180.802473 131.974779 
L 228.799615 170.09355 
L 265.778659 181.789082 
L 307.071324 182.22225 
L 337.885994 177.890572 
L 383.096205 175.291565 
L 411.116742 188.2866 
L 437.185708 195.217286 
L 463.643547 187.420264 
L 490.634288 186.120761 
L 519.504588 174.858397 
L 563.800225 152.766836 
L 589.084241 132.841115 
L 617.22 125.044093 
" clip-path="url(#p2685e667b0)" style="fill: none; stroke: #e05299; stroke-width: 2; stroke-linecap: square"/>
    <defs>
     <path id="mb032bcf9fa" d="M 0 1.5 
C 0.397805 1.5 0.77937 1.341951 1.06066 1.06066 
C 1.341951 0.77937 1.5 0.397805 1.5 0 
C 1.5 -0.397805 1.341951 -0.77937 1.06066 -1.06066 
C 0.77937 -1.341951 0.397805 -1.5 0 -1.5 
C -0.397805 -1.5 -0.77937 -1.341951 -1.06066 -1.06066 
C -1.341951 -0.77937 -1.5 -0.397805 -1.5 0 
C -1.5 0.397805 -1.341951 0.77937 -1.06066 1.06066 
C -0.77937 1.341951 -0.397805 1.5 0 1.5 
z
" style="stroke: #e05299"/>
    </defs>
    <g clip-path="url(#p2685e667b0)">
     <use xlink:href="#mb032bcf9fa" x="50.22" y="87.35849" style="fill: #e05299; stroke: #e05299"/>
     <use xlink:href="#mb032bcf9fa" x="123.50836" y="93.856008" style="fill: #e05299; stroke: #e05299"/>
     <use xlink:href="#mb032bcf9fa" x="180.802473" y="131.974779" style="fill: #e05299; stroke: #e05299"/>
     <use xlink:href="#mb032bcf9fa" x="228.799615" y="170.09355" style="fill: #e05299; stroke: #e05299"/>
     <use xlink:href="#mb032bcf9fa" x="265.778659" y="181.789082" style="fill: #e05299; stroke: #e05299"/>
     <use xlink:href="#mb032bcf9fa" x="307.071324" y="182.22225" style="fill: #e05299; stroke: #e05299"/>
     <use xlink:href="#mb032bcf9fa" x="337.885994" y="177.890572" style="fill: #e05299; stroke: #e05299"/>
     <use xlink:href="#mb032bcf9fa" x="383.096205" y="175.291565" style="fill: #e05299; stroke: #e05299"/>
     <use xlink:href="#mb032bcf9fa" x="411.116742" y="188.2866" style="fill: #e05299; stroke: #e05299"/>
     <use xlink:href="#mb032bcf9fa" x="437.185708" y="195.217286" style="fill: #e05299; stroke: #e05299"/>
     <use xlink:href="#mb032bcf9fa" x="463.643547" y="187.420264" style="fill: #e05299; stroke: #e05299"/>
     <use xlink:href="#mb032bcf9fa" x="490.634288" y="186.120761" style="fill: #e05299; stroke: #e05299"/>
     <use xlink:href="#mb032bcf9fa" x="519.504588" y="174.858397" style="fill: #e05299; stroke: #e05299"/>
     <use xlink:href="#mb032bcf9fa" x="563.800225" y="152.766836" style="fill: #e05299; stroke: #e05299"/>
     <use xlink:href="#mb032bcf9fa" x="589.084241" y="132.841115" style="fill: #e05299; stroke: #e05299"/>
     <use xlink:href="#mb032bcf9fa" x="617.22" y="125.044093" style="fill: #e05299; stroke: #e05299"/>
    </g>
   </g>
   <g id="line2d_51">
    <path d="M 50.22 176.1579 
L 123.50836 170.09355 
L 180.802473 171.393054 
L 228.799615 178.323739 
L 265.778659 190.452439 
L 307.071324 187.420264 
L 337.885994 189.152936 
L 383.096205 187.853432 
L 411.116742 190.452439 
L 437.185708 189.586104 
L 463.643547 187.853432 
L 490.634288 189.586104 
L 519.504588 176.1579 
L 563.800225 156.232179 
L 589.084241 152.333668 
L 617.22 151.467333 
" clip-path="url(#p2685e667b0)" style="fill: none; stroke: #8a6d3b; stroke-width: 2; stroke-linecap: square"/>
    <defs>
     <path id="mb037e0f2e9" d="M 0 1.5 
C 0.397805 1.5 0.77937 1.341951 1.06066 1.06066 
C 1.341951 0.77937 1.5 0.397805 1.5 0 
C 1.5 -0.397805 1.341951 -0.77937 1.06066 -1.06066 
C 0.77937 -1.341951 0.397805 -1.5 0 -1.5 
C -0.397805 -1.5 -0.77937 -1.341951 -1.06066 -1.06066 
C -1.341951 -0.77937 -1.5 -0.397805 -1.5 0 
C -1.5 0.397805 -1.341951 0.77937 -1.06066 1.06066 
C -0.77937 1.341951 -0.397805 1.5 0 1.5 
z
" style="stroke: #8a6d3b"/>
    </defs>
    <g clip-path="url(#p2685e667b0)">
     <use xlink:href="#mb037e0f2e9" x="50.22" y="176.1579" style="fill: #8a6d3b; stroke: #8a6d3b"/>
     <use xlink:href="#mb037e0f2e9" x="123.50836" y="170.09355" style="fill: #8a6d3b; stroke: #8a6d3b"/>
     <use xlink:href="#mb037e0f2e9" x="180.802473" y="171.393054" style="fill: #8a6d3b; stroke: #8a6d3b"/>
     <use xlink:href="#mb037e0f2e9" x="228.799615" y="178.323739" style="fill: #8a6d3b; stroke: #8a6d3b"/>
     <use xlink:href="#mb037e0f2e9" x="265.778659" y="190.452439" style="fill: #8a6d3b; stroke: #8a6d3b"/>
     <use xlink:href="#mb037e0f2e9" x="307.071324" y="187.420264" style="fill: #8a6d3b; stroke: #8a6d3b"/>
     <use xlink:href="#mb037e0f2e9" x="337.885994" y="189.152936" style="fill: #8a6d3b; stroke: #8a6d3b"/>
     <use xlink:href="#mb037e0f2e9" x="383.096205" y="187.853432" style="fill: #8a6d3b; stroke: #8a6d3b"/>
     <use xlink:href="#mb037e0f2e9" x="411.116742" y="190.452439" style="fill: #8a6d3b; stroke: #8a6d3b"/>
     <use xlink:href="#mb037e0f2e9" x="437.185708" y="189.586104" style="fill: #8a6d3b; stroke: #8a6d3b"/>
     <use xlink:href="#mb037e0f2e9" x="463.643547" y="187.853432" style="fill: #8a6d3b; stroke: #8a6d3b"/>
     <use xlink:href="#mb037e0f2e9" x="490.634288" y="189.586104" style="fill: #8a6d3b; stroke: #8a6d3b"/>
     <use xlink:href="#mb037e0f2e9" x="519.504588" y="176.1579" style="fill: #8a6d3b; stroke: #8a6d3b"/>
     <use xlink:href="#mb037e0f2e9" x="563.800225" y="156.232179" style="fill: #8a6d3b; stroke: #8a6d3b"/>
     <use xlink:href="#mb037e0f2e9" x="589.084241" y="152.333668" style="fill: #8a6d3b; stroke: #8a6d3b"/>
     <use xlink:href="#mb037e0f2e9" x="617.22" y="151.467333" style="fill: #8a6d3b; stroke: #8a6d3b"/>
    </g>
   </g>
   <g id="patch_3">
    <path d="M 38.88 212.544 
L 628.56 212.544 
" style="fill: none; stroke: #e1e0d9; stroke-width: 0.8; stroke-linejoin: miter; stroke-linecap: square"/>
   </g>
   <g id="text_22">
    <!-- Electrical bikes available by arrondissement — last 24 hours -->
    <g style="fill: #c2c2c2" transform="translate(38.88 24.288) scale(0.13 -0.13)">
     <defs>
      <path id="DejaVuSans-Bold-28" d="M 588 4666 
L 3834 4666 
L 3834 3756 
L 1791 3756 
L 1791 2888 
L 3713 2888 
L 3713 1978 
L 1791 1978 
L 1791 909 
L 3903 909 
L 3903 0 
L 588 0 
L 588 4666 
z
" transform="scale(0.015625)"/>
      <path id="DejaVuSans-Bold-4f" d="M 538 4863 
L 1656 4863 
L 1656 0 
L 538 0 
L 538 4863 
z
" transform="scale(0.015625)"/>
      <path id="DejaVuSans-Bold-48" d="M 4031 1759 
L 4031 1441 
L 1416 1441 
Q 1456 1047 1700 850 
Q 1944 653 2381 653 
Q 2734 653 3104 758 
Q 3475 863 3866 1075 
L 3866 213 
Q 3469 63 3072 -14 
Q 2675 -91 2278 -91 
Q 1328 -91 801 392 
Q 275 875 275 1747 
Q 275 2603 792 3093 
Q 1309 3584 2216 3584 
Q 3041 3584 3536 3087 
Q 4031 2591 4031 1759 
z
M 2881 2131 
Q 2881 2450 2695 2645 
Q 2509 2841 2209 2841 
Q 1884 2841 1681 2658 
Q 1478 2475 1428 2131 
L 2881 2131 
z
" transform="scale(0.015625)"/>
      <path id="DejaVuSans-Bold-46" d="M 3366 3391 
L 3366 2478 
Q 3138 2634 2908 2709 
Q 2678 2784 2431 2784 
Q 1963 2784 1702 2511 
Q 1441 2238 1441 1747 
Q 1441 1256 1702 982 
Q 1963 709 2431 709 
Q 2694 709 2930 787 
Q 3166 866 3366 1019 
L 3366 103 
Q 3103 6 2833 -42 
Q 2563 -91 2291 -91 
Q 1344 -91 809 395 
Q 275 881 275 1747 
Q 275 2613 809 3098 
Q 1344 3584 2291 3584 
Q 2566 3584 2833 3536 
Q 3100 3488 3366 3391 
z
" transform="scale(0.015625)"/>
      <path id="DejaVuSans-Bold-57" d="M 1759 4494 
L 1759 3500 
L 2913 3500 
L 2913 2700 
L 1759 2700 
L 1759 1216 
Q 1759 972 1856 886 
Q 1953 800 2241 800 
L 2816 800 
L 2816 0 
L 1856 0 
Q 1194 0 917 276 
Q 641 553 641 1216 
L 641 2700 
L 84 2700 
L 84 3500 
L 641 3500 
L 641 4494 
L 1759 4494 
z
" transform="scale(0.015625)"/>
      <path id="DejaVuSans-Bold-55" d="M 3138 2547 
Q 2991 2616 2845 2648 
Q 2700 2681 2553 2681 
Q 2122 2681 1889 2404 
Q 1656 2128 1656 1613 
L 1656 0 
L 538 0 
L 538 3500 
L 1656 3500 
L 1656 2925 
Q 1872 3269 2151 3426 
Q 2431 3584 2822 3584 
Q 2878 3584 2943 3579 
Q 3009 3575 3134 3559 
L 3138 2547 
z
" transform="scale(0.015625)"/>
      <path id="DejaVuSans-Bold-4c" d="M 538 3500 
L 1656 3500 
L 1656 0 
L 538 0 
L 538 3500 
z
M 538 4863 
L 1656 4863 
L 1656 3950 
L 538 3950 
L 538 4863 
z
" transform="scale(0.015625)"/>
      <path id="DejaVuSans-Bold-44" d="M 2106 1575 
Q 1756 1575 1579 1456 
Q 1403 1338 1403 1106 
Q 1403 894 1545 773 
Q 1688 653 1941 653 
Q 2256 653 2472 879 
Q 2688 1106 2688 1447 
L 2688 1575 
L 2106 1575 
z
M 3816 1997 
L 3816 0 
L 2688 0 
L 2688 519 
Q 2463 200 2181 54 
Q 1900 -91 1497 -91 
Q 953 -91 614 226 
Q 275 544 275 1050 
Q 275 1666 698 1953 
Q 1122 2241 2028 2241 
L 2688 2241 
L 2688 2328 
Q 2688 2594 2478 2717 
Q 2269 2841 1825 2841 
Q 1466 2841 1156 2769 
Q 847 2697 581 2553 
L 581 3406 
Q 941 3494 1303 3539 
Q 1666 3584 2028 3584 
Q 2975 3584 3395 3211 
Q 3816 2838 3816 1997 
z
" transform="scale(0.015625)"/>
      <path id="DejaVuSans-Bold-3" transform="scale(0.015625)"/>
      <path id="DejaVuSans-Bold-45" d="M 2400 722 
Q 2759 722 2948 984 
Q 3138 1247 3138 1747 
Q 3138 2247 2948 2509 
Q 2759 2772 2400 2772 
Q 2041 2772 1848 2508 
Q 1656 2244 1656 1747 
Q 1656 1250 1848 986 
Q 2041 722 2400 722 
z
M 1656 2988 
Q 1888 3294 2169 3439 
Q 2450 3584 2816 3584 
Q 3463 3584 3878 3070 
Q 4294 2556 4294 1747 
Q 4294 938 3878 423 
Q 3463 -91 2816 -91 
Q 2450 -91 2169 54 
Q 1888 200 1656 506 
L 1656 0 
L 538 0 
L 538 4863 
L 1656 4863 
L 1656 2988 
z
" transform="scale(0.015625)"/>
      <path id="DejaVuSans-Bold-4e" d="M 538 4863 
L 1656 4863 
L 1656 2216 
L 2944 3500 
L 4244 3500 
L 2534 1894 
L 4378 0 
L 3022 0 
L 1656 1459 
L 1656 0 
L 538 0 
L 538 4863 
z
" transform="scale(0.015625)"/>
      <path id="DejaVuSans-Bold-56" d="M 3272 3391 
L 3272 2541 
Q 2913 2691 2578 2766 
Q 2244 2841 1947 2841 
Q 1628 2841 1473 2761 
Q 1319 2681 1319 2516 
Q 1319 2381 1436 2309 
Q 1553 2238 1856 2203 
L 2053 2175 
Q 2913 2066 3209 1816 
Q 3506 1566 3506 1031 
Q 3506 472 3093 190 
Q 2681 -91 1863 -91 
Q 1516 -91 1145 -36 
Q 775 19 384 128 
L 384 978 
Q 719 816 1070 734 
Q 1422 653 1784 653 
Q 2113 653 2278 743 
Q 2444 834 2444 1013 
Q 2444 1163 2330 1236 
Q 2216 1309 1875 1350 
L 1678 1375 
Q 931 1469 631 1722 
Q 331 1975 331 2491 
Q 331 3047 712 3315 
Q 1094 3584 1881 3584 
Q 2191 3584 2531 3537 
Q 2872 3491 3272 3391 
z
" transform="scale(0.015625)"/>
      <path id="DejaVuSans-Bold-59" d="M 97 3500 
L 1216 3500 
L 2088 1081 
L 2956 3500 
L 4078 3500 
L 2700 0 
L 1472 0 
L 97 3500 
z
" transform="scale(0.015625)"/>
      <path id="DejaVuSans-Bold-5c" d="M 78 3500 
L 1197 3500 
L 2138 1125 
L 2938 3500 
L 4056 3500 
L 2584 -331 
Q 2363 -916 2067 -1148 
Q 1772 -1381 1288 -1381 
L 641 -1381 
L 641 -647 
L 991 -647 
Q 1275 -647 1404 -556 
Q 1534 -466 1606 -231 
L 1638 -134 
L 78 3500 
z
" transform="scale(0.015625)"/>
      <path id="DejaVuSans-Bold-52" d="M 2203 2784 
Q 1831 2784 1636 2517 
Q 1441 2250 1441 1747 
Q 1441 1244 1636 976 
Q 1831 709 2203 709 
Q 2569 709 2762 976 
Q 2956 1244 2956 1747 
Q 2956 2250 2762 2517 
Q 2569 2784 2203 2784 
z
M 2203 3584 
Q 3106 3584 3614 3096 
Q 4122 2609 4122 1747 
Q 4122 884 3614 396 
Q 3106 -91 2203 -91 
Q 1297 -91 786 396 
Q 275 884 275 1747 
Q 275 2609 786 3096 
Q 1297 3584 2203 3584 
z
" transform="scale(0.015625)"/>
      <path id="DejaVuSans-Bold-51" d="M 4056 2131 
L 4056 0 
L 2931 0 
L 2931 347 
L 2931 1631 
Q 2931 2084 2911 2256 
Q 2891 2428 2841 2509 
Q 2775 2619 2662 2680 
Q 2550 2741 2406 2741 
Q 2056 2741 1856 2470 
Q 1656 2200 1656 1722 
L 1656 0 
L 538 0 
L 538 3500 
L 1656 3500 
L 1656 2988 
Q 1909 3294 2193 3439 
Q 2478 3584 2822 3584 
Q 3428 3584 3742 3212 
Q 4056 2841 4056 2131 
z
" transform="scale(0.015625)"/>
      <path id="DejaVuSans-Bold-47" d="M 2919 2988 
L 2919 4863 
L 4044 4863 
L 4044 0 
L 2919 0 
L 2919 506 
Q 2688 197 2409 53 
Q 2131 -91 1766 -91 
Q 1119 -91 703 423 
Q 288 938 288 1747 
Q 288 2556 703 3070 
Q 1119 3584 1766 3584 
Q 2128 3584 2408 3439 
Q 2688 3294 2919 2988 
z
M 2181 722 
Q 2541 722 2730 984 
Q 2919 1247 2919 1747 
Q 2919 2247 2730 2509 
Q 2541 2772 2181 2772 
Q 1825 2772 1636 2509 
Q 1447 2247 1447 1747 
Q 1447 1247 1636 984 
Q 1825 722 2181 722 
z
" transform="scale(0.015625)"/>
      <path id="DejaVuSans-Bold-50" d="M 3781 2919 
Q 3994 3244 4286 3414 
Q 4578 3584 4928 3584 
Q 5531 3584 5847 3212 
Q 6163 2841 6163 2131 
L 6163 0 
L 5038 0 
L 5038 1825 
Q 5041 1866 5042 1909 
Q 5044 1953 5044 2034 
Q 5044 2406 4934 2573 
Q 4825 2741 4581 2741 
Q 4263 2741 4089 2478 
Q 3916 2216 3909 1719 
L 3909 0 
L 2784 0 
L 2784 1825 
Q 2784 2406 2684 2573 
Q 2584 2741 2328 2741 
Q 2006 2741 1831 2477 
Q 1656 2213 1656 1722 
L 1656 0 
L 531 0 
L 531 3500 
L 1656 3500 
L 1656 2988 
Q 1863 3284 2130 3434 
Q 2397 3584 2719 3584 
Q 3081 3584 3359 3409 
Q 3638 3234 3781 2919 
z
" transform="scale(0.015625)"/>
      <path id="DejaVuSans-Bold-af6" d="M 344 2156 
L 6056 2156 
L 6056 1350 
L 344 1350 
L 344 2156 
z
" transform="scale(0.015625)"/>
      <path id="DejaVuSans-Bold-15" d="M 1844 884 
L 3897 884 
L 3897 0 
L 506 0 
L 506 884 
L 2209 2388 
Q 2438 2594 2547 2791 
Q 2656 2988 2656 3200 
Q 2656 3528 2436 3728 
Q 2216 3928 1850 3928 
Q 1569 3928 1234 3808 
Q 900 3688 519 3450 
L 519 4475 
Q 925 4609 1322 4679 
Q 1719 4750 2100 4750 
Q 2938 4750 3402 4381 
Q 3866 4013 3866 3353 
Q 3866 2972 3669 2642 
Q 3472 2313 2841 1759 
L 1844 884 
z
" transform="scale(0.015625)"/>
      <path id="DejaVuSans-Bold-17" d="M 2356 3675 
L 1038 1722 
L 2356 1722 
L 2356 3675 
z
M 2156 4666 
L 3494 4666 
L 3494 1722 
L 4159 1722 
L 4159 850 
L 3494 850 
L 3494 0 
L 2356 0 
L 2356 850 
L 288 850 
L 288 1881 
L 2156 4666 
z
" transform="scale(0.015625)"/>
      <path id="DejaVuSans-Bold-4b" d="M 4056 2131 
L 4056 0 
L 2931 0 
L 2931 347 
L 2931 1625 
Q 2931 2084 2911 2256 
Q 2891 2428 2841 2509 
Q 2775 2619 2662 2680 
Q 2550 2741 2406 2741 
Q 2056 2741 1856 2470 
Q 1656 2200 1656 1722 
L 1656 0 
L 538 0 
L 538 4863 
L 1656 4863 
L 1656 2988 
Q 1909 3294 2193 3439 
Q 2478 3584 2822 3584 
Q 3428 3584 3742 3212 
Q 4056 2841 4056 2131 
z
" transform="scale(0.015625)"/>
      <path id="DejaVuSans-Bold-58" d="M 500 1363 
L 500 3500 
L 1625 3500 
L 1625 3150 
Q 1625 2866 1622 2436 
Q 1619 2006 1619 1863 
Q 1619 1441 1641 1255 
Q 1663 1069 1716 984 
Q 1784 875 1895 815 
Q 2006 756 2150 756 
Q 2500 756 2700 1025 
Q 2900 1294 2900 1772 
L 2900 3500 
L 4019 3500 
L 4019 0 
L 2900 0 
L 2900 506 
Q 2647 200 2364 54 
Q 2081 -91 1741 -91 
Q 1134 -91 817 281 
Q 500 653 500 1363 
z
" transform="scale(0.015625)"/>
     </defs>
     <use xlink:href="#DejaVuSans-Bold-28"/>
     <use xlink:href="#DejaVuSans-Bold-4f" transform="translate(68.3125 0)"/>
     <use xlink:href="#DejaVuSans-Bold-48" transform="translate(102.59375 0)"/>
     <use xlink:href="#DejaVuSans-Bold-46" transform="translate(170.421875 0)"/>
     <use xlink:href="#DejaVuSans-Bold-57" transform="translate(229.703125 0)"/>
     <use xlink:href="#DejaVuSans-Bold-55" transform="translate(277.5 0)"/>
     <use xlink:href="#DejaVuSans-Bold-4c" transform="translate(326.8125 0)"/>
     <use xlink:href="#DejaVuSans-Bold-46" transform="translate(361.09375 0)"/>
     <use xlink:href="#DejaVuSans-Bold-44" transform="translate(420.375 0)"/>
     <use xlink:href="#DejaVuSans-Bold-4f" transform="translate(487.859375 0)"/>
     <use xlink:href="#DejaVuSans-Bold-3" transform="translate(522.140625 0)"/>
     <use xlink:href="#DejaVuSans-Bold-45" transform="translate(556.953125 0)"/>
     <use xlink:href="#DejaVuSans-Bold-4c" transform="translate(628.53125 0)"/>
     <use xlink:href="#DejaVuSans-Bold-4e" transform="translate(662.8125 0)"/>
     <use xlink:href="#DejaVuSans-Bold-48" transform="translate(726.625 0)"/>
     <use xlink:href="#DejaVuSans-Bold-56" transform="translate(794.453125 0)"/>
     <use xlink:href="#DejaVuSans-Bold-3" transform="translate(853.96875 0)"/>
     <use xlink:href="#DejaVuSans-Bold-44" transform="translate(888.78125 0)"/>
     <use xlink:href="#DejaVuSans-Bold-59" transform="translate(956.265625 0)"/>
     <use xlink:href="#DejaVuSans-Bold-44" transform="translate(1021.453125 0)"/>
     <use xlink:href="#DejaVuSans-Bold-4c" transform="translate(1088.9375 0)"/>
     <use xlink:href="#DejaVuSans-Bold-4f" transform="translate(1123.21875 0)"/>
     <use xlink:href="#DejaVuSans-Bold-44" transform="translate(1157.5 0)"/>
     <use xlink:href="#DejaVuSans-Bold-45" transform="translate(1224.984375 0)"/>
     <use xlink:href="#DejaVuSans-Bold-4f" transform="translate(1296.5625 0)"/>
     <use xlink:href="#DejaVuSans-Bold-48" transform="translate(1330.84375 0)"/>
     <use xlink:href="#DejaVuSans-Bold-3" transform="translate(1398.671875 0)"/>
     <use xlink:href="#DejaVuSans-Bold-45" transform="translate(1433.484375 0)"/>
     <use xlink:href="#DejaVuSans-Bold-5c" transform="translate(1505.0625 0)"/>
     <use xlink:href="#DejaVuSans-Bold-3" transform="translate(1570.25 0)"/>
     <use xlink:href="#DejaVuSans-Bold-44" transform="translate(1605.0625 0)"/>
     <use xlink:href="#DejaVuSans-Bold-55" transform="translate(1672.546875 0)"/>
     <use xlink:href="#DejaVuSans-Bold-55" transform="translate(1721.859375 0)"/>
     <use xlink:href="#DejaVuSans-Bold-52" transform="translate(1771.171875 0)"/>
     <use xlink:href="#DejaVuSans-Bold-51" transform="translate(1839.875 0)"/>
     <use xlink:href="#DejaVuSans-Bold-47" transform="translate(1911.0625 0)"/>
     <use xlink:href="#DejaVuSans-Bold-4c" transform="translate(1982.640625 0)"/>
     <use xlink:href="#DejaVuSans-Bold-56" transform="translate(2016.921875 0)"/>
     <use xlink:href="#DejaVuSans-Bold-56" transform="translate(2076.4375 0)"/>
     <use xlink:href="#DejaVuSans-Bold-48" transform="translate(2135.953125 0)"/>
     <use xlink:href="#DejaVuSans-Bold-50" transform="translate(2203.78125 0)"/>
     <use xlink:href="#DejaVuSans-Bold-48" transform="translate(2307.984375 0)"/>
     <use xlink:href="#DejaVuSans-Bold-51" transform="translate(2375.8125 0)"/>
     <use xlink:href="#DejaVuSans-Bold-57" transform="translate(2447 0)"/>
     <use xlink:href="#DejaVuSans-Bold-3" transform="translate(2494.796875 0)"/>
     <use xlink:href="#DejaVuSans-Bold-af6" transform="translate(2529.609375 0)"/>
     <use xlink:href="#DejaVuSans-Bold-3" transform="translate(2629.609375 0)"/>
     <use xlink:href="#DejaVuSans-Bold-4f" transform="translate(2664.421875 0)"/>
     <use xlink:href="#DejaVuSans-Bold-44" transform="translate(2698.703125 0)"/>
     <use xlink:href="#DejaVuSans-Bold-56" transform="translate(2766.1875 0)"/>
     <use xlink:href="#DejaVuSans-Bold-57" transform="translate(2825.703125 0)"/>
     <use xlink:href="#DejaVuSans-Bold-3" transform="translate(2873.5 0)"/>
     <use xlink:href="#DejaVuSans-Bold-15" transform="translate(2908.3125 0)"/>
     <use xlink:href="#DejaVuSans-Bold-17" transform="translate(2977.890625 0)"/>
     <use xlink:href="#DejaVuSans-Bold-3" transform="translate(3047.46875 0)"/>
     <use xlink:href="#DejaVuSans-Bold-4b" transform="translate(3082.28125 0)"/>
     <use xlink:href="#DejaVuSans-Bold-52" transform="translate(3153.46875 0)"/>
     <use xlink:href="#DejaVuSans-Bold-58" transform="translate(3222.171875 0)"/>
     <use xlink:href="#DejaVuSans-Bold-55" transform="translate(3293.359375 0)"/>
     <use xlink:href="#DejaVuSans-Bold-56" transform="translate(3342.671875 0)"/>
    </g>
   </g>
   <g id="legend_1">
    <g id="line2d_52">
     <path d="M 46.98 48.076594 
L 53.28 48.076594 
L 59.58 48.076594 
" style="fill: none; stroke: #2a78d6; stroke-width: 2; stroke-linecap: square"/>
     <g>
      <use xlink:href="#madd024f24f" x="53.28" y="48.076594" style="fill: #2a78d6; stroke: #2a78d6"/>
     </g>
    </g>
    <g id="text_23">
     <!-- 1e -->
     <g style="fill: #c2c2c2" transform="translate(66.78 51.226594) scale(0.09 -0.09)">
      <defs>
       <path id="DejaVuSans-48" d="M 3597 1894 
L 3597 1613 
L 953 1613 
Q 991 1019 1311 708 
Q 1631 397 2203 397 
Q 2534 397 2845 478 
Q 3156 559 3463 722 
L 3463 178 
Q 3153 47 2828 -22 
Q 2503 -91 2169 -91 
Q 1331 -91 842 396 
Q 353 884 353 1716 
Q 353 2575 817 3079 
Q 1281 3584 2069 3584 
Q 2775 3584 3186 3129 
Q 3597 2675 3597 1894 
z
M 3022 2063 
Q 3016 2534 2758 2815 
Q 2500 3097 2075 3097 
Q 1594 3097 1305 2825 
Q 1016 2553 972 2059 
L 3022 2063 
z
" transform="scale(0.015625)"/>
      </defs>
      <use xlink:href="#DejaVuSans-14"/>
      <use xlink:href="#DejaVuSans-48" transform="translate(63.625 0)"/>
     </g>
    </g>
    <g id="line2d_53">
     <path d="M 86.144062 48.076594 
L 92.444062 48.076594 
L 98.744062 48.076594 
" style="fill: none; stroke: #eb6834; stroke-width: 2; stroke-linecap: square"/>
     <g>
      <use xlink:href="#me40145b685" x="92.444062" y="48.076594" style="fill: #eb6834; stroke: #eb6834"/>
     </g>
    </g>
    <g id="text_24">
     <!-- 2e -->
     <g style="fill: #c2c2c2" transform="translate(105.944062 51.226594) scale(0.09 -0.09)">
      <use xlink:href="#DejaVuSans-15"/>
      <use xlink:href="#DejaVuSans-48" transform="translate(63.625 0)"/>
     </g>
    </g>
    <g id="line2d_54">
     <path d="M 125.308125 48.076594 
L 131.608125 48.076594 
L 137.908125 48.076594 
" style="fill: none; stroke: #007f1c; stroke-width: 2; stroke-linecap: square"/>
     <g>
      <use xlink:href="#m12bb597cd9" x="131.608125" y="48.076594" style="fill: #007f1c; stroke: #007f1c"/>
     </g>
    </g>
    <g id="text_25">
     <!-- 3e -->
     <g style="fill: #c2c2c2" transform="translate(145.108125 51.226594) scale(0.09 -0.09)">
      <use xlink:href="#DejaVuSans-16"/>
      <use xlink:href="#DejaVuSans-48" transform="translate(63.625 0)"/>
     </g>
    </g>
    <g id="line2d_55">
     <path d="M 164.472187 48.076594 
L 170.772188 48.076594 
L 177.072187 48.076594 
" style="fill: none; stroke: #d03b3b; stroke-width: 2; stroke-linecap: square"/>
     <g>
      <use xlink:href="#m40a779caf3" x="170.772188" y="48.076594" style="fill: #d03b3b; stroke: #d03b3b"/>
     </g>
    </g>
    <g id="text_26">
     <!-- 4e -->
     <g style="fill: #c2c2c2" transform="translate(184.272188 51.226594) scale(0.09 -0.09)">
      <use xlink:href="#DejaVuSans-17"/>
      <use xlink:href="#DejaVuSans-48" transform="translate(63.625 0)"/>
     </g>
    </g>
    <g id="line2d_56">
     <path d="M 203.63625 48.076594 
L 209.93625 48.076594 
L 216.23625 48.076594 
" style="fill: none; stroke: #9b5de5; stroke-width: 2; stroke-linecap: square"/>
     <g>
      <use xlink:href="#m5d6bc342a2" x="209.93625" y="48.076594" style="fill: #9b5de5; stroke: #9b5de5"/>
     </g>
    </g>
    <g id="text_27">
     <!-- 5e -->
     <g style="fill: #c2c2c2" transform="translate(223.43625 51.226594) scale(0.09 -0.09)">
      <use xlink:href="#DejaVuSans-18"/>
      <use xlink:href="#DejaVuSans-48" transform="translate(63.625 0)"/>
     </g>
    </g>
    <g id="line2d_57">
     <path d="M 242.800312 48.076594 
L 249.100313 48.076594 
L 255.400312 48.076594 
" style="fill: none; stroke: #00b4b4; stroke-width: 2; stroke-linecap: square"/>
     <g>
      <use xlink:href="#m85b799a6b2" x="249.100313" y="48.076594" style="fill: #00b4b4; stroke: #00b4b4"/>
     </g>
    </g>
    <g id="text_28">
     <!-- 6e -->
     <g style="fill: #c2c2c2" transform="translate(262.600312 51.226594) scale(0.09 -0.09)">
      <use xlink:href="#DejaVuSans-19"/>
      <use xlink:href="#DejaVuSans-48" transform="translate(63.625 0)"/>
     </g>
    </g>
    <g id="line2d_58">
     <path d="M 281.964375 48.076594 
L 288.264375 48.076594 
L 294.564375 48.076594 
" style="fill: none; stroke: #e0b400; stroke-width: 2; stroke-linecap: square"/>
     <g>
      <use xlink:href="#me7d51c1106" x="288.264375" y="48.076594" style="fill: #e0b400; stroke: #e0b400"/>
     </g>
    </g>
    <g id="text_29">
     <!-- 7e -->
     <g style="fill: #c2c2c2" transform="translate(301.764375 51.226594) scale(0.09 -0.09)">
      <use xlink:href="#DejaVuSans-1a"/>
      <use xlink:href="#DejaVuSans-48" transform="translate(63.625 0)"/>
     </g>
    </g>
    <g id="line2d_59">
     <path d="M 321.128438 48.076594 
L 327.428438 48.076594 
L 333.728438 48.076594 
" style="fill: none; stroke: #e05299; stroke-width: 2; stroke-linecap: square"/>
     <g>
      <use xlink:href="#mb032bcf9fa" x="327.428438" y="48.076594" style="fill: #e05299; stroke: #e05299"/>
     </g>
    </g>
    <g id="text_30">
     <!-- 8e -->
     <g style="fill: #c2c2c2" transform="translate(340.928438 51.226594) scale(0.09 -0.09)">
      <use xlink:href="#DejaVuSans-1b"/>
      <use xlink:href="#DejaVuSans-48" transform="translate(63.625 0)"/>
     </g>
    </g>
    <g id="line2d_60">
     <path d="M 360.2925 48.076594 
L 366.5925 48.076594 
L 372.8925 48.076594 
" style="fill: none; stroke: #8a6d3b; stroke-width: 2; stroke-linecap: square"/>
     <g>
      <use xlink:href="#mb037e0f2e9" x="366.5925" y="48.076594" style="fill: #8a6d3b; stroke: #8a6d3b"/>
     </g>
    </g>
    <g id="text_31">
     <!-- 9e -->
     <g style="fill: #c2c2c2" transform="translate(380.0925 51.226594) scale(0.09 -0.09)">
      <use xlink:href="#DejaVuSans-1c"/>
      <use xlink:href="#DejaVuSans-48" transform="translate(63.625 0)"/>
     </g>
    </g>
   </g>
  </g>
 </g>
 <defs>
  <clipPath id="p2685e667b0">
   <rect x="38.88" y="36.288" width="589.68" height="176.256"/>
  </clipPath>
 </defs>
</svg>
