<?xml version="1.0" encoding="utf-8" standalone="no"?>
<!DOCTYPE svg PUBLIC "-//W3C//DTD SVG 1.1//EN"
  "http://www.w3.org/Graphics/SVG/1.1/DTD/svg11.dtd">
<svg xmlns:xlink="http://www.w3.org/1999/xlink" width="648pt" height="259.2pt" viewBox="0 0 648 259.2" xmlns="http://www.w3.org/2000/svg" version="1.1">
 <metadata>
  <rdf:RDF xmlns:dc="http://purl.org/dc/elements/1.1/" xmlns:cc="http://creativecommons.org/ns#" xmlns:rdf="http://www.w3.org/1999/02/22-rdf-syntax-ns#">
   <cc:Work>
    <dc:type rdf:resource="http://purl.org/dc/dcmitype/StillImage"/>
    <dc:date>2026-07-15T21:53:32.178655</dc:date>
    <dc:format>image/svg+xml</dc:format>
    <dc:creator>
     <cc:Agent>
      <dc:title>Matplotlib v3.11.0, https://matplotlib.org/</dc:title>
     </cc:Agent>
    </dc:creator>
   </cc:Work>
  </rdf:RDF>
 </metadata>
 <defs>
  <style type="text/css">*{stroke-linejoin: round; stroke-linecap: butt}</style>
 </defs>
 <g id="figure_1">
  <g id="patch_1">
   <path d="M 0 259.2 
L 648 259.2 
L 648 0 
L 0 0 
z
" style="fill: #262626"/>
  </g>
  <g id="axes_1">
   <g id="patch_2">
    <path d="M 38.88 220.32 
L 628.56 220.32 
L 628.56 36.288 
L 38.88 36.288 
z
" style="fill: #262626"/>
   </g>
   <g id="matplotlib.axis_1">
    <g id="xtick_1">
     <g id="line2d_1">
      <path d="M 51.165 220.32 
L 51.165 36.288 
" clip-path="url(#p629b674205)" style="fill: none; stroke: #e1e0d9; stroke-width: 0.8; stroke-linecap: square"/>
     </g>
     <g id="line2d_2"/>
     <g id="text_1">
      <!-- 00h -->
      <g style="fill: #898781" transform="translate(42.586875 230.658594) scale(0.09 -0.09)">
       <defs>
        <path id="DejaVuSans-13" d="M 2034 4250 
Q 1547 4250 1301 3770 
Q 1056 3291 1056 2328 
Q 1056 1369 1301 889 
Q 1547 409 2034 409 
Q 2525 409 2770 889 
Q 3016 1369 3016 2328 
Q 3016 3291 2770 3770 
Q 2525 4250 2034 4250 
z
M 2034 4750 
Q 2819 4750 3233 4129 
Q 3647 3509 3647 2328 
Q 3647 1150 3233 529 
Q 2819 -91 2034 -91 
Q 1250 -91 836 529 
Q 422 1150 422 2328 
Q 422 3509 836 4129 
Q 1250 4750 2034 4750 
z
" transform="scale(0.015625)"/>
        <path id="DejaVuSans-4b" d="M 3513 2113 
L 3513 0 
L 2938 0 
L 2938 2094 
Q 2938 2591 2744 2837 
Q 2550 3084 2163 3084 
Q 1697 3084 1428 2787 
Q 1159 2491 1159 1978 
L 1159 0 
L 581 0 
L 581 4863 
L 1159 4863 
L 1159 2956 
Q 1366 3272 1645 3428 
Q 1925 3584 2291 3584 
Q 2894 3584 3203 3211 
Q 3513 2838 3513 2113 
z
" transform="scale(0.015625)"/>
       </defs>
       <use xlink:href="#DejaVuSans-13"/>
       <use xlink:href="#DejaVuSans-13" transform="translate(63.625 0)"/>
       <use xlink:href="#DejaVuSans-4b" transform="translate(127.25 0)"/>
      </g>
     </g>
    </g>
    <g id="xtick_2">
     <g id="line2d_3">
      <path d="M 100.305 220.32 
L 100.305 36.288 
" clip-path="url(#p629b674205)" style="fill: none; stroke: #e1e0d9; stroke-width: 0.8; stroke-linecap: square"/>
     </g>
     <g id="line2d_4"/>
     <g id="text_2">
      <!-- 02h -->
      <g style="fill: #898781" transform="translate(91.726875 230.658594) scale(0.09 -0.09)">
       <defs>
        <path id="DejaVuSans-15" d="M 1228 531 
L 3431 531 
L 3431 0 
L 469 0 
L 469 531 
Q 828 903 1448 1529 
Q 2069 2156 2228 2338 
Q 2531 2678 2651 2914 
Q 2772 3150 2772 3378 
Q 2772 3750 2511 3984 
Q 2250 4219 1831 4219 
Q 1534 4219 1204 4116 
Q 875 4013 500 3803 
L 500 4441 
Q 881 4594 1212 4672 
Q 1544 4750 1819 4750 
Q 2544 4750 2975 4387 
Q 3406 4025 3406 3419 
Q 3406 3131 3298 2873 
Q 3191 2616 2906 2266 
Q 2828 2175 2409 1742 
Q 1991 1309 1228 531 
z
" transform="scale(0.015625)"/>
       </defs>
       <use xlink:href="#DejaVuSans-13"/>
       <use xlink:href="#DejaVuSans-15" transform="translate(63.625 0)"/>
       <use xlink:href="#DejaVuSans-4b" transform="translate(127.25 0)"/>
      </g>
     </g>
    </g>
    <g id="xtick_3">
     <g id="line2d_5">
      <path d="M 149.445 220.32 
L 149.445 36.288 
" clip-path="url(#p629b674205)" style="fill: none; stroke: #e1e0d9; stroke-width: 0.8; stroke-linecap: square"/>
     </g>
     <g id="line2d_6"/>
     <g id="text_3">
      <!-- 04h -->
      <g style="fill: #898781" transform="translate(140.866875 230.658594) scale(0.09 -0.09)">
       <defs>
        <path id="DejaVuSans-17" d="M 2419 4116 
L 825 1625 
L 2419 1625 
L 2419 4116 
z
M 2253 4666 
L 3047 4666 
L 3047 1625 
L 3713 1625 
L 3713 1100 
L 3047 1100 
L 3047 0 
L 2419 0 
L 2419 1100 
L 313 1100 
L 313 1709 
L 2253 4666 
z
" transform="scale(0.015625)"/>
       </defs>
       <use xlink:href="#DejaVuSans-13"/>
       <use xlink:href="#DejaVuSans-17" transform="translate(63.625 0)"/>
       <use xlink:href="#DejaVuSans-4b" transform="translate(127.25 0)"/>
      </g>
     </g>
    </g>
    <g id="xtick_4">
     <g id="line2d_7">
      <path d="M 198.585 220.32 
L 198.585 36.288 
" clip-path="url(#p629b674205)" style="fill: none; stroke: #e1e0d9; stroke-width: 0.8; stroke-linecap: square"/>
     </g>
     <g id="line2d_8"/>
     <g id="text_4">
      <!-- 06h -->
      <g style="fill: #898781" transform="translate(190.006875 230.658594) scale(0.09 -0.09)">
       <defs>
        <path id="DejaVuSans-19" d="M 2113 2584 
Q 1688 2584 1439 2293 
Q 1191 2003 1191 1497 
Q 1191 994 1439 701 
Q 1688 409 2113 409 
Q 2538 409 2786 701 
Q 3034 994 3034 1497 
Q 3034 2003 2786 2293 
Q 2538 2584 2113 2584 
z
M 3366 4563 
L 3366 3988 
Q 3128 4100 2886 4159 
Q 2644 4219 2406 4219 
Q 1781 4219 1451 3797 
Q 1122 3375 1075 2522 
Q 1259 2794 1537 2939 
Q 1816 3084 2150 3084 
Q 2853 3084 3261 2657 
Q 3669 2231 3669 1497 
Q 3669 778 3244 343 
Q 2819 -91 2113 -91 
Q 1303 -91 875 529 
Q 447 1150 447 2328 
Q 447 3434 972 4092 
Q 1497 4750 2381 4750 
Q 2619 4750 2861 4703 
Q 3103 4656 3366 4563 
z
" transform="scale(0.015625)"/>
       </defs>
       <use xlink:href="#DejaVuSans-13"/>
       <use xlink:href="#DejaVuSans-19" transform="translate(63.625 0)"/>
       <use xlink:href="#DejaVuSans-4b" transform="translate(127.25 0)"/>
      </g>
     </g>
    </g>
    <g id="xtick_5">
     <g id="line2d_9">
      <path d="M 247.725 220.32 
L 247.725 36.288 
" clip-path="url(#p629b674205)" style="fill: none; stroke: #e1e0d9; stroke-width: 0.8; stroke-linecap: square"/>
     </g>
     <g id="line2d_10"/>
     <g id="text_5">
      <!-- 08h -->
      <g style="fill: #898781" transform="translate(239.146875 230.658594) scale(0.09 -0.09)">
       <defs>
        <path id="DejaVuSans-1b" d="M 2034 2216 
Q 1584 2216 1326 1975 
Q 1069 1734 1069 1313 
Q 1069 891 1326 650 
Q 1584 409 2034 409 
Q 2484 409 2743 651 
Q 3003 894 3003 1313 
Q 3003 1734 2745 1975 
Q 2488 2216 2034 2216 
z
M 1403 2484 
Q 997 2584 770 2862 
Q 544 3141 544 3541 
Q 544 4100 942 4425 
Q 1341 4750 2034 4750 
Q 2731 4750 3128 4425 
Q 3525 4100 3525 3541 
Q 3525 3141 3298 2862 
Q 3072 2584 2669 2484 
Q 3125 2378 3379 2068 
Q 3634 1759 3634 1313 
Q 3634 634 3220 271 
Q 2806 -91 2034 -91 
Q 1263 -91 848 271 
Q 434 634 434 1313 
Q 434 1759 690 2068 
Q 947 2378 1403 2484 
z
M 1172 3481 
Q 1172 3119 1398 2916 
Q 1625 2713 2034 2713 
Q 2441 2713 2670 2916 
Q 2900 3119 2900 3481 
Q 2900 3844 2670 4047 
Q 2441 4250 2034 4250 
Q 1625 4250 1398 4047 
Q 1172 3844 1172 3481 
z
" transform="scale(0.015625)"/>
       </defs>
       <use xlink:href="#DejaVuSans-13"/>
       <use xlink:href="#DejaVuSans-1b" transform="translate(63.625 0)"/>
       <use xlink:href="#DejaVuSans-4b" transform="translate(127.25 0)"/>
      </g>
     </g>
    </g>
    <g id="xtick_6">
     <g id="line2d_11">
      <path d="M 296.865 220.32 
L 296.865 36.288 
" clip-path="url(#p629b674205)" style="fill: none; stroke: #e1e0d9; stroke-width: 0.8; stroke-linecap: square"/>
     </g>
     <g id="line2d_12"/>
     <g id="text_6">
      <!-- 10h -->
      <g style="fill: #898781" transform="translate(288.286875 230.658594) scale(0.09 -0.09)">
       <defs>
        <path id="DejaVuSans-14" d="M 794 531 
L 1825 531 
L 1825 4091 
L 703 3866 
L 703 4441 
L 1819 4666 
L 2450 4666 
L 2450 531 
L 3481 531 
L 3481 0 
L 794 0 
L 794 531 
z
" transform="scale(0.015625)"/>
       </defs>
       <use xlink:href="#DejaVuSans-14"/>
       <use xlink:href="#DejaVuSans-13" transform="translate(63.625 0)"/>
       <use xlink:href="#DejaVuSans-4b" transform="translate(127.25 0)"/>
      </g>
     </g>
    </g>
    <g id="xtick_7">
     <g id="line2d_13">
      <path d="M 346.005 220.32 
L 346.005 36.288 
" clip-path="url(#p629b674205)" style="fill: none; stroke: #e1e0d9; stroke-width: 0.8; stroke-linecap: square"/>
     </g>
     <g id="line2d_14"/>
     <g id="text_7">
      <!-- 12h -->
      <g style="fill: #898781" transform="translate(337.426875 230.658594) scale(0.09 -0.09)">
       <use xlink:href="#DejaVuSans-14"/>
       <use xlink:href="#DejaVuSans-15" transform="translate(63.625 0)"/>
       <use xlink:href="#DejaVuSans-4b" transform="translate(127.25 0)"/>
      </g>
     </g>
    </g>
    <g id="xtick_8">
     <g id="line2d_15">
      <path d="M 395.145 220.32 
L 395.145 36.288 
" clip-path="url(#p629b674205)" style="fill: none; stroke: #e1e0d9; stroke-width: 0.8; stroke-linecap: square"/>
     </g>
     <g id="line2d_16"/>
     <g id="text_8">
      <!-- 14h -->
      <g style="fill: #898781" transform="translate(386.566875 230.658594) scale(0.09 -0.09)">
       <use xlink:href="#DejaVuSans-14"/>
       <use xlink:href="#DejaVuSans-17" transform="translate(63.625 0)"/>
       <use xlink:href="#DejaVuSans-4b" transform="translate(127.25 0)"/>
      </g>
     </g>
    </g>
    <g id="xtick_9">
     <g id="line2d_17">
      <path d="M 444.285 220.32 
L 444.285 36.288 
" clip-path="url(#p629b674205)" style="fill: none; stroke: #e1e0d9; stroke-width: 0.8; stroke-linecap: square"/>
     </g>
     <g id="line2d_18"/>
     <g id="text_9">
      <!-- 16h -->
      <g style="fill: #898781" transform="translate(435.706875 230.658594) scale(0.09 -0.09)">
       <use xlink:href="#DejaVuSans-14"/>
       <use xlink:href="#DejaVuSans-19" transform="translate(63.625 0)"/>
       <use xlink:href="#DejaVuSans-4b" transform="translate(127.25 0)"/>
      </g>
     </g>
    </g>
    <g id="xtick_10">
     <g id="line2d_19">
      <path d="M 493.425 220.32 
L 493.425 36.288 
" clip-path="url(#p629b674205)" style="fill: none; stroke: #e1e0d9; stroke-width: 0.8; stroke-linecap: square"/>
     </g>
     <g id="line2d_20"/>
     <g id="text_10">
      <!-- 18h -->
      <g style="fill: #898781" transform="translate(484.846875 230.658594) scale(0.09 -0.09)">
       <use xlink:href="#DejaVuSans-14"/>
       <use xlink:href="#DejaVuSans-1b" transform="translate(63.625 0)"/>
       <use xlink:href="#DejaVuSans-4b" transform="translate(127.25 0)"/>
      </g>
     </g>
    </g>
    <g id="xtick_11">
     <g id="line2d_21">
      <path d="M 542.565 220.32 
L 542.565 36.288 
" clip-path="url(#p629b674205)" style="fill: none; stroke: #e1e0d9; stroke-width: 0.8; stroke-linecap: square"/>
     </g>
     <g id="line2d_22"/>
     <g id="text_11">
      <!-- 20h -->
      <g style="fill: #898781" transform="translate(533.986875 230.658594) scale(0.09 -0.09)">
       <use xlink:href="#DejaVuSans-15"/>
       <use xlink:href="#DejaVuSans-13" transform="translate(63.625 0)"/>
       <use xlink:href="#DejaVuSans-4b" transform="translate(127.25 0)"/>
      </g>
     </g>
    </g>
    <g id="xtick_12">
     <g id="line2d_23">
      <path d="M 591.705 220.32 
L 591.705 36.288 
" clip-path="url(#p629b674205)" style="fill: none; stroke: #e1e0d9; stroke-width: 0.8; stroke-linecap: square"/>
     </g>
     <g id="line2d_24"/>
     <g id="text_12">
      <!-- 22h -->
      <g style="fill: #898781" transform="translate(583.126875 230.658594) scale(0.09 -0.09)">
       <use xlink:href="#DejaVuSans-15"/>
       <use xlink:href="#DejaVuSans-15" transform="translate(63.625 0)"/>
       <use xlink:href="#DejaVuSans-4b" transform="translate(127.25 0)"/>
      </g>
     </g>
    </g>
   </g>
   <g id="matplotlib.axis_2">
    <g id="ytick_1">
     <g id="line2d_25">
      <path d="M 38.88 220.32 
L 628.56 220.32 
" clip-path="url(#p629b674205)" style="fill: none; stroke: #e1e0d9; stroke-width: 0.8; stroke-linecap: square"/>
     </g>
     <g id="line2d_26"/>
     <g id="text_13">
      <!-- 0 -->
      <g style="fill: #898781" transform="translate(29.65375 223.738945) scale(0.09 -0.09)">
       <use xlink:href="#DejaVuSans-13"/>
      </g>
     </g>
    </g>
    <g id="ytick_2">
     <g id="line2d_27">
      <path d="M 38.88 198.610561 
L 628.56 198.610561 
" clip-path="url(#p629b674205)" style="fill: none; stroke: #e1e0d9; stroke-width: 0.8; stroke-linecap: square"/>
     </g>
     <g id="line2d_28"/>
     <g id="text_14">
      <!-- 500 -->
      <g style="fill: #898781" transform="translate(18.20125 202.029506) scale(0.09 -0.09)">
       <defs>
        <path id="DejaVuSans-18" d="M 691 4666 
L 3169 4666 
L 3169 4134 
L 1269 4134 
L 1269 2991 
Q 1406 3038 1543 3061 
Q 1681 3084 1819 3084 
Q 2600 3084 3056 2656 
Q 3513 2228 3513 1497 
Q 3513 744 3044 326 
Q 2575 -91 1722 -91 
Q 1428 -91 1123 -41 
Q 819 9 494 109 
L 494 744 
Q 775 591 1075 516 
Q 1375 441 1709 441 
Q 2250 441 2565 725 
Q 2881 1009 2881 1497 
Q 2881 1984 2565 2268 
Q 2250 2553 1709 2553 
Q 1456 2553 1204 2497 
Q 953 2441 691 2322 
L 691 4666 
z
" transform="scale(0.015625)"/>
       </defs>
       <use xlink:href="#DejaVuSans-18"/>
       <use xlink:href="#DejaVuSans-13" transform="translate(63.625 0)"/>
       <use xlink:href="#DejaVuSans-13" transform="translate(127.25 0)"/>
      </g>
     </g>
    </g>
    <g id="ytick_3">
     <g id="line2d_29">
      <path d="M 38.88 176.901122 
L 628.56 176.901122 
" clip-path="url(#p629b674205)" style="fill: none; stroke: #e1e0d9; stroke-width: 0.8; stroke-linecap: square"/>
     </g>
     <g id="line2d_30"/>
     <g id="text_15">
      <!-- 1000 -->
      <g style="fill: #898781" transform="translate(12.475 180.320067) scale(0.09 -0.09)">
       <use xlink:href="#DejaVuSans-14"/>
       <use xlink:href="#DejaVuSans-13" transform="translate(63.625 0)"/>
       <use xlink:href="#DejaVuSans-13" transform="translate(127.25 0)"/>
       <use xlink:href="#DejaVuSans-13" transform="translate(190.875 0)"/>
      </g>
     </g>
    </g>
    <g id="ytick_4">
     <g id="line2d_31">
      <path d="M 38.88 155.191683 
L 628.56 155.191683 
" clip-path="url(#p629b674205)" style="fill: none; stroke: #e1e0d9; stroke-width: 0.8; stroke-linecap: square"/>
     </g>
     <g id="line2d_32"/>
     <g id="text_16">
      <!-- 1500 -->
      <g style="fill: #898781" transform="translate(12.475 158.610628) scale(0.09 -0.09)">
       <use xlink:href="#DejaVuSans-14"/>
       <use xlink:href="#DejaVuSans-18" transform="translate(63.625 0)"/>
       <use xlink:href="#DejaVuSans-13" transform="translate(127.25 0)"/>
       <use xlink:href="#DejaVuSans-13" transform="translate(190.875 0)"/>
      </g>
     </g>
    </g>
    <g id="ytick_5">
     <g id="line2d_33">
      <path d="M 38.88 133.482244 
L 628.56 133.482244 
" clip-path="url(#p629b674205)" style="fill: none; stroke: #e1e0d9; stroke-width: 0.8; stroke-linecap: square"/>
     </g>
     <g id="line2d_34"/>
     <g id="text_17">
      <!-- 2000 -->
      <g style="fill: #898781" transform="translate(12.475 136.901189) scale(0.09 -0.09)">
       <use xlink:href="#DejaVuSans-15"/>
       <use xlink:href="#DejaVuSans-13" transform="translate(63.625 0)"/>
       <use xlink:href="#DejaVuSans-13" transform="translate(127.25 0)"/>
       <use xlink:href="#DejaVuSans-13" transform="translate(190.875 0)"/>
      </g>
     </g>
    </g>
    <g id="ytick_6">
     <g id="line2d_35">
      <path d="M 38.88 111.772805 
L 628.56 111.772805 
" clip-path="url(#p629b674205)" style="fill: none; stroke: #e1e0d9; stroke-width: 0.8; stroke-linecap: square"/>
     </g>
     <g id="line2d_36"/>
     <g id="text_18">
      <!-- 2500 -->
      <g style="fill: #898781" transform="translate(12.475 115.19175) scale(0.09 -0.09)">
       <use xlink:href="#DejaVuSans-15"/>
       <use xlink:href="#DejaVuSans-18" transform="translate(63.625 0)"/>
       <use xlink:href="#DejaVuSans-13" transform="translate(127.25 0)"/>
       <use xlink:href="#DejaVuSans-13" transform="translate(190.875 0)"/>
      </g>
     </g>
    </g>
    <g id="ytick_7">
     <g id="line2d_37">
      <path d="M 38.88 90.063366 
L 628.56 90.063366 
" clip-path="url(#p629b674205)" style="fill: none; stroke: #e1e0d9; stroke-width: 0.8; stroke-linecap: square"/>
     </g>
     <g id="line2d_38"/>
     <g id="text_19">
      <!-- 3000 -->
      <g style="fill: #898781" transform="translate(12.475 93.482311) scale(0.09 -0.09)">
       <defs>
        <path id="DejaVuSans-16" d="M 2597 2516 
Q 3050 2419 3304 2112 
Q 3559 1806 3559 1356 
Q 3559 666 3084 287 
Q 2609 -91 1734 -91 
Q 1441 -91 1130 -33 
Q 819 25 488 141 
L 488 750 
Q 750 597 1062 519 
Q 1375 441 1716 441 
Q 2309 441 2620 675 
Q 2931 909 2931 1356 
Q 2931 1769 2642 2001 
Q 2353 2234 1838 2234 
L 1294 2234 
L 1294 2753 
L 1863 2753 
Q 2328 2753 2575 2939 
Q 2822 3125 2822 3475 
Q 2822 3834 2567 4026 
Q 2313 4219 1838 4219 
Q 1578 4219 1281 4162 
Q 984 4106 628 3988 
L 628 4550 
Q 988 4650 1302 4700 
Q 1616 4750 1894 4750 
Q 2613 4750 3031 4423 
Q 3450 4097 3450 3541 
Q 3450 3153 3228 2886 
Q 3006 2619 2597 2516 
z
" transform="scale(0.015625)"/>
       </defs>
       <use xlink:href="#DejaVuSans-16"/>
       <use xlink:href="#DejaVuSans-13" transform="translate(63.625 0)"/>
       <use xlink:href="#DejaVuSans-13" transform="translate(127.25 0)"/>
       <use xlink:href="#DejaVuSans-13" transform="translate(190.875 0)"/>
      </g>
     </g>
    </g>
    <g id="ytick_8">
     <g id="line2d_39">
      <path d="M 38.88 68.353927 
L 628.56 68.353927 
" clip-path="url(#p629b674205)" style="fill: none; stroke: #e1e0d9; stroke-width: 0.8; stroke-linecap: square"/>
     </g>
     <g id="line2d_40"/>
     <g id="text_20">
      <!-- 3500 -->
      <g style="fill: #898781" transform="translate(12.475 71.772872) scale(0.09 -0.09)">
       <use xlink:href="#DejaVuSans-16"/>
       <use xlink:href="#DejaVuSans-18" transform="translate(63.625 0)"/>
       <use xlink:href="#DejaVuSans-13" transform="translate(127.25 0)"/>
       <use xlink:href="#DejaVuSans-13" transform="translate(190.875 0)"/>
      </g>
     </g>
    </g>
    <g id="ytick_9">
     <g id="line2d_41">
      <path d="M 38.88 46.644488 
L 628.56 46.644488 
" clip-path="url(#p629b674205)" style="fill: none; stroke: #e1e0d9; stroke-width: 0.8; stroke-linecap: square"/>
     </g>
     <g id="line2d_42"/>
     <g id="text_21">
      <!-- 4000 -->
      <g style="fill: #898781" transform="translate(12.475 50.063433) scale(0.09 -0.09)">
       <use xlink:href="#DejaVuSans-17"/>
       <use xlink:href="#DejaVuSans-13" transform="translate(63.625 0)"/>
       <use xlink:href="#DejaVuSans-13" transform="translate(127.25 0)"/>
       <use xlink:href="#DejaVuSans-13" transform="translate(190.875 0)"/>
      </g>
     </g>
    </g>
   </g>
   <g id="line2d_43">
    <path d="M 51.165 145.465854 
L 75.735 137.064301 
L 124.875 130.92053 
L 198.585 131.832327 
L 272.295 142.578499 
L 296.865 138.359631 
L 321.435 138.78555 
L 370.575 140.371373 
L 395.145 140.573994 
L 419.715 138.171483 
L 444.285 141.862087 
L 468.855 153.339144 
L 517.995 154.844332 
L 542.565 149.047912 
L 567.135 150.936633 
L 591.705 144.369528 
L 616.275 145.118503 
" clip-path="url(#p629b674205)" style="fill: none; stroke: #007f1c; stroke-width: 2; stroke-linecap: square"/>
    <defs>
     <path id="mfb0499aa43" d="M 0 2 
C 0.530406 2 1.03916 1.789267 1.414214 1.414214 
C 1.789267 1.03916 2 0.530406 2 0 
C 2 -0.530406 1.789267 -1.03916 1.414214 -1.414214 
C 1.03916 -1.789267 0.530406 -2 0 -2 
C -0.530406 -2 -1.03916 -1.789267 -1.414214 -1.414214 
C -1.789267 -1.03916 -2 -0.530406 -2 0 
C -2 0.530406 -1.789267 1.03916 -1.414214 1.414214 
C -1.03916 1.789267 -0.530406 2 0 2 
z
" style="stroke: #007f1c"/>
    </defs>
    <g clip-path="url(#p629b674205)">
     <use xlink:href="#mfb0499aa43" x="51.165" y="145.465854" style="fill: #007f1c; stroke: #007f1c"/>
     <use xlink:href="#mfb0499aa43" x="75.735" y="137.064301" style="fill: #007f1c; stroke: #007f1c"/>
     <use xlink:href="#mfb0499aa43" x="124.875" y="130.92053" style="fill: #007f1c; stroke: #007f1c"/>
     <use xlink:href="#mfb0499aa43" x="198.585" y="131.832327" style="fill: #007f1c; stroke: #007f1c"/>
     <use xlink:href="#mfb0499aa43" x="272.295" y="142.578499" style="fill: #007f1c; stroke: #007f1c"/>
     <use xlink:href="#mfb0499aa43" x="296.865" y="138.359631" style="fill: #007f1c; stroke: #007f1c"/>
     <use xlink:href="#mfb0499aa43" x="321.435" y="138.78555" style="fill: #007f1c; stroke: #007f1c"/>
     <use xlink:href="#mfb0499aa43" x="370.575" y="140.371373" style="fill: #007f1c; stroke: #007f1c"/>
     <use xlink:href="#mfb0499aa43" x="395.145" y="140.573994" style="fill: #007f1c; stroke: #007f1c"/>
     <use xlink:href="#mfb0499aa43" x="419.715" y="138.171483" style="fill: #007f1c; stroke: #007f1c"/>
     <use xlink:href="#mfb0499aa43" x="444.285" y="141.862087" style="fill: #007f1c; stroke: #007f1c"/>
     <use xlink:href="#mfb0499aa43" x="468.855" y="153.339144" style="fill: #007f1c; stroke: #007f1c"/>
     <use xlink:href="#mfb0499aa43" x="517.995" y="154.844332" style="fill: #007f1c; stroke: #007f1c"/>
     <use xlink:href="#mfb0499aa43" x="542.565" y="149.047912" style="fill: #007f1c; stroke: #007f1c"/>
     <use xlink:href="#mfb0499aa43" x="567.135" y="150.936633" style="fill: #007f1c; stroke: #007f1c"/>
     <use xlink:href="#mfb0499aa43" x="591.705" y="144.369528" style="fill: #007f1c; stroke: #007f1c"/>
     <use xlink:href="#mfb0499aa43" x="616.275" y="145.118503" style="fill: #007f1c; stroke: #007f1c"/>
    </g>
   </g>
   <g id="line2d_44">
    <path d="M 51.165 138.497124 
L 75.735 135.110452 
L 124.875 133.460535 
L 198.585 132.939508 
L 272.295 137.867551 
L 296.865 134.900594 
L 321.435 135.72762 
L 370.575 135.754499 
L 395.145 134.336149 
L 419.715 135.505564 
L 444.285 135.436093 
L 468.855 138.866185 
L 517.995 139.248271 
L 542.565 136.73866 
L 567.135 138.055699 
L 591.705 136.022248 
L 616.275 137.722821 
" clip-path="url(#p629b674205)" style="fill: none; stroke: #eb6834; stroke-width: 2; stroke-linecap: square"/>
    <defs>
     <path id="m59b5113946" d="M 0 2 
C 0.530406 2 1.03916 1.789267 1.414214 1.414214 
C 1.789267 1.03916 2 0.530406 2 0 
C 2 -0.530406 1.789267 -1.03916 1.414214 -1.414214 
C 1.03916 -1.789267 0.530406 -2 0 -2 
C -0.530406 -2 -1.03916 -1.789267 -1.414214 -1.414214 
C -1.789267 -1.03916 -2 -0.530406 -2 0 
C -2 0.530406 -1.789267 1.03916 -1.414214 1.414214 
C -1.03916 1.789267 -0.530406 2 0 2 
z
" style="stroke: #eb6834"/>
    </defs>
    <g clip-path="url(#p629b674205)">
     <use xlink:href="#m59b5113946" x="51.165" y="138.497124" style="fill: #eb6834; stroke: #eb6834"/>
     <use xlink:href="#m59b5113946" x="75.735" y="135.110452" style="fill: #eb6834; stroke: #eb6834"/>
     <use xlink:href="#m59b5113946" x="124.875" y="133.460535" style="fill: #eb6834; stroke: #eb6834"/>
     <use xlink:href="#m59b5113946" x="198.585" y="132.939508" style="fill: #eb6834; stroke: #eb6834"/>
     <use xlink:href="#m59b5113946" x="272.295" y="137.867551" style="fill: #eb6834; stroke: #eb6834"/>
     <use xlink:href="#m59b5113946" x="296.865" y="134.900594" style="fill: #eb6834; stroke: #eb6834"/>
     <use xlink:href="#m59b5113946" x="321.435" y="135.72762" style="fill: #eb6834; stroke: #eb6834"/>
     <use xlink:href="#m59b5113946" x="370.575" y="135.754499" style="fill: #eb6834; stroke: #eb6834"/>
     <use xlink:href="#m59b5113946" x="395.145" y="134.336149" style="fill: #eb6834; stroke: #eb6834"/>
     <use xlink:href="#m59b5113946" x="419.715" y="135.505564" style="fill: #eb6834; stroke: #eb6834"/>
     <use xlink:href="#m59b5113946" x="444.285" y="135.436093" style="fill: #eb6834; stroke: #eb6834"/>
     <use xlink:href="#m59b5113946" x="468.855" y="138.866185" style="fill: #eb6834; stroke: #eb6834"/>
     <use xlink:href="#m59b5113946" x="517.995" y="139.248271" style="fill: #eb6834; stroke: #eb6834"/>
     <use xlink:href="#m59b5113946" x="542.565" y="136.73866" style="fill: #eb6834; stroke: #eb6834"/>
     <use xlink:href="#m59b5113946" x="567.135" y="138.055699" style="fill: #eb6834; stroke: #eb6834"/>
     <use xlink:href="#m59b5113946" x="591.705" y="136.022248" style="fill: #eb6834; stroke: #eb6834"/>
     <use xlink:href="#m59b5113946" x="616.275" y="137.722821" style="fill: #eb6834; stroke: #eb6834"/>
    </g>
   </g>
   <g id="patch_3">
    <path d="M 38.88 220.32 
L 628.56 220.32 
" style="fill: none; stroke: #e1e0d9; stroke-width: 0.8; stroke-linejoin: miter; stroke-linecap: square"/>
   </g>
   <g id="text_22">
    <!-- Lowest total: 3391 at 19h -->
    <g style="fill: #d03b3b" transform="translate(452.781562 89.077901) scale(0.09 -0.09)">
     <defs>
      <path id="DejaVuSans-Bold-2f" d="M 588 4666 
L 1791 4666 
L 1791 909 
L 3903 909 
L 3903 0 
L 588 0 
L 588 4666 
z
" transform="scale(0.015625)"/>
      <path id="DejaVuSans-Bold-52" d="M 2203 2784 
Q 1831 2784 1636 2517 
Q 1441 2250 1441 1747 
Q 1441 1244 1636 976 
Q 1831 709 2203 709 
Q 2569 709 2762 976 
Q 2956 1244 2956 1747 
Q 2956 2250 2762 2517 
Q 2569 2784 2203 2784 
z
M 2203 3584 
Q 3106 3584 3614 3096 
Q 4122 2609 4122 1747 
Q 4122 884 3614 396 
Q 3106 -91 2203 -91 
Q 1297 -91 786 396 
Q 275 884 275 1747 
Q 275 2609 786 3096 
Q 1297 3584 2203 3584 
z
" transform="scale(0.015625)"/>
      <path id="DejaVuSans-Bold-5a" d="M 225 3500 
L 1313 3500 
L 1900 1088 
L 2491 3500 
L 3425 3500 
L 4013 1113 
L 4603 3500 
L 5691 3500 
L 4769 0 
L 3547 0 
L 2956 2406 
L 2369 0 
L 1147 0 
L 225 3500 
z
" transform="scale(0.015625)"/>
      <path id="DejaVuSans-Bold-48" d="M 4031 1759 
L 4031 1441 
L 1416 1441 
Q 1456 1047 1700 850 
Q 1944 653 2381 653 
Q 2734 653 3104 758 
Q 3475 863 3866 1075 
L 3866 213 
Q 3469 63 3072 -14 
Q 2675 -91 2278 -91 
Q 1328 -91 801 392 
Q 275 875 275 1747 
Q 275 2603 792 3093 
Q 1309 3584 2216 3584 
Q 3041 3584 3536 3087 
Q 4031 2591 4031 1759 
z
M 2881 2131 
Q 2881 2450 2695 2645 
Q 2509 2841 2209 2841 
Q 1884 2841 1681 2658 
Q 1478 2475 1428 2131 
L 2881 2131 
z
" transform="scale(0.015625)"/>
      <path id="DejaVuSans-Bold-56" d="M 3272 3391 
L 3272 2541 
Q 2913 2691 2578 2766 
Q 2244 2841 1947 2841 
Q 1628 2841 1473 2761 
Q 1319 2681 1319 2516 
Q 1319 2381 1436 2309 
Q 1553 2238 1856 2203 
L 2053 2175 
Q 2913 2066 3209 1816 
Q 3506 1566 3506 1031 
Q 3506 472 3093 190 
Q 2681 -91 1863 -91 
Q 1516 -91 1145 -36 
Q 775 19 384 128 
L 384 978 
Q 719 816 1070 734 
Q 1422 653 1784 653 
Q 2113 653 2278 743 
Q 2444 834 2444 1013 
Q 2444 1163 2330 1236 
Q 2216 1309 1875 1350 
L 1678 1375 
Q 931 1469 631 1722 
Q 331 1975 331 2491 
Q 331 3047 712 3315 
Q 1094 3584 1881 3584 
Q 2191 3584 2531 3537 
Q 2872 3491 3272 3391 
z
" transform="scale(0.015625)"/>
      <path id="DejaVuSans-Bold-57" d="M 1759 4494 
L 1759 3500 
L 2913 3500 
L 2913 2700 
L 1759 2700 
L 1759 1216 
Q 1759 972 1856 886 
Q 1953 800 2241 800 
L 2816 800 
L 2816 0 
L 1856 0 
Q 1194 0 917 276 
Q 641 553 641 1216 
L 641 2700 
L 84 2700 
L 84 3500 
L 641 3500 
L 641 4494 
L 1759 4494 
z
" transform="scale(0.015625)"/>
      <path id="DejaVuSans-Bold-3" transform="scale(0.015625)"/>
      <path id="DejaVuSans-Bold-44" d="M 2106 1575 
Q 1756 1575 1579 1456 
Q 1403 1338 1403 1106 
Q 1403 894 1545 773 
Q 1688 653 1941 653 
Q 2256 653 2472 879 
Q 2688 1106 2688 1447 
L 2688 1575 
L 2106 1575 
z
M 3816 1997 
L 3816 0 
L 2688 0 
L 2688 519 
Q 2463 200 2181 54 
Q 1900 -91 1497 -91 
Q 953 -91 614 226 
Q 275 544 275 1050 
Q 275 1666 698 1953 
Q 1122 2241 2028 2241 
L 2688 2241 
L 2688 2328 
Q 2688 2594 2478 2717 
Q 2269 2841 1825 2841 
Q 1466 2841 1156 2769 
Q 847 2697 581 2553 
L 581 3406 
Q 941 3494 1303 3539 
Q 1666 3584 2028 3584 
Q 2975 3584 3395 3211 
Q 3816 2838 3816 1997 
z
" transform="scale(0.015625)"/>
      <path id="DejaVuSans-Bold-4f" d="M 538 4863 
L 1656 4863 
L 1656 0 
L 538 0 
L 538 4863 
z
" transform="scale(0.015625)"/>
      <path id="DejaVuSans-Bold-1d" d="M 716 3500 
L 1844 3500 
L 1844 2291 
L 716 2291 
L 716 3500 
z
M 716 1209 
L 1844 1209 
L 1844 0 
L 716 0 
L 716 1209 
z
" transform="scale(0.015625)"/>
      <path id="DejaVuSans-Bold-16" d="M 2981 2516 
Q 3453 2394 3698 2092 
Q 3944 1791 3944 1325 
Q 3944 631 3412 270 
Q 2881 -91 1863 -91 
Q 1503 -91 1142 -33 
Q 781 25 428 141 
L 428 1069 
Q 766 900 1098 814 
Q 1431 728 1753 728 
Q 2231 728 2486 893 
Q 2741 1059 2741 1369 
Q 2741 1688 2480 1852 
Q 2219 2016 1709 2016 
L 1228 2016 
L 1228 2791 
L 1734 2791 
Q 2188 2791 2409 2933 
Q 2631 3075 2631 3366 
Q 2631 3634 2415 3781 
Q 2200 3928 1806 3928 
Q 1516 3928 1219 3862 
Q 922 3797 628 3669 
L 628 4550 
Q 984 4650 1334 4700 
Q 1684 4750 2022 4750 
Q 2931 4750 3382 4451 
Q 3834 4153 3834 3553 
Q 3834 3144 3618 2883 
Q 3403 2622 2981 2516 
z
" transform="scale(0.015625)"/>
      <path id="DejaVuSans-Bold-1c" d="M 641 103 
L 641 966 
Q 928 831 1190 764 
Q 1453 697 1709 697 
Q 2247 697 2547 995 
Q 2847 1294 2900 1881 
Q 2688 1725 2447 1647 
Q 2206 1569 1925 1569 
Q 1209 1569 770 1986 
Q 331 2403 331 3084 
Q 331 3838 820 4291 
Q 1309 4744 2131 4744 
Q 3044 4744 3544 4128 
Q 4044 3513 4044 2388 
Q 4044 1231 3459 570 
Q 2875 -91 1856 -91 
Q 1528 -91 1228 -42 
Q 928 6 641 103 
z
M 2125 2350 
Q 2441 2350 2600 2554 
Q 2759 2759 2759 3169 
Q 2759 3575 2600 3781 
Q 2441 3988 2125 3988 
Q 1809 3988 1650 3781 
Q 1491 3575 1491 3169 
Q 1491 2759 1650 2554 
Q 1809 2350 2125 2350 
z
" transform="scale(0.015625)"/>
      <path id="DejaVuSans-Bold-14" d="M 750 831 
L 1813 831 
L 1813 3847 
L 722 3622 
L 722 4441 
L 1806 4666 
L 2950 4666 
L 2950 831 
L 4013 831 
L 4013 0 
L 750 0 
L 750 831 
z
" transform="scale(0.015625)"/>
      <path id="DejaVuSans-Bold-4b" d="M 4056 2131 
L 4056 0 
L 2931 0 
L 2931 347 
L 2931 1625 
Q 2931 2084 2911 2256 
Q 2891 2428 2841 2509 
Q 2775 2619 2662 2680 
Q 2550 2741 2406 2741 
Q 2056 2741 1856 2470 
Q 1656 2200 1656 1722 
L 1656 0 
L 538 0 
L 538 4863 
L 1656 4863 
L 1656 2988 
Q 1909 3294 2193 3439 
Q 2478 3584 2822 3584 
Q 3428 3584 3742 3212 
Q 4056 2841 4056 2131 
z
" transform="scale(0.015625)"/>
     </defs>
     <use xlink:href="#DejaVuSans-Bold-2f"/>
     <use xlink:href="#DejaVuSans-Bold-52" transform="translate(63.71875 0)"/>
     <use xlink:href="#DejaVuSans-Bold-5a" transform="translate(132.421875 0)"/>
     <use xlink:href="#DejaVuSans-Bold-48" transform="translate(224.8125 0)"/>
     <use xlink:href="#DejaVuSans-Bold-56" transform="translate(292.640625 0)"/>
     <use xlink:href="#DejaVuSans-Bold-57" transform="translate(352.15625 0)"/>
     <use xlink:href="#DejaVuSans-Bold-3" transform="translate(399.953125 0)"/>
     <use xlink:href="#DejaVuSans-Bold-57" transform="translate(434.765625 0)"/>
     <use xlink:href="#DejaVuSans-Bold-52" transform="translate(482.5625 0)"/>
     <use xlink:href="#DejaVuSans-Bold-57" transform="translate(551.265625 0)"/>
     <use xlink:href="#DejaVuSans-Bold-44" transform="translate(599.0625 0)"/>
     <use xlink:href="#DejaVuSans-Bold-4f" transform="translate(666.546875 0)"/>
     <use xlink:href="#DejaVuSans-Bold-1d" transform="translate(700.828125 0)"/>
     <use xlink:href="#DejaVuSans-Bold-3" transform="translate(740.8125 0)"/>
     <use xlink:href="#DejaVuSans-Bold-16" transform="translate(775.625 0)"/>
     <use xlink:href="#DejaVuSans-Bold-16" transform="translate(845.203125 0)"/>
     <use xlink:href="#DejaVuSans-Bold-1c" transform="translate(914.78125 0)"/>
     <use xlink:href="#DejaVuSans-Bold-14" transform="translate(984.359375 0)"/>
     <use xlink:href="#DejaVuSans-Bold-3" transform="translate(1053.9375 0)"/>
     <use xlink:href="#DejaVuSans-Bold-44" transform="translate(1088.75 0)"/>
     <use xlink:href="#DejaVuSans-Bold-57" transform="translate(1156.234375 0)"/>
     <use xlink:href="#DejaVuSans-Bold-3" transform="translate(1204.03125 0)"/>
     <use xlink:href="#DejaVuSans-Bold-14" transform="translate(1238.84375 0)"/>
     <use xlink:href="#DejaVuSans-Bold-1c" transform="translate(1308.421875 0)"/>
     <use xlink:href="#DejaVuSans-Bold-4b" transform="translate(1378 0)"/>
    </g>
   </g>
   <g id="text_23">
    <!-- Average bikes available across Lyon, by hour of day -->
    <g style="fill: #c2c2c2" transform="translate(38.88 24.288) scale(0.13 -0.13)">
     <defs>
      <path id="DejaVuSans-Bold-24" d="M 3419 850 
L 1538 850 
L 1241 0 
L 31 0 
L 1759 4666 
L 3194 4666 
L 4922 0 
L 3713 0 
L 3419 850 
z
M 1838 1716 
L 3116 1716 
L 2478 3572 
L 1838 1716 
z
" transform="scale(0.015625)"/>
      <path id="DejaVuSans-Bold-59" d="M 97 3500 
L 1216 3500 
L 2088 1081 
L 2956 3500 
L 4078 3500 
L 2700 0 
L 1472 0 
L 97 3500 
z
" transform="scale(0.015625)"/>
      <path id="DejaVuSans-Bold-55" d="M 3138 2547 
Q 2991 2616 2845 2648 
Q 2700 2681 2553 2681 
Q 2122 2681 1889 2404 
Q 1656 2128 1656 1613 
L 1656 0 
L 538 0 
L 538 3500 
L 1656 3500 
L 1656 2925 
Q 1872 3269 2151 3426 
Q 2431 3584 2822 3584 
Q 2878 3584 2943 3579 
Q 3009 3575 3134 3559 
L 3138 2547 
z
" transform="scale(0.015625)"/>
      <path id="DejaVuSans-Bold-4a" d="M 2919 594 
Q 2688 288 2409 144 
Q 2131 0 1766 0 
Q 1125 0 706 504 
Q 288 1009 288 1791 
Q 288 2575 706 3076 
Q 1125 3578 1766 3578 
Q 2131 3578 2409 3434 
Q 2688 3291 2919 2981 
L 2919 3500 
L 4044 3500 
L 4044 353 
Q 4044 -491 3511 -936 
Q 2978 -1381 1966 -1381 
Q 1638 -1381 1331 -1331 
Q 1025 -1281 716 -1178 
L 716 -306 
Q 1009 -475 1290 -558 
Q 1572 -641 1856 -641 
Q 2406 -641 2662 -400 
Q 2919 -159 2919 353 
L 2919 594 
z
M 2181 2772 
Q 1834 2772 1640 2515 
Q 1447 2259 1447 1791 
Q 1447 1309 1634 1061 
Q 1822 813 2181 813 
Q 2531 813 2725 1069 
Q 2919 1325 2919 1791 
Q 2919 2259 2725 2515 
Q 2531 2772 2181 2772 
z
" transform="scale(0.015625)"/>
      <path id="DejaVuSans-Bold-45" d="M 2400 722 
Q 2759 722 2948 984 
Q 3138 1247 3138 1747 
Q 3138 2247 2948 2509 
Q 2759 2772 2400 2772 
Q 2041 2772 1848 2508 
Q 1656 2244 1656 1747 
Q 1656 1250 1848 986 
Q 2041 722 2400 722 
z
M 1656 2988 
Q 1888 3294 2169 3439 
Q 2450 3584 2816 3584 
Q 3463 3584 3878 3070 
Q 4294 2556 4294 1747 
Q 4294 938 3878 423 
Q 3463 -91 2816 -91 
Q 2450 -91 2169 54 
Q 1888 200 1656 506 
L 1656 0 
L 538 0 
L 538 4863 
L 1656 4863 
L 1656 2988 
z
" transform="scale(0.015625)"/>
      <path id="DejaVuSans-Bold-4c" d="M 538 3500 
L 1656 3500 
L 1656 0 
L 538 0 
L 538 3500 
z
M 538 4863 
L 1656 4863 
L 1656 3950 
L 538 3950 
L 538 4863 
z
" transform="scale(0.015625)"/>
      <path id="DejaVuSans-Bold-4e" d="M 538 4863 
L 1656 4863 
L 1656 2216 
L 2944 3500 
L 4244 3500 
L 2534 1894 
L 4378 0 
L 3022 0 
L 1656 1459 
L 1656 0 
L 538 0 
L 538 4863 
z
" transform="scale(0.015625)"/>
      <path id="DejaVuSans-Bold-46" d="M 3366 3391 
L 3366 2478 
Q 3138 2634 2908 2709 
Q 2678 2784 2431 2784 
Q 1963 2784 1702 2511 
Q 1441 2238 1441 1747 
Q 1441 1256 1702 982 
Q 1963 709 2431 709 
Q 2694 709 2930 787 
Q 3166 866 3366 1019 
L 3366 103 
Q 3103 6 2833 -42 
Q 2563 -91 2291 -91 
Q 1344 -91 809 395 
Q 275 881 275 1747 
Q 275 2613 809 3098 
Q 1344 3584 2291 3584 
Q 2566 3584 2833 3536 
Q 3100 3488 3366 3391 
z
" transform="scale(0.015625)"/>
      <path id="DejaVuSans-Bold-5c" d="M 78 3500 
L 1197 3500 
L 2138 1125 
L 2938 3500 
L 4056 3500 
L 2584 -331 
Q 2363 -916 2067 -1148 
Q 1772 -1381 1288 -1381 
L 641 -1381 
L 641 -647 
L 991 -647 
Q 1275 -647 1404 -556 
Q 1534 -466 1606 -231 
L 1638 -134 
L 78 3500 
z
" transform="scale(0.015625)"/>
      <path id="DejaVuSans-Bold-51" d="M 4056 2131 
L 4056 0 
L 2931 0 
L 2931 347 
L 2931 1631 
Q 2931 2084 2911 2256 
Q 2891 2428 2841 2509 
Q 2775 2619 2662 2680 
Q 2550 2741 2406 2741 
Q 2056 2741 1856 2470 
Q 1656 2200 1656 1722 
L 1656 0 
L 538 0 
L 538 3500 
L 1656 3500 
L 1656 2988 
Q 1909 3294 2193 3439 
Q 2478 3584 2822 3584 
Q 3428 3584 3742 3212 
Q 4056 2841 4056 2131 
z
" transform="scale(0.015625)"/>
      <path id="DejaVuSans-Bold-f" d="M 653 1209 
L 1778 1209 
L 1778 256 
L 1006 -909 
L 341 -909 
L 653 256 
L 653 1209 
z
" transform="scale(0.015625)"/>
      <path id="DejaVuSans-Bold-58" d="M 500 1363 
L 500 3500 
L 1625 3500 
L 1625 3150 
Q 1625 2866 1622 2436 
Q 1619 2006 1619 1863 
Q 1619 1441 1641 1255 
Q 1663 1069 1716 984 
Q 1784 875 1895 815 
Q 2006 756 2150 756 
Q 2500 756 2700 1025 
Q 2900 1294 2900 1772 
L 2900 3500 
L 4019 3500 
L 4019 0 
L 2900 0 
L 2900 506 
Q 2647 200 2364 54 
Q 2081 -91 1741 -91 
Q 1134 -91 817 281 
Q 500 653 500 1363 
z
" transform="scale(0.015625)"/>
      <path id="DejaVuSans-Bold-49" d="M 2841 4863 
L 2841 4128 
L 2222 4128 
Q 1984 4128 1890 4042 
Q 1797 3956 1797 3744 
L 1797 3500 
L 2753 3500 
L 2753 2700 
L 1797 2700 
L 1797 0 
L 678 0 
L 678 2700 
L 122 2700 
L 122 3500 
L 678 3500 
L 678 3744 
Q 678 4316 997 4589 
Q 1316 4863 1984 4863 
L 2841 4863 
z
" transform="scale(0.015625)"/>
      <path id="DejaVuSans-Bold-47" d="M 2919 2988 
L 2919 4863 
L 4044 4863 
L 4044 0 
L 2919 0 
L 2919 506 
Q 2688 197 2409 53 
Q 2131 -91 1766 -91 
Q 1119 -91 703 423 
Q 288 938 288 1747 
Q 288 2556 703 3070 
Q 1119 3584 1766 3584 
Q 2128 3584 2408 3439 
Q 2688 3294 2919 2988 
z
M 2181 722 
Q 2541 722 2730 984 
Q 2919 1247 2919 1747 
Q 2919 2247 2730 2509 
Q 2541 2772 2181 2772 
Q 1825 2772 1636 2509 
Q 1447 2247 1447 1747 
Q 1447 1247 1636 984 
Q 1825 722 2181 722 
z
" transform="scale(0.015625)"/>
     </defs>
     <use xlink:href="#DejaVuSans-Bold-24"/>
     <use xlink:href="#DejaVuSans-Bold-59" transform="translate(73.828125 0)"/>
     <use xlink:href="#DejaVuSans-Bold-48" transform="translate(139.015625 0)"/>
     <use xlink:href="#DejaVuSans-Bold-55" transform="translate(206.84375 0)"/>
     <use xlink:href="#DejaVuSans-Bold-44" transform="translate(256.15625 0)"/>
     <use xlink:href="#DejaVuSans-Bold-4a" transform="translate(323.640625 0)"/>
     <use xlink:href="#DejaVuSans-Bold-48" transform="translate(395.21875 0)"/>
     <use xlink:href="#DejaVuSans-Bold-3" transform="translate(463.046875 0)"/>
     <use xlink:href="#DejaVuSans-Bold-45" transform="translate(497.859375 0)"/>
     <use xlink:href="#DejaVuSans-Bold-4c" transform="translate(569.4375 0)"/>
     <use xlink:href="#DejaVuSans-Bold-4e" transform="translate(603.71875 0)"/>
     <use xlink:href="#DejaVuSans-Bold-48" transform="translate(667.53125 0)"/>
     <use xlink:href="#DejaVuSans-Bold-56" transform="translate(735.359375 0)"/>
     <use xlink:href="#DejaVuSans-Bold-3" transform="translate(794.875 0)"/>
     <use xlink:href="#DejaVuSans-Bold-44" transform="translate(829.6875 0)"/>
     <use xlink:href="#DejaVuSans-Bold-59" transform="translate(897.171875 0)"/>
     <use xlink:href="#DejaVuSans-Bold-44" transform="translate(962.359375 0)"/>
     <use xlink:href="#DejaVuSans-Bold-4c" transform="translate(1029.84375 0)"/>
     <use xlink:href="#DejaVuSans-Bold-4f" transform="translate(1064.125 0)"/>
     <use xlink:href="#DejaVuSans-Bold-44" transform="translate(1098.40625 0)"/>
     <use xlink:href="#DejaVuSans-Bold-45" transform="translate(1165.890625 0)"/>
     <use xlink:href="#DejaVuSans-Bold-4f" transform="translate(1237.46875 0)"/>
     <use xlink:href="#DejaVuSans-Bold-48" transform="translate(1271.75 0)"/>
     <use xlink:href="#DejaVuSans-Bold-3" transform="translate(1339.578125 0)"/>
     <use xlink:href="#DejaVuSans-Bold-44" transform="translate(1374.390625 0)"/>
     <use xlink:href="#DejaVuSans-Bold-46" transform="translate(1441.875 0)"/>
     <use xlink:href="#DejaVuSans-Bold-55" transform="translate(1501.15625 0)"/>
     <use xlink:href="#DejaVuSans-Bold-52" transform="translate(1550.46875 0)"/>
     <use xlink:href="#DejaVuSans-Bold-56" transform="translate(1619.171875 0)"/>
     <use xlink:href="#DejaVuSans-Bold-56" transform="translate(1678.6875 0)"/>
     <use xlink:href="#DejaVuSans-Bold-3" transform="translate(1738.203125 0)"/>
     <use xlink:href="#DejaVuSans-Bold-2f" transform="translate(1773.015625 0)"/>
     <use xlink:href="#DejaVuSans-Bold-5c" transform="translate(1829.953125 0)"/>
     <use xlink:href="#DejaVuSans-Bold-52" transform="translate(1895.140625 0)"/>
     <use xlink:href="#DejaVuSans-Bold-51" transform="translate(1963.84375 0)"/>
     <use xlink:href="#DejaVuSans-Bold-f" transform="translate(2035.03125 0)"/>
     <use xlink:href="#DejaVuSans-Bold-3" transform="translate(2073.015625 0)"/>
     <use xlink:href="#DejaVuSans-Bold-45" transform="translate(2107.828125 0)"/>
     <use xlink:href="#DejaVuSans-Bold-5c" transform="translate(2179.40625 0)"/>
     <use xlink:href="#DejaVuSans-Bold-3" transform="translate(2244.59375 0)"/>
     <use xlink:href="#DejaVuSans-Bold-4b" transform="translate(2279.40625 0)"/>
     <use xlink:href="#DejaVuSans-Bold-52" transform="translate(2350.59375 0)"/>
     <use xlink:href="#DejaVuSans-Bold-58" transform="translate(2419.296875 0)"/>
     <use xlink:href="#DejaVuSans-Bold-55" transform="translate(2490.484375 0)"/>
     <use xlink:href="#DejaVuSans-Bold-3" transform="translate(2539.796875 0)"/>
     <use xlink:href="#DejaVuSans-Bold-52" transform="translate(2574.609375 0)"/>
     <use xlink:href="#DejaVuSans-Bold-49" transform="translate(2643.3125 0)"/>
     <use xlink:href="#DejaVuSans-Bold-3" transform="translate(2686.8125 0)"/>
     <use xlink:href="#DejaVuSans-Bold-47" transform="translate(2721.625 0)"/>
     <use xlink:href="#DejaVuSans-Bold-44" transform="translate(2793.203125 0)"/>
     <use xlink:href="#DejaVuSans-Bold-5c" transform="translate(2857.609375 0)"/>
    </g>
   </g>
   <g id="line2d_45">
    <path d="M 51.165 63.035114 
L 75.735 49.097654 
L 124.875 41.93354 
L 198.585 42.563113 
L 272.295 58.432713 
L 296.865 52.37578 
L 321.435 53.393022 
L 370.575 54.96644 
L 395.145 54.011224 
L 419.715 52.592874 
L 444.285 56.413735 
L 468.855 71.118262 
L 517.995 73.077901 
L 542.565 64.880417 
L 567.135 67.97763 
L 591.705 59.398783 
L 616.275 61.76873 
" clip-path="url(#p629b674205)" style="fill: none; stroke: #2a78d6; stroke-width: 2.4; stroke-linecap: square"/>
    <defs>
     <path id="mba9e6f0305" d="M 0 2.5 
C 0.663008 2.5 1.29895 2.236584 1.767767 1.767767 
C 2.236584 1.29895 2.5 0.663008 2.5 0 
C 2.5 -0.663008 2.236584 -1.29895 1.767767 -1.767767 
C 1.29895 -2.236584 0.663008 -2.5 0 -2.5 
C -0.663008 -2.5 -1.29895 -2.236584 -1.767767 -1.767767 
C -2.236584 -1.29895 -2.5 -0.663008 -2.5 0 
C -2.5 0.663008 -2.236584 1.29895 -1.767767 1.767767 
C -1.29895 2.236584 -0.663008 2.5 0 2.5 
z
" style="stroke: #2a78d6"/>
    </defs>
    <g clip-path="url(#p629b674205)">
     <use xlink:href="#mba9e6f0305" x="51.165" y="63.035114" style="fill: #2a78d6; stroke: #2a78d6"/>
     <use xlink:href="#mba9e6f0305" x="75.735" y="49.097654" style="fill: #2a78d6; stroke: #2a78d6"/>
     <use xlink:href="#mba9e6f0305" x="124.875" y="41.93354" style="fill: #2a78d6; stroke: #2a78d6"/>
     <use xlink:href="#mba9e6f0305" x="198.585" y="42.563113" style="fill: #2a78d6; stroke: #2a78d6"/>
     <use xlink:href="#mba9e6f0305" x="272.295" y="58.432713" style="fill: #2a78d6; stroke: #2a78d6"/>
     <use xlink:href="#mba9e6f0305" x="296.865" y="52.37578" style="fill: #2a78d6; stroke: #2a78d6"/>
     <use xlink:href="#mba9e6f0305" x="321.435" y="53.393022" style="fill: #2a78d6; stroke: #2a78d6"/>
     <use xlink:href="#mba9e6f0305" x="370.575" y="54.96644" style="fill: #2a78d6; stroke: #2a78d6"/>
     <use xlink:href="#mba9e6f0305" x="395.145" y="54.011224" style="fill: #2a78d6; stroke: #2a78d6"/>
     <use xlink:href="#mba9e6f0305" x="419.715" y="52.592874" style="fill: #2a78d6; stroke: #2a78d6"/>
     <use xlink:href="#mba9e6f0305" x="444.285" y="56.413735" style="fill: #2a78d6; stroke: #2a78d6"/>
     <use xlink:href="#mba9e6f0305" x="468.855" y="71.118262" style="fill: #2a78d6; stroke: #2a78d6"/>
     <use xlink:href="#mba9e6f0305" x="517.995" y="73.077901" style="fill: #2a78d6; stroke: #2a78d6"/>
     <use xlink:href="#mba9e6f0305" x="542.565" y="64.880417" style="fill: #2a78d6; stroke: #2a78d6"/>
     <use xlink:href="#mba9e6f0305" x="567.135" y="67.97763" style="fill: #2a78d6; stroke: #2a78d6"/>
     <use xlink:href="#mba9e6f0305" x="591.705" y="59.398783" style="fill: #2a78d6; stroke: #2a78d6"/>
     <use xlink:href="#mba9e6f0305" x="616.275" y="61.76873" style="fill: #2a78d6; stroke: #2a78d6"/>
    </g>
   </g>
   <g id="line2d_46">
    <path d="M 517.995 73.077901 
" clip-path="url(#p629b674205)" style="fill: none; stroke: #d03b3b; stroke-width: 1.5; stroke-linecap: square"/>
    <defs>
     <path id="m23bcf85013" d="M 0 4 
C 1.060812 4 2.078319 3.578535 2.828427 2.828427 
C 3.578535 2.078319 4 1.060812 4 0 
C 4 -1.060812 3.578535 -2.078319 2.828427 -2.828427 
C 2.078319 -3.578535 1.060812 -4 0 -4 
C -1.060812 -4 -2.078319 -3.578535 -2.828427 -2.828427 
C -3.578535 -2.078319 -4 -1.060812 -4 0 
C -4 1.060812 -3.578535 2.078319 -2.828427 2.828427 
C -2.078319 3.578535 -1.060812 4 0 4 
z
" style="stroke: #d03b3b"/>
    </defs>
    <g clip-path="url(#p629b674205)">
     <use xlink:href="#m23bcf85013" x="517.995" y="73.077901" style="fill: #d03b3b; stroke: #d03b3b"/>
    </g>
   </g>
   <g id="legend_1">
    <g id="line2d_47">
     <path d="M 426.435469 48.076594 
L 432.735469 48.076594 
L 439.035469 48.076594 
" style="fill: none; stroke: #2a78d6; stroke-width: 2.4; stroke-linecap: square"/>
     <g>
      <use xlink:href="#mba9e6f0305" x="432.735469" y="48.076594" style="fill: #2a78d6; stroke: #2a78d6"/>
     </g>
    </g>
    <g id="text_24">
     <!-- Total -->
     <g style="fill: #c2c2c2" transform="translate(446.235469 51.226594) scale(0.09 -0.09)">
      <defs>
       <path id="DejaVuSans-37" d="M -19 4666 
L 3928 4666 
L 3928 4134 
L 2272 4134 
L 2272 0 
L 1638 0 
L 1638 4134 
L -19 4134 
L -19 4666 
z
" transform="scale(0.015625)"/>
       <path id="DejaVuSans-52" d="M 1959 3097 
Q 1497 3097 1228 2736 
Q 959 2375 959 1747 
Q 959 1119 1226 758 
Q 1494 397 1959 397 
Q 2419 397 2687 759 
Q 2956 1122 2956 1747 
Q 2956 2369 2687 2733 
Q 2419 3097 1959 3097 
z
M 1959 3584 
Q 2709 3584 3137 3096 
Q 3566 2609 3566 1747 
Q 3566 888 3137 398 
Q 2709 -91 1959 -91 
Q 1206 -91 779 398 
Q 353 888 353 1747 
Q 353 2609 779 3096 
Q 1206 3584 1959 3584 
z
" transform="scale(0.015625)"/>
       <path id="DejaVuSans-57" d="M 1172 4494 
L 1172 3500 
L 2356 3500 
L 2356 3053 
L 1172 3053 
L 1172 1153 
Q 1172 725 1289 603 
Q 1406 481 1766 481 
L 2356 481 
L 2356 0 
L 1766 0 
Q 1100 0 847 248 
Q 594 497 594 1153 
L 594 3053 
L 172 3053 
L 172 3500 
L 594 3500 
L 594 4494 
L 1172 4494 
z
" transform="scale(0.015625)"/>
       <path id="DejaVuSans-44" d="M 2194 1759 
Q 1497 1759 1228 1600 
Q 959 1441 959 1056 
Q 959 750 1161 570 
Q 1363 391 1709 391 
Q 2188 391 2477 730 
Q 2766 1069 2766 1631 
L 2766 1759 
L 2194 1759 
z
M 3341 1997 
L 3341 0 
L 2766 0 
L 2766 531 
Q 2569 213 2275 61 
Q 1981 -91 1556 -91 
Q 1019 -91 701 211 
Q 384 513 384 1019 
Q 384 1609 779 1909 
Q 1175 2209 1959 2209 
L 2766 2209 
L 2766 2266 
Q 2766 2663 2505 2880 
Q 2244 3097 1772 3097 
Q 1472 3097 1187 3025 
Q 903 2953 641 2809 
L 641 3341 
Q 956 3463 1253 3523 
Q 1550 3584 1831 3584 
Q 2591 3584 2966 3190 
Q 3341 2797 3341 1997 
z
" transform="scale(0.015625)"/>
       <path id="DejaVuSans-4f" d="M 603 4863 
L 1178 4863 
L 1178 0 
L 603 0 
L 603 4863 
z
" transform="scale(0.015625)"/>
      </defs>
      <use xlink:href="#DejaVuSans-37"/>
      <use xlink:href="#DejaVuSans-52" transform="translate(44.09375 0)"/>
      <use xlink:href="#DejaVuSans-57" transform="translate(105.28125 0)"/>
      <use xlink:href="#DejaVuSans-44" transform="translate(144.484375 0)"/>
      <use xlink:href="#DejaVuSans-4f" transform="translate(205.765625 0)"/>
     </g>
    </g>
    <g id="line2d_48">
     <path d="M 478.054688 48.076594 
L 484.354688 48.076594 
L 490.654688 48.076594 
" style="fill: none; stroke: #007f1c; stroke-width: 2; stroke-linecap: square"/>
     <g>
      <use xlink:href="#mfb0499aa43" x="484.354688" y="48.076594" style="fill: #007f1c; stroke: #007f1c"/>
     </g>
    </g>
    <g id="text_25">
     <!-- Electrical -->
     <g style="fill: #c2c2c2" transform="translate(497.854688 51.226594) scale(0.09 -0.09)">
      <defs>
       <path id="DejaVuSans-28" d="M 628 4666 
L 3578 4666 
L 3578 4134 
L 1259 4134 
L 1259 2753 
L 3481 2753 
L 3481 2222 
L 1259 2222 
L 1259 531 
L 3634 531 
L 3634 0 
L 628 0 
L 628 4666 
z
" transform="scale(0.015625)"/>
       <path id="DejaVuSans-48" d="M 3597 1894 
L 3597 1613 
L 953 1613 
Q 991 1019 1311 708 
Q 1631 397 2203 397 
Q 2534 397 2845 478 
Q 3156 559 3463 722 
L 3463 178 
Q 3153 47 2828 -22 
Q 2503 -91 2169 -91 
Q 1331 -91 842 396 
Q 353 884 353 1716 
Q 353 2575 817 3079 
Q 1281 3584 2069 3584 
Q 2775 3584 3186 3129 
Q 3597 2675 3597 1894 
z
M 3022 2063 
Q 3016 2534 2758 2815 
Q 2500 3097 2075 3097 
Q 1594 3097 1305 2825 
Q 1016 2553 972 2059 
L 3022 2063 
z
" transform="scale(0.015625)"/>
       <path id="DejaVuSans-46" d="M 3122 3366 
L 3122 2828 
Q 2878 2963 2633 3030 
Q 2388 3097 2138 3097 
Q 1578 3097 1268 2742 
Q 959 2388 959 1747 
Q 959 1106 1268 751 
Q 1578 397 2138 397 
Q 2388 397 2633 464 
Q 2878 531 3122 666 
L 3122 134 
Q 2881 22 2623 -34 
Q 2366 -91 2075 -91 
Q 1284 -91 818 406 
Q 353 903 353 1747 
Q 353 2603 823 3093 
Q 1294 3584 2113 3584 
Q 2378 3584 2631 3529 
Q 2884 3475 3122 3366 
z
" transform="scale(0.015625)"/>
       <path id="DejaVuSans-55" d="M 2631 2963 
Q 2534 3019 2420 3045 
Q 2306 3072 2169 3072 
Q 1681 3072 1420 2755 
Q 1159 2438 1159 1844 
L 1159 0 
L 581 0 
L 581 3500 
L 1159 3500 
L 1159 2956 
Q 1341 3275 1631 3429 
Q 1922 3584 2338 3584 
Q 2397 3584 2469 3576 
Q 2541 3569 2628 3553 
L 2631 2963 
z
" transform="scale(0.015625)"/>
       <path id="DejaVuSans-4c" d="M 603 3500 
L 1178 3500 
L 1178 0 
L 603 0 
L 603 3500 
z
M 603 4863 
L 1178 4863 
L 1178 4134 
L 603 4134 
L 603 4863 
z
" transform="scale(0.015625)"/>
      </defs>
      <use xlink:href="#DejaVuSans-28"/>
      <use xlink:href="#DejaVuSans-4f" transform="translate(63.1875 0)"/>
      <use xlink:href="#DejaVuSans-48" transform="translate(90.96875 0)"/>
      <use xlink:href="#DejaVuSans-46" transform="translate(152.5 0)"/>
      <use xlink:href="#DejaVuSans-57" transform="translate(207.484375 0)"/>
      <use xlink:href="#DejaVuSans-55" transform="translate(246.6875 0)"/>
      <use xlink:href="#DejaVuSans-4c" transform="translate(287.796875 0)"/>
      <use xlink:href="#DejaVuSans-46" transform="translate(315.578125 0)"/>
      <use xlink:href="#DejaVuSans-44" transform="translate(370.5625 0)"/>
      <use xlink:href="#DejaVuSans-4f" transform="translate(431.84375 0)"/>
     </g>
    </g>
    <g id="line2d_49">
     <path d="M 550.020937 48.076594 
L 556.320937 48.076594 
L 562.620937 48.076594 
" style="fill: none; stroke: #eb6834; stroke-width: 2; stroke-linecap: square"/>
     <g>
      <use xlink:href="#m59b5113946" x="556.320937" y="48.076594" style="fill: #eb6834; stroke: #eb6834"/>
     </g>
    </g>
    <g id="text_26">
     <!-- Mechanical -->
     <g style="fill: #c2c2c2" transform="translate(569.820937 51.226594) scale(0.09 -0.09)">
      <defs>
       <path id="DejaVuSans-30" d="M 628 4666 
L 1569 4666 
L 2759 1491 
L 3956 4666 
L 4897 4666 
L 4897 0 
L 4281 0 
L 4281 4097 
L 3078 897 
L 2444 897 
L 1241 4097 
L 1241 0 
L 628 0 
L 628 4666 
z
" transform="scale(0.015625)"/>
       <path id="DejaVuSans-51" d="M 3513 2113 
L 3513 0 
L 2938 0 
L 2938 2094 
Q 2938 2591 2744 2837 
Q 2550 3084 2163 3084 
Q 1697 3084 1428 2787 
Q 1159 2491 1159 1978 
L 1159 0 
L 581 0 
L 581 3500 
L 1159 3500 
L 1159 2956 
Q 1366 3272 1645 3428 
Q 1925 3584 2291 3584 
Q 2894 3584 3203 3211 
Q 3513 2838 3513 2113 
z
" transform="scale(0.015625)"/>
      </defs>
      <use xlink:href="#DejaVuSans-30"/>
      <use xlink:href="#DejaVuSans-48" transform="translate(86.28125 0)"/>
      <use xlink:href="#DejaVuSans-46" transform="translate(147.8125 0)"/>
      <use xlink:href="#DejaVuSans-4b" transform="translate(202.796875 0)"/>
      <use xlink:href="#DejaVuSans-44" transform="translate(266.171875 0)"/>
      <use xlink:href="#DejaVuSans-51" transform="translate(327.453125 0)"/>
      <use xlink:href="#DejaVuSans-4c" transform="translate(390.828125 0)"/>
      <use xlink:href="#DejaVuSans-46" transform="translate(418.609375 0)"/>
      <use xlink:href="#DejaVuSans-44" transform="translate(473.59375 0)"/>
      <use xlink:href="#DejaVuSans-4f" transform="translate(534.875 0)"/>
     </g>
    </g>
   </g>
  </g>
 </g>
 <defs>
  <clipPath id="p629b674205">
   <rect x="38.88" y="36.288" width="589.68" height="184.032"/>
  </clipPath>
 </defs>
</svg>
