<?xml version="1.0" encoding="utf-8" standalone="no"?>
<!DOCTYPE svg PUBLIC "-//W3C//DTD SVG 1.1//EN"
  "http://www.w3.org/Graphics/SVG/1.1/DTD/svg11.dtd">
<svg xmlns:xlink="http://www.w3.org/1999/xlink" width="648pt" height="259.2pt" viewBox="0 0 648 259.2" xmlns="http://www.w3.org/2000/svg" version="1.1">
 <metadata>
  <rdf:RDF xmlns:dc="http://purl.org/dc/elements/1.1/" xmlns:cc="http://creativecommons.org/ns#" xmlns:rdf="http://www.w3.org/1999/02/22-rdf-syntax-ns#">
   <cc:Work>
    <dc:type rdf:resource="http://purl.org/dc/dcmitype/StillImage"/>
    <dc:date>2026-07-16T10:53:16.104869</dc:date>
    <dc:format>image/svg+xml</dc:format>
    <dc:creator>
     <cc:Agent>
      <dc:title>Matplotlib v3.11.0, https://matplotlib.org/</dc:title>
     </cc:Agent>
    </dc:creator>
   </cc:Work>
  </rdf:RDF>
 </metadata>
 <defs>
  <style type="text/css">*{stroke-linejoin: round; stroke-linecap: butt}</style>
 </defs>
 <g id="figure_1">
  <g id="patch_1">
   <path d="M 0 259.2 
L 648 259.2 
L 648 0 
L 0 0 
z
" style="fill: #262626"/>
  </g>
  <g id="axes_1">
   <g id="patch_2">
    <path d="M 38.88 212.544 
L 628.56 212.544 
L 628.56 36.288 
L 38.88 36.288 
z
" style="fill: #262626"/>
   </g>
   <g id="matplotlib.axis_1">
    <g id="xtick_1">
     <g id="line2d_1">
      <path d="M 87.805444 212.544 
L 87.805444 36.288 
" clip-path="url(#p629d7fd459)" style="fill: none; stroke: #e1e0d9; stroke-width: 0.8; stroke-linecap: square"/>
     </g>
     <g id="line2d_2"/>
     <g id="text_1">
      <!-- 15h -->
      <g style="fill: #898781" transform="translate(79.227319 223.783473) scale(0.09 -0.09)">
       <defs>
        <path id="DejaVuSans-14" d="M 794 531 
L 1825 531 
L 1825 4091 
L 703 3866 
L 703 4441 
L 1819 4666 
L 2450 4666 
L 2450 531 
L 3481 531 
L 3481 0 
L 794 0 
L 794 531 
z
" transform="scale(0.015625)"/>
        <path id="DejaVuSans-18" d="M 691 4666 
L 3169 4666 
L 3169 4134 
L 1269 4134 
L 1269 2991 
Q 1406 3038 1543 3061 
Q 1681 3084 1819 3084 
Q 2600 3084 3056 2656 
Q 3513 2228 3513 1497 
Q 3513 744 3044 326 
Q 2575 -91 1722 -91 
Q 1428 -91 1123 -41 
Q 819 9 494 109 
L 494 744 
Q 775 591 1075 516 
Q 1375 441 1709 441 
Q 2250 441 2565 725 
Q 2881 1009 2881 1497 
Q 2881 1984 2565 2268 
Q 2250 2553 1709 2553 
Q 1456 2553 1204 2497 
Q 953 2441 691 2322 
L 691 4666 
z
" transform="scale(0.015625)"/>
        <path id="DejaVuSans-4b" d="M 3513 2113 
L 3513 0 
L 2938 0 
L 2938 2094 
Q 2938 2591 2744 2837 
Q 2550 3084 2163 3084 
Q 1697 3084 1428 2787 
Q 1159 2491 1159 1978 
L 1159 0 
L 581 0 
L 581 4863 
L 1159 4863 
L 1159 2956 
Q 1366 3272 1645 3428 
Q 1925 3584 2291 3584 
Q 2894 3584 3203 3211 
Q 3513 2838 3513 2113 
z
" transform="scale(0.015625)"/>
       </defs>
       <use xlink:href="#DejaVuSans-14"/>
       <use xlink:href="#DejaVuSans-18" transform="translate(63.625 0)"/>
       <use xlink:href="#DejaVuSans-4b" transform="translate(127.25 0)"/>
      </g>
      <!-- 15/07 -->
      <g style="fill: #898781" transform="translate(74.837006 234.58523) scale(0.09 -0.09)">
       <defs>
        <path id="DejaVuSans-12" d="M 1625 4666 
L 2156 4666 
L 531 -594 
L 0 -594 
L 1625 4666 
z
" transform="scale(0.015625)"/>
        <path id="DejaVuSans-13" d="M 2034 4250 
Q 1547 4250 1301 3770 
Q 1056 3291 1056 2328 
Q 1056 1369 1301 889 
Q 1547 409 2034 409 
Q 2525 409 2770 889 
Q 3016 1369 3016 2328 
Q 3016 3291 2770 3770 
Q 2525 4250 2034 4250 
z
M 2034 4750 
Q 2819 4750 3233 4129 
Q 3647 3509 3647 2328 
Q 3647 1150 3233 529 
Q 2819 -91 2034 -91 
Q 1250 -91 836 529 
Q 422 1150 422 2328 
Q 422 3509 836 4129 
Q 1250 4750 2034 4750 
z
" transform="scale(0.015625)"/>
        <path id="DejaVuSans-1a" d="M 525 4666 
L 3525 4666 
L 3525 4397 
L 1831 0 
L 1172 0 
L 2766 4134 
L 525 4134 
L 525 4666 
z
" transform="scale(0.015625)"/>
       </defs>
       <use xlink:href="#DejaVuSans-14"/>
       <use xlink:href="#DejaVuSans-18" transform="translate(63.625 0)"/>
       <use xlink:href="#DejaVuSans-12" transform="translate(127.25 0)"/>
       <use xlink:href="#DejaVuSans-13" transform="translate(160.9375 0)"/>
       <use xlink:href="#DejaVuSans-1a" transform="translate(224.5625 0)"/>
      </g>
     </g>
    </g>
    <g id="xtick_2">
     <g id="line2d_3">
      <path d="M 160.369403 212.544 
L 160.369403 36.288 
" clip-path="url(#p629d7fd459)" style="fill: none; stroke: #e1e0d9; stroke-width: 0.8; stroke-linecap: square"/>
     </g>
     <g id="line2d_4"/>
     <g id="text_2">
      <!-- 18h -->
      <g style="fill: #898781" transform="translate(151.791278 223.783473) scale(0.09 -0.09)">
       <defs>
        <path id="DejaVuSans-1b" d="M 2034 2216 
Q 1584 2216 1326 1975 
Q 1069 1734 1069 1313 
Q 1069 891 1326 650 
Q 1584 409 2034 409 
Q 2484 409 2743 651 
Q 3003 894 3003 1313 
Q 3003 1734 2745 1975 
Q 2488 2216 2034 2216 
z
M 1403 2484 
Q 997 2584 770 2862 
Q 544 3141 544 3541 
Q 544 4100 942 4425 
Q 1341 4750 2034 4750 
Q 2731 4750 3128 4425 
Q 3525 4100 3525 3541 
Q 3525 3141 3298 2862 
Q 3072 2584 2669 2484 
Q 3125 2378 3379 2068 
Q 3634 1759 3634 1313 
Q 3634 634 3220 271 
Q 2806 -91 2034 -91 
Q 1263 -91 848 271 
Q 434 634 434 1313 
Q 434 1759 690 2068 
Q 947 2378 1403 2484 
z
M 1172 3481 
Q 1172 3119 1398 2916 
Q 1625 2713 2034 2713 
Q 2441 2713 2670 2916 
Q 2900 3119 2900 3481 
Q 2900 3844 2670 4047 
Q 2441 4250 2034 4250 
Q 1625 4250 1398 4047 
Q 1172 3844 1172 3481 
z
" transform="scale(0.015625)"/>
       </defs>
       <use xlink:href="#DejaVuSans-14"/>
       <use xlink:href="#DejaVuSans-1b" transform="translate(63.625 0)"/>
       <use xlink:href="#DejaVuSans-4b" transform="translate(127.25 0)"/>
      </g>
      <!-- 15/07 -->
      <g style="fill: #898781" transform="translate(147.400966 234.58523) scale(0.09 -0.09)">
       <use xlink:href="#DejaVuSans-14"/>
       <use xlink:href="#DejaVuSans-18" transform="translate(63.625 0)"/>
       <use xlink:href="#DejaVuSans-12" transform="translate(127.25 0)"/>
       <use xlink:href="#DejaVuSans-13" transform="translate(160.9375 0)"/>
       <use xlink:href="#DejaVuSans-1a" transform="translate(224.5625 0)"/>
      </g>
     </g>
    </g>
    <g id="xtick_3">
     <g id="line2d_5">
      <path d="M 232.933363 212.544 
L 232.933363 36.288 
" clip-path="url(#p629d7fd459)" style="fill: none; stroke: #e1e0d9; stroke-width: 0.8; stroke-linecap: square"/>
     </g>
     <g id="line2d_6"/>
     <g id="text_3">
      <!-- 21h -->
      <g style="fill: #898781" transform="translate(224.355238 223.783473) scale(0.09 -0.09)">
       <defs>
        <path id="DejaVuSans-15" d="M 1228 531 
L 3431 531 
L 3431 0 
L 469 0 
L 469 531 
Q 828 903 1448 1529 
Q 2069 2156 2228 2338 
Q 2531 2678 2651 2914 
Q 2772 3150 2772 3378 
Q 2772 3750 2511 3984 
Q 2250 4219 1831 4219 
Q 1534 4219 1204 4116 
Q 875 4013 500 3803 
L 500 4441 
Q 881 4594 1212 4672 
Q 1544 4750 1819 4750 
Q 2544 4750 2975 4387 
Q 3406 4025 3406 3419 
Q 3406 3131 3298 2873 
Q 3191 2616 2906 2266 
Q 2828 2175 2409 1742 
Q 1991 1309 1228 531 
z
" transform="scale(0.015625)"/>
       </defs>
       <use xlink:href="#DejaVuSans-15"/>
       <use xlink:href="#DejaVuSans-14" transform="translate(63.625 0)"/>
       <use xlink:href="#DejaVuSans-4b" transform="translate(127.25 0)"/>
      </g>
      <!-- 15/07 -->
      <g style="fill: #898781" transform="translate(219.964926 234.58523) scale(0.09 -0.09)">
       <use xlink:href="#DejaVuSans-14"/>
       <use xlink:href="#DejaVuSans-18" transform="translate(63.625 0)"/>
       <use xlink:href="#DejaVuSans-12" transform="translate(127.25 0)"/>
       <use xlink:href="#DejaVuSans-13" transform="translate(160.9375 0)"/>
       <use xlink:href="#DejaVuSans-1a" transform="translate(224.5625 0)"/>
      </g>
     </g>
    </g>
    <g id="xtick_4">
     <g id="line2d_7">
      <path d="M 305.497323 212.544 
L 305.497323 36.288 
" clip-path="url(#p629d7fd459)" style="fill: none; stroke: #e1e0d9; stroke-width: 0.8; stroke-linecap: square"/>
     </g>
     <g id="line2d_8"/>
     <g id="text_4">
      <!-- 00h -->
      <g style="fill: #898781" transform="translate(296.919198 223.783473) scale(0.09 -0.09)">
       <use xlink:href="#DejaVuSans-13"/>
       <use xlink:href="#DejaVuSans-13" transform="translate(63.625 0)"/>
       <use xlink:href="#DejaVuSans-4b" transform="translate(127.25 0)"/>
      </g>
      <!-- 16/07 -->
      <g style="fill: #898781" transform="translate(292.528885 234.58523) scale(0.09 -0.09)">
       <defs>
        <path id="DejaVuSans-19" d="M 2113 2584 
Q 1688 2584 1439 2293 
Q 1191 2003 1191 1497 
Q 1191 994 1439 701 
Q 1688 409 2113 409 
Q 2538 409 2786 701 
Q 3034 994 3034 1497 
Q 3034 2003 2786 2293 
Q 2538 2584 2113 2584 
z
M 3366 4563 
L 3366 3988 
Q 3128 4100 2886 4159 
Q 2644 4219 2406 4219 
Q 1781 4219 1451 3797 
Q 1122 3375 1075 2522 
Q 1259 2794 1537 2939 
Q 1816 3084 2150 3084 
Q 2853 3084 3261 2657 
Q 3669 2231 3669 1497 
Q 3669 778 3244 343 
Q 2819 -91 2113 -91 
Q 1303 -91 875 529 
Q 447 1150 447 2328 
Q 447 3434 972 4092 
Q 1497 4750 2381 4750 
Q 2619 4750 2861 4703 
Q 3103 4656 3366 4563 
z
" transform="scale(0.015625)"/>
       </defs>
       <use xlink:href="#DejaVuSans-14"/>
       <use xlink:href="#DejaVuSans-19" transform="translate(63.625 0)"/>
       <use xlink:href="#DejaVuSans-12" transform="translate(127.25 0)"/>
       <use xlink:href="#DejaVuSans-13" transform="translate(160.9375 0)"/>
       <use xlink:href="#DejaVuSans-1a" transform="translate(224.5625 0)"/>
      </g>
     </g>
    </g>
    <g id="xtick_5">
     <g id="line2d_9">
      <path d="M 378.061283 212.544 
L 378.061283 36.288 
" clip-path="url(#p629d7fd459)" style="fill: none; stroke: #e1e0d9; stroke-width: 0.8; stroke-linecap: square"/>
     </g>
     <g id="line2d_10"/>
     <g id="text_5">
      <!-- 03h -->
      <g style="fill: #898781" transform="translate(369.483158 223.783473) scale(0.09 -0.09)">
       <defs>
        <path id="DejaVuSans-16" d="M 2597 2516 
Q 3050 2419 3304 2112 
Q 3559 1806 3559 1356 
Q 3559 666 3084 287 
Q 2609 -91 1734 -91 
Q 1441 -91 1130 -33 
Q 819 25 488 141 
L 488 750 
Q 750 597 1062 519 
Q 1375 441 1716 441 
Q 2309 441 2620 675 
Q 2931 909 2931 1356 
Q 2931 1769 2642 2001 
Q 2353 2234 1838 2234 
L 1294 2234 
L 1294 2753 
L 1863 2753 
Q 2328 2753 2575 2939 
Q 2822 3125 2822 3475 
Q 2822 3834 2567 4026 
Q 2313 4219 1838 4219 
Q 1578 4219 1281 4162 
Q 984 4106 628 3988 
L 628 4550 
Q 988 4650 1302 4700 
Q 1616 4750 1894 4750 
Q 2613 4750 3031 4423 
Q 3450 4097 3450 3541 
Q 3450 3153 3228 2886 
Q 3006 2619 2597 2516 
z
" transform="scale(0.015625)"/>
       </defs>
       <use xlink:href="#DejaVuSans-13"/>
       <use xlink:href="#DejaVuSans-16" transform="translate(63.625 0)"/>
       <use xlink:href="#DejaVuSans-4b" transform="translate(127.25 0)"/>
      </g>
      <!-- 16/07 -->
      <g style="fill: #898781" transform="translate(365.092845 234.58523) scale(0.09 -0.09)">
       <use xlink:href="#DejaVuSans-14"/>
       <use xlink:href="#DejaVuSans-19" transform="translate(63.625 0)"/>
       <use xlink:href="#DejaVuSans-12" transform="translate(127.25 0)"/>
       <use xlink:href="#DejaVuSans-13" transform="translate(160.9375 0)"/>
       <use xlink:href="#DejaVuSans-1a" transform="translate(224.5625 0)"/>
      </g>
     </g>
    </g>
    <g id="xtick_6">
     <g id="line2d_11">
      <path d="M 450.625242 212.544 
L 450.625242 36.288 
" clip-path="url(#p629d7fd459)" style="fill: none; stroke: #e1e0d9; stroke-width: 0.8; stroke-linecap: square"/>
     </g>
     <g id="line2d_12"/>
     <g id="text_6">
      <!-- 06h -->
      <g style="fill: #898781" transform="translate(442.047117 223.783473) scale(0.09 -0.09)">
       <use xlink:href="#DejaVuSans-13"/>
       <use xlink:href="#DejaVuSans-19" transform="translate(63.625 0)"/>
       <use xlink:href="#DejaVuSans-4b" transform="translate(127.25 0)"/>
      </g>
      <!-- 16/07 -->
      <g style="fill: #898781" transform="translate(437.656805 234.58523) scale(0.09 -0.09)">
       <use xlink:href="#DejaVuSans-14"/>
       <use xlink:href="#DejaVuSans-19" transform="translate(63.625 0)"/>
       <use xlink:href="#DejaVuSans-12" transform="translate(127.25 0)"/>
       <use xlink:href="#DejaVuSans-13" transform="translate(160.9375 0)"/>
       <use xlink:href="#DejaVuSans-1a" transform="translate(224.5625 0)"/>
      </g>
     </g>
    </g>
    <g id="xtick_7">
     <g id="line2d_13">
      <path d="M 523.189202 212.544 
L 523.189202 36.288 
" clip-path="url(#p629d7fd459)" style="fill: none; stroke: #e1e0d9; stroke-width: 0.8; stroke-linecap: square"/>
     </g>
     <g id="line2d_14"/>
     <g id="text_7">
      <!-- 09h -->
      <g style="fill: #898781" transform="translate(514.611077 223.783473) scale(0.09 -0.09)">
       <defs>
        <path id="DejaVuSans-1c" d="M 703 97 
L 703 672 
Q 941 559 1184 500 
Q 1428 441 1663 441 
Q 2288 441 2617 861 
Q 2947 1281 2994 2138 
Q 2813 1869 2534 1725 
Q 2256 1581 1919 1581 
Q 1219 1581 811 2004 
Q 403 2428 403 3163 
Q 403 3881 828 4315 
Q 1253 4750 1959 4750 
Q 2769 4750 3195 4129 
Q 3622 3509 3622 2328 
Q 3622 1225 3098 567 
Q 2575 -91 1691 -91 
Q 1453 -91 1209 -44 
Q 966 3 703 97 
z
M 1959 2075 
Q 2384 2075 2632 2365 
Q 2881 2656 2881 3163 
Q 2881 3666 2632 3958 
Q 2384 4250 1959 4250 
Q 1534 4250 1286 3958 
Q 1038 3666 1038 3163 
Q 1038 2656 1286 2365 
Q 1534 2075 1959 2075 
z
" transform="scale(0.015625)"/>
       </defs>
       <use xlink:href="#DejaVuSans-13"/>
       <use xlink:href="#DejaVuSans-1c" transform="translate(63.625 0)"/>
       <use xlink:href="#DejaVuSans-4b" transform="translate(127.25 0)"/>
      </g>
      <!-- 16/07 -->
      <g style="fill: #898781" transform="translate(510.220765 234.58523) scale(0.09 -0.09)">
       <use xlink:href="#DejaVuSans-14"/>
       <use xlink:href="#DejaVuSans-19" transform="translate(63.625 0)"/>
       <use xlink:href="#DejaVuSans-12" transform="translate(127.25 0)"/>
       <use xlink:href="#DejaVuSans-13" transform="translate(160.9375 0)"/>
       <use xlink:href="#DejaVuSans-1a" transform="translate(224.5625 0)"/>
      </g>
     </g>
    </g>
    <g id="xtick_8">
     <g id="line2d_15">
      <path d="M 595.753162 212.544 
L 595.753162 36.288 
" clip-path="url(#p629d7fd459)" style="fill: none; stroke: #e1e0d9; stroke-width: 0.8; stroke-linecap: square"/>
     </g>
     <g id="line2d_16"/>
     <g id="text_8">
      <!-- 12h -->
      <g style="fill: #898781" transform="translate(587.175037 223.783473) scale(0.09 -0.09)">
       <use xlink:href="#DejaVuSans-14"/>
       <use xlink:href="#DejaVuSans-15" transform="translate(63.625 0)"/>
       <use xlink:href="#DejaVuSans-4b" transform="translate(127.25 0)"/>
      </g>
      <!-- 16/07 -->
      <g style="fill: #898781" transform="translate(582.784724 234.58523) scale(0.09 -0.09)">
       <use xlink:href="#DejaVuSans-14"/>
       <use xlink:href="#DejaVuSans-19" transform="translate(63.625 0)"/>
       <use xlink:href="#DejaVuSans-12" transform="translate(127.25 0)"/>
       <use xlink:href="#DejaVuSans-13" transform="translate(160.9375 0)"/>
       <use xlink:href="#DejaVuSans-1a" transform="translate(224.5625 0)"/>
      </g>
     </g>
    </g>
   </g>
   <g id="matplotlib.axis_2">
    <g id="ytick_1">
     <g id="line2d_17">
      <path d="M 38.88 212.544 
L 628.56 212.544 
" clip-path="url(#p629d7fd459)" style="fill: none; stroke: #e1e0d9; stroke-width: 0.8; stroke-linecap: square"/>
     </g>
     <g id="line2d_18"/>
     <g id="text_9">
      <!-- 0 -->
      <g style="fill: #898781" transform="translate(29.65375 215.962945) scale(0.09 -0.09)">
       <use xlink:href="#DejaVuSans-13"/>
      </g>
     </g>
    </g>
    <g id="ytick_2">
     <g id="line2d_19">
      <path d="M 38.88 186.516829 
L 628.56 186.516829 
" clip-path="url(#p629d7fd459)" style="fill: none; stroke: #e1e0d9; stroke-width: 0.8; stroke-linecap: square"/>
     </g>
     <g id="line2d_20"/>
     <g id="text_10">
      <!-- 50 -->
      <g style="fill: #898781" transform="translate(23.9275 189.935775) scale(0.09 -0.09)">
       <use xlink:href="#DejaVuSans-18"/>
       <use xlink:href="#DejaVuSans-13" transform="translate(63.625 0)"/>
      </g>
     </g>
    </g>
    <g id="ytick_3">
     <g id="line2d_21">
      <path d="M 38.88 160.489659 
L 628.56 160.489659 
" clip-path="url(#p629d7fd459)" style="fill: none; stroke: #e1e0d9; stroke-width: 0.8; stroke-linecap: square"/>
     </g>
     <g id="line2d_22"/>
     <g id="text_11">
      <!-- 100 -->
      <g style="fill: #898781" transform="translate(18.20125 163.908604) scale(0.09 -0.09)">
       <use xlink:href="#DejaVuSans-14"/>
       <use xlink:href="#DejaVuSans-13" transform="translate(63.625 0)"/>
       <use xlink:href="#DejaVuSans-13" transform="translate(127.25 0)"/>
      </g>
     </g>
    </g>
    <g id="ytick_4">
     <g id="line2d_23">
      <path d="M 38.88 134.462488 
L 628.56 134.462488 
" clip-path="url(#p629d7fd459)" style="fill: none; stroke: #e1e0d9; stroke-width: 0.8; stroke-linecap: square"/>
     </g>
     <g id="line2d_24"/>
     <g id="text_12">
      <!-- 150 -->
      <g style="fill: #898781" transform="translate(18.20125 137.881433) scale(0.09 -0.09)">
       <use xlink:href="#DejaVuSans-14"/>
       <use xlink:href="#DejaVuSans-18" transform="translate(63.625 0)"/>
       <use xlink:href="#DejaVuSans-13" transform="translate(127.25 0)"/>
      </g>
     </g>
    </g>
    <g id="ytick_5">
     <g id="line2d_25">
      <path d="M 38.88 108.435317 
L 628.56 108.435317 
" clip-path="url(#p629d7fd459)" style="fill: none; stroke: #e1e0d9; stroke-width: 0.8; stroke-linecap: square"/>
     </g>
     <g id="line2d_26"/>
     <g id="text_13">
      <!-- 200 -->
      <g style="fill: #898781" transform="translate(18.20125 111.854263) scale(0.09 -0.09)">
       <use xlink:href="#DejaVuSans-15"/>
       <use xlink:href="#DejaVuSans-13" transform="translate(63.625 0)"/>
       <use xlink:href="#DejaVuSans-13" transform="translate(127.25 0)"/>
      </g>
     </g>
    </g>
    <g id="ytick_6">
     <g id="line2d_27">
      <path d="M 38.88 82.408146 
L 628.56 82.408146 
" clip-path="url(#p629d7fd459)" style="fill: none; stroke: #e1e0d9; stroke-width: 0.8; stroke-linecap: square"/>
     </g>
     <g id="line2d_28"/>
     <g id="text_14">
      <!-- 250 -->
      <g style="fill: #898781" transform="translate(18.20125 85.827092) scale(0.09 -0.09)">
       <use xlink:href="#DejaVuSans-15"/>
       <use xlink:href="#DejaVuSans-18" transform="translate(63.625 0)"/>
       <use xlink:href="#DejaVuSans-13" transform="translate(127.25 0)"/>
      </g>
     </g>
    </g>
    <g id="ytick_7">
     <g id="line2d_29">
      <path d="M 38.88 56.380976 
L 628.56 56.380976 
" clip-path="url(#p629d7fd459)" style="fill: none; stroke: #e1e0d9; stroke-width: 0.8; stroke-linecap: square"/>
     </g>
     <g id="line2d_30"/>
     <g id="text_15">
      <!-- 300 -->
      <g style="fill: #898781" transform="translate(18.20125 59.799921) scale(0.09 -0.09)">
       <use xlink:href="#DejaVuSans-16"/>
       <use xlink:href="#DejaVuSans-13" transform="translate(63.625 0)"/>
       <use xlink:href="#DejaVuSans-13" transform="translate(127.25 0)"/>
      </g>
     </g>
    </g>
   </g>
   <g id="line2d_31">
    <path d="M 50.22 181.831939 
L 103.984519 182.873025 
L 106.154719 181.831939 
L 110.589183 181.311395 
L 145.319101 176.626504 
L 189.052324 171.42107 
L 233.773224 155.284224 
L 278.870381 172.462157 
L 302.890395 177.667591 
L 327.360575 176.626504 
L 351.629188 178.188135 
L 403.404917 180.270308 
L 488.660851 189.64009 
L 548.51268 195.366067 
L 617.22 186.516829 
" clip-path="url(#p629d7fd459)" style="fill: none; stroke: #2a78d6; stroke-width: 2; stroke-linecap: square"/>
    <defs>
     <path id="m6cd093c228" d="M 0 1.5 
C 0.397805 1.5 0.77937 1.341951 1.06066 1.06066 
C 1.341951 0.77937 1.5 0.397805 1.5 0 
C 1.5 -0.397805 1.341951 -0.77937 1.06066 -1.06066 
C 0.77937 -1.341951 0.397805 -1.5 0 -1.5 
C -0.397805 -1.5 -0.77937 -1.341951 -1.06066 -1.06066 
C -1.341951 -0.77937 -1.5 -0.397805 -1.5 0 
C -1.5 0.397805 -1.341951 0.77937 -1.06066 1.06066 
C -0.77937 1.341951 -0.397805 1.5 0 1.5 
z
" style="stroke: #2a78d6"/>
    </defs>
    <g clip-path="url(#p629d7fd459)">
     <use xlink:href="#m6cd093c228" x="50.22" y="181.831939" style="fill: #2a78d6; stroke: #2a78d6"/>
     <use xlink:href="#m6cd093c228" x="103.984519" y="182.873025" style="fill: #2a78d6; stroke: #2a78d6"/>
     <use xlink:href="#m6cd093c228" x="106.154719" y="181.831939" style="fill: #2a78d6; stroke: #2a78d6"/>
     <use xlink:href="#m6cd093c228" x="110.589183" y="181.311395" style="fill: #2a78d6; stroke: #2a78d6"/>
     <use xlink:href="#m6cd093c228" x="145.319101" y="176.626504" style="fill: #2a78d6; stroke: #2a78d6"/>
     <use xlink:href="#m6cd093c228" x="189.052324" y="171.42107" style="fill: #2a78d6; stroke: #2a78d6"/>
     <use xlink:href="#m6cd093c228" x="233.773224" y="155.284224" style="fill: #2a78d6; stroke: #2a78d6"/>
     <use xlink:href="#m6cd093c228" x="278.870381" y="172.462157" style="fill: #2a78d6; stroke: #2a78d6"/>
     <use xlink:href="#m6cd093c228" x="302.890395" y="177.667591" style="fill: #2a78d6; stroke: #2a78d6"/>
     <use xlink:href="#m6cd093c228" x="327.360575" y="176.626504" style="fill: #2a78d6; stroke: #2a78d6"/>
     <use xlink:href="#m6cd093c228" x="351.629188" y="178.188135" style="fill: #2a78d6; stroke: #2a78d6"/>
     <use xlink:href="#m6cd093c228" x="403.404917" y="180.270308" style="fill: #2a78d6; stroke: #2a78d6"/>
     <use xlink:href="#m6cd093c228" x="488.660851" y="189.64009" style="fill: #2a78d6; stroke: #2a78d6"/>
     <use xlink:href="#m6cd093c228" x="548.51268" y="195.366067" style="fill: #2a78d6; stroke: #2a78d6"/>
     <use xlink:href="#m6cd093c228" x="617.22" y="186.516829" style="fill: #2a78d6; stroke: #2a78d6"/>
    </g>
   </g>
   <g id="line2d_32">
    <path d="M 50.22 65.750757 
L 103.984519 81.887603 
L 106.154719 81.887603 
L 110.589183 78.764343 
L 145.319101 100.627166 
L 189.052324 164.133462 
L 233.773224 144.352813 
L 278.870381 168.818353 
L 302.890395 192.242807 
L 327.360575 203.694762 
L 351.629188 201.612588 
L 403.404917 202.653675 
L 488.660851 190.681177 
L 548.51268 75.120539 
L 617.22 59.504236 
" clip-path="url(#p629d7fd459)" style="fill: none; stroke: #eb6834; stroke-width: 2; stroke-linecap: square"/>
    <defs>
     <path id="m1a3872c379" d="M 0 1.5 
C 0.397805 1.5 0.77937 1.341951 1.06066 1.06066 
C 1.341951 0.77937 1.5 0.397805 1.5 0 
C 1.5 -0.397805 1.341951 -0.77937 1.06066 -1.06066 
C 0.77937 -1.341951 0.397805 -1.5 0 -1.5 
C -0.397805 -1.5 -0.77937 -1.341951 -1.06066 -1.06066 
C -1.341951 -0.77937 -1.5 -0.397805 -1.5 0 
C -1.5 0.397805 -1.341951 0.77937 -1.06066 1.06066 
C -0.77937 1.341951 -0.397805 1.5 0 1.5 
z
" style="stroke: #eb6834"/>
    </defs>
    <g clip-path="url(#p629d7fd459)">
     <use xlink:href="#m1a3872c379" x="50.22" y="65.750757" style="fill: #eb6834; stroke: #eb6834"/>
     <use xlink:href="#m1a3872c379" x="103.984519" y="81.887603" style="fill: #eb6834; stroke: #eb6834"/>
     <use xlink:href="#m1a3872c379" x="106.154719" y="81.887603" style="fill: #eb6834; stroke: #eb6834"/>
     <use xlink:href="#m1a3872c379" x="110.589183" y="78.764343" style="fill: #eb6834; stroke: #eb6834"/>
     <use xlink:href="#m1a3872c379" x="145.319101" y="100.627166" style="fill: #eb6834; stroke: #eb6834"/>
     <use xlink:href="#m1a3872c379" x="189.052324" y="164.133462" style="fill: #eb6834; stroke: #eb6834"/>
     <use xlink:href="#m1a3872c379" x="233.773224" y="144.352813" style="fill: #eb6834; stroke: #eb6834"/>
     <use xlink:href="#m1a3872c379" x="278.870381" y="168.818353" style="fill: #eb6834; stroke: #eb6834"/>
     <use xlink:href="#m1a3872c379" x="302.890395" y="192.242807" style="fill: #eb6834; stroke: #eb6834"/>
     <use xlink:href="#m1a3872c379" x="327.360575" y="203.694762" style="fill: #eb6834; stroke: #eb6834"/>
     <use xlink:href="#m1a3872c379" x="351.629188" y="201.612588" style="fill: #eb6834; stroke: #eb6834"/>
     <use xlink:href="#m1a3872c379" x="403.404917" y="202.653675" style="fill: #eb6834; stroke: #eb6834"/>
     <use xlink:href="#m1a3872c379" x="488.660851" y="190.681177" style="fill: #eb6834; stroke: #eb6834"/>
     <use xlink:href="#m1a3872c379" x="548.51268" y="75.120539" style="fill: #eb6834; stroke: #eb6834"/>
     <use xlink:href="#m1a3872c379" x="617.22" y="59.504236" style="fill: #eb6834; stroke: #eb6834"/>
    </g>
   </g>
   <g id="line2d_33">
    <path d="M 50.22 77.202712 
L 103.984519 44.408477 
L 106.154719 48.572825 
L 110.589183 58.463149 
L 145.319101 139.147379 
L 189.052324 141.750096 
L 233.773224 139.667922 
L 278.870381 119.887272 
L 302.890395 109.996947 
L 327.360575 104.27097 
L 351.629188 102.188796 
L 403.404917 98.024449 
L 488.660851 70.435648 
L 548.51268 44.929021 
L 617.22 80.846516 
" clip-path="url(#p629d7fd459)" style="fill: none; stroke: #007f1c; stroke-width: 2; stroke-linecap: square"/>
    <defs>
     <path id="m8f6a73e94e" d="M 0 1.5 
C 0.397805 1.5 0.77937 1.341951 1.06066 1.06066 
C 1.341951 0.77937 1.5 0.397805 1.5 0 
C 1.5 -0.397805 1.341951 -0.77937 1.06066 -1.06066 
C 0.77937 -1.341951 0.397805 -1.5 0 -1.5 
C -0.397805 -1.5 -0.77937 -1.341951 -1.06066 -1.06066 
C -1.341951 -0.77937 -1.5 -0.397805 -1.5 0 
C -1.5 0.397805 -1.341951 0.77937 -1.06066 1.06066 
C -0.77937 1.341951 -0.397805 1.5 0 1.5 
z
" style="stroke: #007f1c"/>
    </defs>
    <g clip-path="url(#p629d7fd459)">
     <use xlink:href="#m8f6a73e94e" x="50.22" y="77.202712" style="fill: #007f1c; stroke: #007f1c"/>
     <use xlink:href="#m8f6a73e94e" x="103.984519" y="44.408477" style="fill: #007f1c; stroke: #007f1c"/>
     <use xlink:href="#m8f6a73e94e" x="106.154719" y="48.572825" style="fill: #007f1c; stroke: #007f1c"/>
     <use xlink:href="#m8f6a73e94e" x="110.589183" y="58.463149" style="fill: #007f1c; stroke: #007f1c"/>
     <use xlink:href="#m8f6a73e94e" x="145.319101" y="139.147379" style="fill: #007f1c; stroke: #007f1c"/>
     <use xlink:href="#m8f6a73e94e" x="189.052324" y="141.750096" style="fill: #007f1c; stroke: #007f1c"/>
     <use xlink:href="#m8f6a73e94e" x="233.773224" y="139.667922" style="fill: #007f1c; stroke: #007f1c"/>
     <use xlink:href="#m8f6a73e94e" x="278.870381" y="119.887272" style="fill: #007f1c; stroke: #007f1c"/>
     <use xlink:href="#m8f6a73e94e" x="302.890395" y="109.996947" style="fill: #007f1c; stroke: #007f1c"/>
     <use xlink:href="#m8f6a73e94e" x="327.360575" y="104.27097" style="fill: #007f1c; stroke: #007f1c"/>
     <use xlink:href="#m8f6a73e94e" x="351.629188" y="102.188796" style="fill: #007f1c; stroke: #007f1c"/>
     <use xlink:href="#m8f6a73e94e" x="403.404917" y="98.024449" style="fill: #007f1c; stroke: #007f1c"/>
     <use xlink:href="#m8f6a73e94e" x="488.660851" y="70.435648" style="fill: #007f1c; stroke: #007f1c"/>
     <use xlink:href="#m8f6a73e94e" x="548.51268" y="44.929021" style="fill: #007f1c; stroke: #007f1c"/>
     <use xlink:href="#m8f6a73e94e" x="617.22" y="80.846516" style="fill: #007f1c; stroke: #007f1c"/>
    </g>
   </g>
   <g id="line2d_34">
    <path d="M 50.22 201.092045 
L 103.984519 179.749765 
L 106.154719 180.270308 
L 110.589183 175.585418 
L 145.319101 182.352482 
L 189.052324 135.503575 
L 233.773224 121.448903 
L 278.870381 105.8326 
L 302.890395 86.05195 
L 327.360575 84.49032 
L 351.629188 85.010864 
L 403.404917 81.887603 
L 488.660851 144.352813 
L 548.51268 206.818022 
L 617.22 194.845524 
" clip-path="url(#p629d7fd459)" style="fill: none; stroke: #d03b3b; stroke-width: 2; stroke-linecap: square"/>
    <defs>
     <path id="m696614d999" d="M 0 1.5 
C 0.397805 1.5 0.77937 1.341951 1.06066 1.06066 
C 1.341951 0.77937 1.5 0.397805 1.5 0 
C 1.5 -0.397805 1.341951 -0.77937 1.06066 -1.06066 
C 0.77937 -1.341951 0.397805 -1.5 0 -1.5 
C -0.397805 -1.5 -0.77937 -1.341951 -1.06066 -1.06066 
C -1.341951 -0.77937 -1.5 -0.397805 -1.5 0 
C -1.5 0.397805 -1.341951 0.77937 -1.06066 1.06066 
C -0.77937 1.341951 -0.397805 1.5 0 1.5 
z
" style="stroke: #d03b3b"/>
    </defs>
    <g clip-path="url(#p629d7fd459)">
     <use xlink:href="#m696614d999" x="50.22" y="201.092045" style="fill: #d03b3b; stroke: #d03b3b"/>
     <use xlink:href="#m696614d999" x="103.984519" y="179.749765" style="fill: #d03b3b; stroke: #d03b3b"/>
     <use xlink:href="#m696614d999" x="106.154719" y="180.270308" style="fill: #d03b3b; stroke: #d03b3b"/>
     <use xlink:href="#m696614d999" x="110.589183" y="175.585418" style="fill: #d03b3b; stroke: #d03b3b"/>
     <use xlink:href="#m696614d999" x="145.319101" y="182.352482" style="fill: #d03b3b; stroke: #d03b3b"/>
     <use xlink:href="#m696614d999" x="189.052324" y="135.503575" style="fill: #d03b3b; stroke: #d03b3b"/>
     <use xlink:href="#m696614d999" x="233.773224" y="121.448903" style="fill: #d03b3b; stroke: #d03b3b"/>
     <use xlink:href="#m696614d999" x="278.870381" y="105.8326" style="fill: #d03b3b; stroke: #d03b3b"/>
     <use xlink:href="#m696614d999" x="302.890395" y="86.05195" style="fill: #d03b3b; stroke: #d03b3b"/>
     <use xlink:href="#m696614d999" x="327.360575" y="84.49032" style="fill: #d03b3b; stroke: #d03b3b"/>
     <use xlink:href="#m696614d999" x="351.629188" y="85.010864" style="fill: #d03b3b; stroke: #d03b3b"/>
     <use xlink:href="#m696614d999" x="403.404917" y="81.887603" style="fill: #d03b3b; stroke: #d03b3b"/>
     <use xlink:href="#m696614d999" x="488.660851" y="144.352813" style="fill: #d03b3b; stroke: #d03b3b"/>
     <use xlink:href="#m696614d999" x="548.51268" y="206.818022" style="fill: #d03b3b; stroke: #d03b3b"/>
     <use xlink:href="#m696614d999" x="617.22" y="194.845524" style="fill: #d03b3b; stroke: #d03b3b"/>
    </g>
   </g>
   <g id="line2d_35">
    <path d="M 50.22 200.050958 
L 103.984519 192.242807 
L 106.154719 194.845524 
L 110.589183 196.927698 
L 145.319101 199.009871 
L 189.052324 172.462157 
L 233.773224 115.722925 
L 278.870381 118.325642 
L 302.890395 170.379983 
L 327.360575 172.462157 
L 351.629188 172.982701 
L 403.404917 170.900527 
L 488.660851 190.681177 
L 548.51268 206.818022 
L 617.22 194.845524 
" clip-path="url(#p629d7fd459)" style="fill: none; stroke: #9b5de5; stroke-width: 2; stroke-linecap: square"/>
    <defs>
     <path id="m3101a4993b" d="M 0 1.5 
C 0.397805 1.5 0.77937 1.341951 1.06066 1.06066 
C 1.341951 0.77937 1.5 0.397805 1.5 0 
C 1.5 -0.397805 1.341951 -0.77937 1.06066 -1.06066 
C 0.77937 -1.341951 0.397805 -1.5 0 -1.5 
C -0.397805 -1.5 -0.77937 -1.341951 -1.06066 -1.06066 
C -1.341951 -0.77937 -1.5 -0.397805 -1.5 0 
C -1.5 0.397805 -1.341951 0.77937 -1.06066 1.06066 
C -0.77937 1.341951 -0.397805 1.5 0 1.5 
z
" style="stroke: #9b5de5"/>
    </defs>
    <g clip-path="url(#p629d7fd459)">
     <use xlink:href="#m3101a4993b" x="50.22" y="200.050958" style="fill: #9b5de5; stroke: #9b5de5"/>
     <use xlink:href="#m3101a4993b" x="103.984519" y="192.242807" style="fill: #9b5de5; stroke: #9b5de5"/>
     <use xlink:href="#m3101a4993b" x="106.154719" y="194.845524" style="fill: #9b5de5; stroke: #9b5de5"/>
     <use xlink:href="#m3101a4993b" x="110.589183" y="196.927698" style="fill: #9b5de5; stroke: #9b5de5"/>
     <use xlink:href="#m3101a4993b" x="145.319101" y="199.009871" style="fill: #9b5de5; stroke: #9b5de5"/>
     <use xlink:href="#m3101a4993b" x="189.052324" y="172.462157" style="fill: #9b5de5; stroke: #9b5de5"/>
     <use xlink:href="#m3101a4993b" x="233.773224" y="115.722925" style="fill: #9b5de5; stroke: #9b5de5"/>
     <use xlink:href="#m3101a4993b" x="278.870381" y="118.325642" style="fill: #9b5de5; stroke: #9b5de5"/>
     <use xlink:href="#m3101a4993b" x="302.890395" y="170.379983" style="fill: #9b5de5; stroke: #9b5de5"/>
     <use xlink:href="#m3101a4993b" x="327.360575" y="172.462157" style="fill: #9b5de5; stroke: #9b5de5"/>
     <use xlink:href="#m3101a4993b" x="351.629188" y="172.982701" style="fill: #9b5de5; stroke: #9b5de5"/>
     <use xlink:href="#m3101a4993b" x="403.404917" y="170.900527" style="fill: #9b5de5; stroke: #9b5de5"/>
     <use xlink:href="#m3101a4993b" x="488.660851" y="190.681177" style="fill: #9b5de5; stroke: #9b5de5"/>
     <use xlink:href="#m3101a4993b" x="548.51268" y="206.818022" style="fill: #9b5de5; stroke: #9b5de5"/>
     <use xlink:href="#m3101a4993b" x="617.22" y="194.845524" style="fill: #9b5de5; stroke: #9b5de5"/>
    </g>
   </g>
   <g id="line2d_36">
    <path d="M 50.22 133.421401 
L 103.984519 121.969446 
L 106.154719 124.05162 
L 110.589183 126.133793 
L 145.319101 155.284224 
L 189.052324 188.07846 
L 233.773224 188.599003 
L 278.870381 204.735849 
L 302.890395 203.694762 
L 327.360575 202.133132 
L 351.629188 200.050958 
L 403.404917 201.612588 
L 488.660851 185.475742 
L 548.51268 120.407816 
L 617.22 123.010533 
" clip-path="url(#p629d7fd459)" style="fill: none; stroke: #00b4b4; stroke-width: 2; stroke-linecap: square"/>
    <defs>
     <path id="m373afc848e" d="M 0 1.5 
C 0.397805 1.5 0.77937 1.341951 1.06066 1.06066 
C 1.341951 0.77937 1.5 0.397805 1.5 0 
C 1.5 -0.397805 1.341951 -0.77937 1.06066 -1.06066 
C 0.77937 -1.341951 0.397805 -1.5 0 -1.5 
C -0.397805 -1.5 -0.77937 -1.341951 -1.06066 -1.06066 
C -1.341951 -0.77937 -1.5 -0.397805 -1.5 0 
C -1.5 0.397805 -1.341951 0.77937 -1.06066 1.06066 
C -0.77937 1.341951 -0.397805 1.5 0 1.5 
z
" style="stroke: #00b4b4"/>
    </defs>
    <g clip-path="url(#p629d7fd459)">
     <use xlink:href="#m373afc848e" x="50.22" y="133.421401" style="fill: #00b4b4; stroke: #00b4b4"/>
     <use xlink:href="#m373afc848e" x="103.984519" y="121.969446" style="fill: #00b4b4; stroke: #00b4b4"/>
     <use xlink:href="#m373afc848e" x="106.154719" y="124.05162" style="fill: #00b4b4; stroke: #00b4b4"/>
     <use xlink:href="#m373afc848e" x="110.589183" y="126.133793" style="fill: #00b4b4; stroke: #00b4b4"/>
     <use xlink:href="#m373afc848e" x="145.319101" y="155.284224" style="fill: #00b4b4; stroke: #00b4b4"/>
     <use xlink:href="#m373afc848e" x="189.052324" y="188.07846" style="fill: #00b4b4; stroke: #00b4b4"/>
     <use xlink:href="#m373afc848e" x="233.773224" y="188.599003" style="fill: #00b4b4; stroke: #00b4b4"/>
     <use xlink:href="#m373afc848e" x="278.870381" y="204.735849" style="fill: #00b4b4; stroke: #00b4b4"/>
     <use xlink:href="#m373afc848e" x="302.890395" y="203.694762" style="fill: #00b4b4; stroke: #00b4b4"/>
     <use xlink:href="#m373afc848e" x="327.360575" y="202.133132" style="fill: #00b4b4; stroke: #00b4b4"/>
     <use xlink:href="#m373afc848e" x="351.629188" y="200.050958" style="fill: #00b4b4; stroke: #00b4b4"/>
     <use xlink:href="#m373afc848e" x="403.404917" y="201.612588" style="fill: #00b4b4; stroke: #00b4b4"/>
     <use xlink:href="#m373afc848e" x="488.660851" y="185.475742" style="fill: #00b4b4; stroke: #00b4b4"/>
     <use xlink:href="#m373afc848e" x="548.51268" y="120.407816" style="fill: #00b4b4; stroke: #00b4b4"/>
     <use xlink:href="#m373afc848e" x="617.22" y="123.010533" style="fill: #00b4b4; stroke: #00b4b4"/>
    </g>
   </g>
   <g id="line2d_37">
    <path d="M 50.22 135.503575 
L 103.984519 139.667922 
L 106.154719 142.791183 
L 110.589183 141.750096 
L 145.319101 173.503244 
L 189.052324 153.722594 
L 233.773224 154.243138 
L 278.870381 145.3939 
L 302.890395 145.3939 
L 327.360575 143.311726 
L 351.629188 139.147379 
L 403.404917 141.229552 
L 488.660851 155.804768 
L 548.51268 111.038034 
L 617.22 137.585748 
" clip-path="url(#p629d7fd459)" style="fill: none; stroke: #e0b400; stroke-width: 2; stroke-linecap: square"/>
    <defs>
     <path id="m38334313ed" d="M 0 1.5 
C 0.397805 1.5 0.77937 1.341951 1.06066 1.06066 
C 1.341951 0.77937 1.5 0.397805 1.5 0 
C 1.5 -0.397805 1.341951 -0.77937 1.06066 -1.06066 
C 0.77937 -1.341951 0.397805 -1.5 0 -1.5 
C -0.397805 -1.5 -0.77937 -1.341951 -1.06066 -1.06066 
C -1.341951 -0.77937 -1.5 -0.397805 -1.5 0 
C -1.5 0.397805 -1.341951 0.77937 -1.06066 1.06066 
C -0.77937 1.341951 -0.397805 1.5 0 1.5 
z
" style="stroke: #e0b400"/>
    </defs>
    <g clip-path="url(#p629d7fd459)">
     <use xlink:href="#m38334313ed" x="50.22" y="135.503575" style="fill: #e0b400; stroke: #e0b400"/>
     <use xlink:href="#m38334313ed" x="103.984519" y="139.667922" style="fill: #e0b400; stroke: #e0b400"/>
     <use xlink:href="#m38334313ed" x="106.154719" y="142.791183" style="fill: #e0b400; stroke: #e0b400"/>
     <use xlink:href="#m38334313ed" x="110.589183" y="141.750096" style="fill: #e0b400; stroke: #e0b400"/>
     <use xlink:href="#m38334313ed" x="145.319101" y="173.503244" style="fill: #e0b400; stroke: #e0b400"/>
     <use xlink:href="#m38334313ed" x="189.052324" y="153.722594" style="fill: #e0b400; stroke: #e0b400"/>
     <use xlink:href="#m38334313ed" x="233.773224" y="154.243138" style="fill: #e0b400; stroke: #e0b400"/>
     <use xlink:href="#m38334313ed" x="278.870381" y="145.3939" style="fill: #e0b400; stroke: #e0b400"/>
     <use xlink:href="#m38334313ed" x="302.890395" y="145.3939" style="fill: #e0b400; stroke: #e0b400"/>
     <use xlink:href="#m38334313ed" x="327.360575" y="143.311726" style="fill: #e0b400; stroke: #e0b400"/>
     <use xlink:href="#m38334313ed" x="351.629188" y="139.147379" style="fill: #e0b400; stroke: #e0b400"/>
     <use xlink:href="#m38334313ed" x="403.404917" y="141.229552" style="fill: #e0b400; stroke: #e0b400"/>
     <use xlink:href="#m38334313ed" x="488.660851" y="155.804768" style="fill: #e0b400; stroke: #e0b400"/>
     <use xlink:href="#m38334313ed" x="548.51268" y="111.038034" style="fill: #e0b400; stroke: #e0b400"/>
     <use xlink:href="#m38334313ed" x="617.22" y="137.585748" style="fill: #e0b400; stroke: #e0b400"/>
    </g>
   </g>
   <g id="line2d_38">
    <path d="M 50.22 177.667591 
L 103.984519 171.941614 
L 106.154719 173.503244 
L 110.589183 172.462157 
L 145.319101 183.393569 
L 189.052324 163.612919 
L 233.773224 146.434986 
L 278.870381 100.106623 
L 302.890395 83.969777 
L 327.360575 59.504236 
L 351.629188 61.065867 
L 403.404917 52.216628 
L 488.660851 91.777928 
L 548.51268 180.790852 
L 617.22 183.393569 
" clip-path="url(#p629d7fd459)" style="fill: none; stroke: #e05299; stroke-width: 2; stroke-linecap: square"/>
    <defs>
     <path id="m36d823098b" d="M 0 1.5 
C 0.397805 1.5 0.77937 1.341951 1.06066 1.06066 
C 1.341951 0.77937 1.5 0.397805 1.5 0 
C 1.5 -0.397805 1.341951 -0.77937 1.06066 -1.06066 
C 0.77937 -1.341951 0.397805 -1.5 0 -1.5 
C -0.397805 -1.5 -0.77937 -1.341951 -1.06066 -1.06066 
C -1.341951 -0.77937 -1.5 -0.397805 -1.5 0 
C -1.5 0.397805 -1.341951 0.77937 -1.06066 1.06066 
C -0.77937 1.341951 -0.397805 1.5 0 1.5 
z
" style="stroke: #e05299"/>
    </defs>
    <g clip-path="url(#p629d7fd459)">
     <use xlink:href="#m36d823098b" x="50.22" y="177.667591" style="fill: #e05299; stroke: #e05299"/>
     <use xlink:href="#m36d823098b" x="103.984519" y="171.941614" style="fill: #e05299; stroke: #e05299"/>
     <use xlink:href="#m36d823098b" x="106.154719" y="173.503244" style="fill: #e05299; stroke: #e05299"/>
     <use xlink:href="#m36d823098b" x="110.589183" y="172.462157" style="fill: #e05299; stroke: #e05299"/>
     <use xlink:href="#m36d823098b" x="145.319101" y="183.393569" style="fill: #e05299; stroke: #e05299"/>
     <use xlink:href="#m36d823098b" x="189.052324" y="163.612919" style="fill: #e05299; stroke: #e05299"/>
     <use xlink:href="#m36d823098b" x="233.773224" y="146.434986" style="fill: #e05299; stroke: #e05299"/>
     <use xlink:href="#m36d823098b" x="278.870381" y="100.106623" style="fill: #e05299; stroke: #e05299"/>
     <use xlink:href="#m36d823098b" x="302.890395" y="83.969777" style="fill: #e05299; stroke: #e05299"/>
     <use xlink:href="#m36d823098b" x="327.360575" y="59.504236" style="fill: #e05299; stroke: #e05299"/>
     <use xlink:href="#m36d823098b" x="351.629188" y="61.065867" style="fill: #e05299; stroke: #e05299"/>
     <use xlink:href="#m36d823098b" x="403.404917" y="52.216628" style="fill: #e05299; stroke: #e05299"/>
     <use xlink:href="#m36d823098b" x="488.660851" y="91.777928" style="fill: #e05299; stroke: #e05299"/>
     <use xlink:href="#m36d823098b" x="548.51268" y="180.790852" style="fill: #e05299; stroke: #e05299"/>
     <use xlink:href="#m36d823098b" x="617.22" y="183.393569" style="fill: #e05299; stroke: #e05299"/>
    </g>
   </g>
   <g id="line2d_39">
    <path d="M 50.22 122.489989 
L 103.984519 147.996617 
L 106.154719 149.037703 
L 110.589183 152.160964 
L 145.319101 187.557916 
L 189.052324 203.694762 
L 233.773224 190.160633 
L 278.870381 186.516829 
L 302.890395 177.147048 
L 327.360575 163.612919 
L 351.629188 161.530745 
L 403.404917 156.845855 
L 488.660851 158.407485 
L 548.51268 124.05162 
L 617.22 133.421401 
" clip-path="url(#p629d7fd459)" style="fill: none; stroke: #8a6d3b; stroke-width: 2; stroke-linecap: square"/>
    <defs>
     <path id="m3e75491db9" d="M 0 1.5 
C 0.397805 1.5 0.77937 1.341951 1.06066 1.06066 
C 1.341951 0.77937 1.5 0.397805 1.5 0 
C 1.5 -0.397805 1.341951 -0.77937 1.06066 -1.06066 
C 0.77937 -1.341951 0.397805 -1.5 0 -1.5 
C -0.397805 -1.5 -0.77937 -1.341951 -1.06066 -1.06066 
C -1.341951 -0.77937 -1.5 -0.397805 -1.5 0 
C -1.5 0.397805 -1.341951 0.77937 -1.06066 1.06066 
C -0.77937 1.341951 -0.397805 1.5 0 1.5 
z
" style="stroke: #8a6d3b"/>
    </defs>
    <g clip-path="url(#p629d7fd459)">
     <use xlink:href="#m3e75491db9" x="50.22" y="122.489989" style="fill: #8a6d3b; stroke: #8a6d3b"/>
     <use xlink:href="#m3e75491db9" x="103.984519" y="147.996617" style="fill: #8a6d3b; stroke: #8a6d3b"/>
     <use xlink:href="#m3e75491db9" x="106.154719" y="149.037703" style="fill: #8a6d3b; stroke: #8a6d3b"/>
     <use xlink:href="#m3e75491db9" x="110.589183" y="152.160964" style="fill: #8a6d3b; stroke: #8a6d3b"/>
     <use xlink:href="#m3e75491db9" x="145.319101" y="187.557916" style="fill: #8a6d3b; stroke: #8a6d3b"/>
     <use xlink:href="#m3e75491db9" x="189.052324" y="203.694762" style="fill: #8a6d3b; stroke: #8a6d3b"/>
     <use xlink:href="#m3e75491db9" x="233.773224" y="190.160633" style="fill: #8a6d3b; stroke: #8a6d3b"/>
     <use xlink:href="#m3e75491db9" x="278.870381" y="186.516829" style="fill: #8a6d3b; stroke: #8a6d3b"/>
     <use xlink:href="#m3e75491db9" x="302.890395" y="177.147048" style="fill: #8a6d3b; stroke: #8a6d3b"/>
     <use xlink:href="#m3e75491db9" x="327.360575" y="163.612919" style="fill: #8a6d3b; stroke: #8a6d3b"/>
     <use xlink:href="#m3e75491db9" x="351.629188" y="161.530745" style="fill: #8a6d3b; stroke: #8a6d3b"/>
     <use xlink:href="#m3e75491db9" x="403.404917" y="156.845855" style="fill: #8a6d3b; stroke: #8a6d3b"/>
     <use xlink:href="#m3e75491db9" x="488.660851" y="158.407485" style="fill: #8a6d3b; stroke: #8a6d3b"/>
     <use xlink:href="#m3e75491db9" x="548.51268" y="124.05162" style="fill: #8a6d3b; stroke: #8a6d3b"/>
     <use xlink:href="#m3e75491db9" x="617.22" y="133.421401" style="fill: #8a6d3b; stroke: #8a6d3b"/>
    </g>
   </g>
   <g id="patch_3">
    <path d="M 38.88 212.544 
L 628.56 212.544 
" style="fill: none; stroke: #e1e0d9; stroke-width: 0.8; stroke-linejoin: miter; stroke-linecap: square"/>
   </g>
   <g id="text_16">
    <!-- Electrical bikes available by arrondissement — last 24 hours -->
    <g style="fill: #c2c2c2" transform="translate(38.88 24.288) scale(0.13 -0.13)">
     <defs>
      <path id="DejaVuSans-Bold-28" d="M 588 4666 
L 3834 4666 
L 3834 3756 
L 1791 3756 
L 1791 2888 
L 3713 2888 
L 3713 1978 
L 1791 1978 
L 1791 909 
L 3903 909 
L 3903 0 
L 588 0 
L 588 4666 
z
" transform="scale(0.015625)"/>
      <path id="DejaVuSans-Bold-4f" d="M 538 4863 
L 1656 4863 
L 1656 0 
L 538 0 
L 538 4863 
z
" transform="scale(0.015625)"/>
      <path id="DejaVuSans-Bold-48" d="M 4031 1759 
L 4031 1441 
L 1416 1441 
Q 1456 1047 1700 850 
Q 1944 653 2381 653 
Q 2734 653 3104 758 
Q 3475 863 3866 1075 
L 3866 213 
Q 3469 63 3072 -14 
Q 2675 -91 2278 -91 
Q 1328 -91 801 392 
Q 275 875 275 1747 
Q 275 2603 792 3093 
Q 1309 3584 2216 3584 
Q 3041 3584 3536 3087 
Q 4031 2591 4031 1759 
z
M 2881 2131 
Q 2881 2450 2695 2645 
Q 2509 2841 2209 2841 
Q 1884 2841 1681 2658 
Q 1478 2475 1428 2131 
L 2881 2131 
z
" transform="scale(0.015625)"/>
      <path id="DejaVuSans-Bold-46" d="M 3366 3391 
L 3366 2478 
Q 3138 2634 2908 2709 
Q 2678 2784 2431 2784 
Q 1963 2784 1702 2511 
Q 1441 2238 1441 1747 
Q 1441 1256 1702 982 
Q 1963 709 2431 709 
Q 2694 709 2930 787 
Q 3166 866 3366 1019 
L 3366 103 
Q 3103 6 2833 -42 
Q 2563 -91 2291 -91 
Q 1344 -91 809 395 
Q 275 881 275 1747 
Q 275 2613 809 3098 
Q 1344 3584 2291 3584 
Q 2566 3584 2833 3536 
Q 3100 3488 3366 3391 
z
" transform="scale(0.015625)"/>
      <path id="DejaVuSans-Bold-57" d="M 1759 4494 
L 1759 3500 
L 2913 3500 
L 2913 2700 
L 1759 2700 
L 1759 1216 
Q 1759 972 1856 886 
Q 1953 800 2241 800 
L 2816 800 
L 2816 0 
L 1856 0 
Q 1194 0 917 276 
Q 641 553 641 1216 
L 641 2700 
L 84 2700 
L 84 3500 
L 641 3500 
L 641 4494 
L 1759 4494 
z
" transform="scale(0.015625)"/>
      <path id="DejaVuSans-Bold-55" d="M 3138 2547 
Q 2991 2616 2845 2648 
Q 2700 2681 2553 2681 
Q 2122 2681 1889 2404 
Q 1656 2128 1656 1613 
L 1656 0 
L 538 0 
L 538 3500 
L 1656 3500 
L 1656 2925 
Q 1872 3269 2151 3426 
Q 2431 3584 2822 3584 
Q 2878 3584 2943 3579 
Q 3009 3575 3134 3559 
L 3138 2547 
z
" transform="scale(0.015625)"/>
      <path id="DejaVuSans-Bold-4c" d="M 538 3500 
L 1656 3500 
L 1656 0 
L 538 0 
L 538 3500 
z
M 538 4863 
L 1656 4863 
L 1656 3950 
L 538 3950 
L 538 4863 
z
" transform="scale(0.015625)"/>
      <path id="DejaVuSans-Bold-44" d="M 2106 1575 
Q 1756 1575 1579 1456 
Q 1403 1338 1403 1106 
Q 1403 894 1545 773 
Q 1688 653 1941 653 
Q 2256 653 2472 879 
Q 2688 1106 2688 1447 
L 2688 1575 
L 2106 1575 
z
M 3816 1997 
L 3816 0 
L 2688 0 
L 2688 519 
Q 2463 200 2181 54 
Q 1900 -91 1497 -91 
Q 953 -91 614 226 
Q 275 544 275 1050 
Q 275 1666 698 1953 
Q 1122 2241 2028 2241 
L 2688 2241 
L 2688 2328 
Q 2688 2594 2478 2717 
Q 2269 2841 1825 2841 
Q 1466 2841 1156 2769 
Q 847 2697 581 2553 
L 581 3406 
Q 941 3494 1303 3539 
Q 1666 3584 2028 3584 
Q 2975 3584 3395 3211 
Q 3816 2838 3816 1997 
z
" transform="scale(0.015625)"/>
      <path id="DejaVuSans-Bold-3" transform="scale(0.015625)"/>
      <path id="DejaVuSans-Bold-45" d="M 2400 722 
Q 2759 722 2948 984 
Q 3138 1247 3138 1747 
Q 3138 2247 2948 2509 
Q 2759 2772 2400 2772 
Q 2041 2772 1848 2508 
Q 1656 2244 1656 1747 
Q 1656 1250 1848 986 
Q 2041 722 2400 722 
z
M 1656 2988 
Q 1888 3294 2169 3439 
Q 2450 3584 2816 3584 
Q 3463 3584 3878 3070 
Q 4294 2556 4294 1747 
Q 4294 938 3878 423 
Q 3463 -91 2816 -91 
Q 2450 -91 2169 54 
Q 1888 200 1656 506 
L 1656 0 
L 538 0 
L 538 4863 
L 1656 4863 
L 1656 2988 
z
" transform="scale(0.015625)"/>
      <path id="DejaVuSans-Bold-4e" d="M 538 4863 
L 1656 4863 
L 1656 2216 
L 2944 3500 
L 4244 3500 
L 2534 1894 
L 4378 0 
L 3022 0 
L 1656 1459 
L 1656 0 
L 538 0 
L 538 4863 
z
" transform="scale(0.015625)"/>
      <path id="DejaVuSans-Bold-56" d="M 3272 3391 
L 3272 2541 
Q 2913 2691 2578 2766 
Q 2244 2841 1947 2841 
Q 1628 2841 1473 2761 
Q 1319 2681 1319 2516 
Q 1319 2381 1436 2309 
Q 1553 2238 1856 2203 
L 2053 2175 
Q 2913 2066 3209 1816 
Q 3506 1566 3506 1031 
Q 3506 472 3093 190 
Q 2681 -91 1863 -91 
Q 1516 -91 1145 -36 
Q 775 19 384 128 
L 384 978 
Q 719 816 1070 734 
Q 1422 653 1784 653 
Q 2113 653 2278 743 
Q 2444 834 2444 1013 
Q 2444 1163 2330 1236 
Q 2216 1309 1875 1350 
L 1678 1375 
Q 931 1469 631 1722 
Q 331 1975 331 2491 
Q 331 3047 712 3315 
Q 1094 3584 1881 3584 
Q 2191 3584 2531 3537 
Q 2872 3491 3272 3391 
z
" transform="scale(0.015625)"/>
      <path id="DejaVuSans-Bold-59" d="M 97 3500 
L 1216 3500 
L 2088 1081 
L 2956 3500 
L 4078 3500 
L 2700 0 
L 1472 0 
L 97 3500 
z
" transform="scale(0.015625)"/>
      <path id="DejaVuSans-Bold-5c" d="M 78 3500 
L 1197 3500 
L 2138 1125 
L 2938 3500 
L 4056 3500 
L 2584 -331 
Q 2363 -916 2067 -1148 
Q 1772 -1381 1288 -1381 
L 641 -1381 
L 641 -647 
L 991 -647 
Q 1275 -647 1404 -556 
Q 1534 -466 1606 -231 
L 1638 -134 
L 78 3500 
z
" transform="scale(0.015625)"/>
      <path id="DejaVuSans-Bold-52" d="M 2203 2784 
Q 1831 2784 1636 2517 
Q 1441 2250 1441 1747 
Q 1441 1244 1636 976 
Q 1831 709 2203 709 
Q 2569 709 2762 976 
Q 2956 1244 2956 1747 
Q 2956 2250 2762 2517 
Q 2569 2784 2203 2784 
z
M 2203 3584 
Q 3106 3584 3614 3096 
Q 4122 2609 4122 1747 
Q 4122 884 3614 396 
Q 3106 -91 2203 -91 
Q 1297 -91 786 396 
Q 275 884 275 1747 
Q 275 2609 786 3096 
Q 1297 3584 2203 3584 
z
" transform="scale(0.015625)"/>
      <path id="DejaVuSans-Bold-51" d="M 4056 2131 
L 4056 0 
L 2931 0 
L 2931 347 
L 2931 1631 
Q 2931 2084 2911 2256 
Q 2891 2428 2841 2509 
Q 2775 2619 2662 2680 
Q 2550 2741 2406 2741 
Q 2056 2741 1856 2470 
Q 1656 2200 1656 1722 
L 1656 0 
L 538 0 
L 538 3500 
L 1656 3500 
L 1656 2988 
Q 1909 3294 2193 3439 
Q 2478 3584 2822 3584 
Q 3428 3584 3742 3212 
Q 4056 2841 4056 2131 
z
" transform="scale(0.015625)"/>
      <path id="DejaVuSans-Bold-47" d="M 2919 2988 
L 2919 4863 
L 4044 4863 
L 4044 0 
L 2919 0 
L 2919 506 
Q 2688 197 2409 53 
Q 2131 -91 1766 -91 
Q 1119 -91 703 423 
Q 288 938 288 1747 
Q 288 2556 703 3070 
Q 1119 3584 1766 3584 
Q 2128 3584 2408 3439 
Q 2688 3294 2919 2988 
z
M 2181 722 
Q 2541 722 2730 984 
Q 2919 1247 2919 1747 
Q 2919 2247 2730 2509 
Q 2541 2772 2181 2772 
Q 1825 2772 1636 2509 
Q 1447 2247 1447 1747 
Q 1447 1247 1636 984 
Q 1825 722 2181 722 
z
" transform="scale(0.015625)"/>
      <path id="DejaVuSans-Bold-50" d="M 3781 2919 
Q 3994 3244 4286 3414 
Q 4578 3584 4928 3584 
Q 5531 3584 5847 3212 
Q 6163 2841 6163 2131 
L 6163 0 
L 5038 0 
L 5038 1825 
Q 5041 1866 5042 1909 
Q 5044 1953 5044 2034 
Q 5044 2406 4934 2573 
Q 4825 2741 4581 2741 
Q 4263 2741 4089 2478 
Q 3916 2216 3909 1719 
L 3909 0 
L 2784 0 
L 2784 1825 
Q 2784 2406 2684 2573 
Q 2584 2741 2328 2741 
Q 2006 2741 1831 2477 
Q 1656 2213 1656 1722 
L 1656 0 
L 531 0 
L 531 3500 
L 1656 3500 
L 1656 2988 
Q 1863 3284 2130 3434 
Q 2397 3584 2719 3584 
Q 3081 3584 3359 3409 
Q 3638 3234 3781 2919 
z
" transform="scale(0.015625)"/>
      <path id="DejaVuSans-Bold-af6" d="M 344 2156 
L 6056 2156 
L 6056 1350 
L 344 1350 
L 344 2156 
z
" transform="scale(0.015625)"/>
      <path id="DejaVuSans-Bold-15" d="M 1844 884 
L 3897 884 
L 3897 0 
L 506 0 
L 506 884 
L 2209 2388 
Q 2438 2594 2547 2791 
Q 2656 2988 2656 3200 
Q 2656 3528 2436 3728 
Q 2216 3928 1850 3928 
Q 1569 3928 1234 3808 
Q 900 3688 519 3450 
L 519 4475 
Q 925 4609 1322 4679 
Q 1719 4750 2100 4750 
Q 2938 4750 3402 4381 
Q 3866 4013 3866 3353 
Q 3866 2972 3669 2642 
Q 3472 2313 2841 1759 
L 1844 884 
z
" transform="scale(0.015625)"/>
      <path id="DejaVuSans-Bold-17" d="M 2356 3675 
L 1038 1722 
L 2356 1722 
L 2356 3675 
z
M 2156 4666 
L 3494 4666 
L 3494 1722 
L 4159 1722 
L 4159 850 
L 3494 850 
L 3494 0 
L 2356 0 
L 2356 850 
L 288 850 
L 288 1881 
L 2156 4666 
z
" transform="scale(0.015625)"/>
      <path id="DejaVuSans-Bold-4b" d="M 4056 2131 
L 4056 0 
L 2931 0 
L 2931 347 
L 2931 1625 
Q 2931 2084 2911 2256 
Q 2891 2428 2841 2509 
Q 2775 2619 2662 2680 
Q 2550 2741 2406 2741 
Q 2056 2741 1856 2470 
Q 1656 2200 1656 1722 
L 1656 0 
L 538 0 
L 538 4863 
L 1656 4863 
L 1656 2988 
Q 1909 3294 2193 3439 
Q 2478 3584 2822 3584 
Q 3428 3584 3742 3212 
Q 4056 2841 4056 2131 
z
" transform="scale(0.015625)"/>
      <path id="DejaVuSans-Bold-58" d="M 500 1363 
L 500 3500 
L 1625 3500 
L 1625 3150 
Q 1625 2866 1622 2436 
Q 1619 2006 1619 1863 
Q 1619 1441 1641 1255 
Q 1663 1069 1716 984 
Q 1784 875 1895 815 
Q 2006 756 2150 756 
Q 2500 756 2700 1025 
Q 2900 1294 2900 1772 
L 2900 3500 
L 4019 3500 
L 4019 0 
L 2900 0 
L 2900 506 
Q 2647 200 2364 54 
Q 2081 -91 1741 -91 
Q 1134 -91 817 281 
Q 500 653 500 1363 
z
" transform="scale(0.015625)"/>
     </defs>
     <use xlink:href="#DejaVuSans-Bold-28"/>
     <use xlink:href="#DejaVuSans-Bold-4f" transform="translate(68.3125 0)"/>
     <use xlink:href="#DejaVuSans-Bold-48" transform="translate(102.59375 0)"/>
     <use xlink:href="#DejaVuSans-Bold-46" transform="translate(170.421875 0)"/>
     <use xlink:href="#DejaVuSans-Bold-57" transform="translate(229.703125 0)"/>
     <use xlink:href="#DejaVuSans-Bold-55" transform="translate(277.5 0)"/>
     <use xlink:href="#DejaVuSans-Bold-4c" transform="translate(326.8125 0)"/>
     <use xlink:href="#DejaVuSans-Bold-46" transform="translate(361.09375 0)"/>
     <use xlink:href="#DejaVuSans-Bold-44" transform="translate(420.375 0)"/>
     <use xlink:href="#DejaVuSans-Bold-4f" transform="translate(487.859375 0)"/>
     <use xlink:href="#DejaVuSans-Bold-3" transform="translate(522.140625 0)"/>
     <use xlink:href="#DejaVuSans-Bold-45" transform="translate(556.953125 0)"/>
     <use xlink:href="#DejaVuSans-Bold-4c" transform="translate(628.53125 0)"/>
     <use xlink:href="#DejaVuSans-Bold-4e" transform="translate(662.8125 0)"/>
     <use xlink:href="#DejaVuSans-Bold-48" transform="translate(726.625 0)"/>
     <use xlink:href="#DejaVuSans-Bold-56" transform="translate(794.453125 0)"/>
     <use xlink:href="#DejaVuSans-Bold-3" transform="translate(853.96875 0)"/>
     <use xlink:href="#DejaVuSans-Bold-44" transform="translate(888.78125 0)"/>
     <use xlink:href="#DejaVuSans-Bold-59" transform="translate(956.265625 0)"/>
     <use xlink:href="#DejaVuSans-Bold-44" transform="translate(1021.453125 0)"/>
     <use xlink:href="#DejaVuSans-Bold-4c" transform="translate(1088.9375 0)"/>
     <use xlink:href="#DejaVuSans-Bold-4f" transform="translate(1123.21875 0)"/>
     <use xlink:href="#DejaVuSans-Bold-44" transform="translate(1157.5 0)"/>
     <use xlink:href="#DejaVuSans-Bold-45" transform="translate(1224.984375 0)"/>
     <use xlink:href="#DejaVuSans-Bold-4f" transform="translate(1296.5625 0)"/>
     <use xlink:href="#DejaVuSans-Bold-48" transform="translate(1330.84375 0)"/>
     <use xlink:href="#DejaVuSans-Bold-3" transform="translate(1398.671875 0)"/>
     <use xlink:href="#DejaVuSans-Bold-45" transform="translate(1433.484375 0)"/>
     <use xlink:href="#DejaVuSans-Bold-5c" transform="translate(1505.0625 0)"/>
     <use xlink:href="#DejaVuSans-Bold-3" transform="translate(1570.25 0)"/>
     <use xlink:href="#DejaVuSans-Bold-44" transform="translate(1605.0625 0)"/>
     <use xlink:href="#DejaVuSans-Bold-55" transform="translate(1672.546875 0)"/>
     <use xlink:href="#DejaVuSans-Bold-55" transform="translate(1721.859375 0)"/>
     <use xlink:href="#DejaVuSans-Bold-52" transform="translate(1771.171875 0)"/>
     <use xlink:href="#DejaVuSans-Bold-51" transform="translate(1839.875 0)"/>
     <use xlink:href="#DejaVuSans-Bold-47" transform="translate(1911.0625 0)"/>
     <use xlink:href="#DejaVuSans-Bold-4c" transform="translate(1982.640625 0)"/>
     <use xlink:href="#DejaVuSans-Bold-56" transform="translate(2016.921875 0)"/>
     <use xlink:href="#DejaVuSans-Bold-56" transform="translate(2076.4375 0)"/>
     <use xlink:href="#DejaVuSans-Bold-48" transform="translate(2135.953125 0)"/>
     <use xlink:href="#DejaVuSans-Bold-50" transform="translate(2203.78125 0)"/>
     <use xlink:href="#DejaVuSans-Bold-48" transform="translate(2307.984375 0)"/>
     <use xlink:href="#DejaVuSans-Bold-51" transform="translate(2375.8125 0)"/>
     <use xlink:href="#DejaVuSans-Bold-57" transform="translate(2447 0)"/>
     <use xlink:href="#DejaVuSans-Bold-3" transform="translate(2494.796875 0)"/>
     <use xlink:href="#DejaVuSans-Bold-af6" transform="translate(2529.609375 0)"/>
     <use xlink:href="#DejaVuSans-Bold-3" transform="translate(2629.609375 0)"/>
     <use xlink:href="#DejaVuSans-Bold-4f" transform="translate(2664.421875 0)"/>
     <use xlink:href="#DejaVuSans-Bold-44" transform="translate(2698.703125 0)"/>
     <use xlink:href="#DejaVuSans-Bold-56" transform="translate(2766.1875 0)"/>
     <use xlink:href="#DejaVuSans-Bold-57" transform="translate(2825.703125 0)"/>
     <use xlink:href="#DejaVuSans-Bold-3" transform="translate(2873.5 0)"/>
     <use xlink:href="#DejaVuSans-Bold-15" transform="translate(2908.3125 0)"/>
     <use xlink:href="#DejaVuSans-Bold-17" transform="translate(2977.890625 0)"/>
     <use xlink:href="#DejaVuSans-Bold-3" transform="translate(3047.46875 0)"/>
     <use xlink:href="#DejaVuSans-Bold-4b" transform="translate(3082.28125 0)"/>
     <use xlink:href="#DejaVuSans-Bold-52" transform="translate(3153.46875 0)"/>
     <use xlink:href="#DejaVuSans-Bold-58" transform="translate(3222.171875 0)"/>
     <use xlink:href="#DejaVuSans-Bold-55" transform="translate(3293.359375 0)"/>
     <use xlink:href="#DejaVuSans-Bold-56" transform="translate(3342.671875 0)"/>
    </g>
   </g>
   <g id="legend_1">
    <g id="line2d_40">
     <path d="M 46.98 48.076594 
L 53.28 48.076594 
L 59.58 48.076594 
" style="fill: none; stroke: #2a78d6; stroke-width: 2; stroke-linecap: square"/>
     <g>
      <use xlink:href="#m6cd093c228" x="53.28" y="48.076594" style="fill: #2a78d6; stroke: #2a78d6"/>
     </g>
    </g>
    <g id="text_17">
     <!-- 1e -->
     <g style="fill: #c2c2c2" transform="translate(66.78 51.226594) scale(0.09 -0.09)">
      <defs>
       <path id="DejaVuSans-48" d="M 3597 1894 
L 3597 1613 
L 953 1613 
Q 991 1019 1311 708 
Q 1631 397 2203 397 
Q 2534 397 2845 478 
Q 3156 559 3463 722 
L 3463 178 
Q 3153 47 2828 -22 
Q 2503 -91 2169 -91 
Q 1331 -91 842 396 
Q 353 884 353 1716 
Q 353 2575 817 3079 
Q 1281 3584 2069 3584 
Q 2775 3584 3186 3129 
Q 3597 2675 3597 1894 
z
M 3022 2063 
Q 3016 2534 2758 2815 
Q 2500 3097 2075 3097 
Q 1594 3097 1305 2825 
Q 1016 2553 972 2059 
L 3022 2063 
z
" transform="scale(0.015625)"/>
      </defs>
      <use xlink:href="#DejaVuSans-14"/>
      <use xlink:href="#DejaVuSans-48" transform="translate(63.625 0)"/>
     </g>
    </g>
    <g id="line2d_41">
     <path d="M 86.144062 48.076594 
L 92.444062 48.076594 
L 98.744062 48.076594 
" style="fill: none; stroke: #eb6834; stroke-width: 2; stroke-linecap: square"/>
     <g>
      <use xlink:href="#m1a3872c379" x="92.444062" y="48.076594" style="fill: #eb6834; stroke: #eb6834"/>
     </g>
    </g>
    <g id="text_18">
     <!-- 2e -->
     <g style="fill: #c2c2c2" transform="translate(105.944062 51.226594) scale(0.09 -0.09)">
      <use xlink:href="#DejaVuSans-15"/>
      <use xlink:href="#DejaVuSans-48" transform="translate(63.625 0)"/>
     </g>
    </g>
    <g id="line2d_42">
     <path d="M 125.308125 48.076594 
L 131.608125 48.076594 
L 137.908125 48.076594 
" style="fill: none; stroke: #007f1c; stroke-width: 2; stroke-linecap: square"/>
     <g>
      <use xlink:href="#m8f6a73e94e" x="131.608125" y="48.076594" style="fill: #007f1c; stroke: #007f1c"/>
     </g>
    </g>
    <g id="text_19">
     <!-- 3e -->
     <g style="fill: #c2c2c2" transform="translate(145.108125 51.226594) scale(0.09 -0.09)">
      <use xlink:href="#DejaVuSans-16"/>
      <use xlink:href="#DejaVuSans-48" transform="translate(63.625 0)"/>
     </g>
    </g>
    <g id="line2d_43">
     <path d="M 164.472187 48.076594 
L 170.772188 48.076594 
L 177.072187 48.076594 
" style="fill: none; stroke: #d03b3b; stroke-width: 2; stroke-linecap: square"/>
     <g>
      <use xlink:href="#m696614d999" x="170.772188" y="48.076594" style="fill: #d03b3b; stroke: #d03b3b"/>
     </g>
    </g>
    <g id="text_20">
     <!-- 4e -->
     <g style="fill: #c2c2c2" transform="translate(184.272188 51.226594) scale(0.09 -0.09)">
      <defs>
       <path id="DejaVuSans-17" d="M 2419 4116 
L 825 1625 
L 2419 1625 
L 2419 4116 
z
M 2253 4666 
L 3047 4666 
L 3047 1625 
L 3713 1625 
L 3713 1100 
L 3047 1100 
L 3047 0 
L 2419 0 
L 2419 1100 
L 313 1100 
L 313 1709 
L 2253 4666 
z
" transform="scale(0.015625)"/>
      </defs>
      <use xlink:href="#DejaVuSans-17"/>
      <use xlink:href="#DejaVuSans-48" transform="translate(63.625 0)"/>
     </g>
    </g>
    <g id="line2d_44">
     <path d="M 203.63625 48.076594 
L 209.93625 48.076594 
L 216.23625 48.076594 
" style="fill: none; stroke: #9b5de5; stroke-width: 2; stroke-linecap: square"/>
     <g>
      <use xlink:href="#m3101a4993b" x="209.93625" y="48.076594" style="fill: #9b5de5; stroke: #9b5de5"/>
     </g>
    </g>
    <g id="text_21">
     <!-- 5e -->
     <g style="fill: #c2c2c2" transform="translate(223.43625 51.226594) scale(0.09 -0.09)">
      <use xlink:href="#DejaVuSans-18"/>
      <use xlink:href="#DejaVuSans-48" transform="translate(63.625 0)"/>
     </g>
    </g>
    <g id="line2d_45">
     <path d="M 242.800312 48.076594 
L 249.100313 48.076594 
L 255.400312 48.076594 
" style="fill: none; stroke: #00b4b4; stroke-width: 2; stroke-linecap: square"/>
     <g>
      <use xlink:href="#m373afc848e" x="249.100313" y="48.076594" style="fill: #00b4b4; stroke: #00b4b4"/>
     </g>
    </g>
    <g id="text_22">
     <!-- 6e -->
     <g style="fill: #c2c2c2" transform="translate(262.600312 51.226594) scale(0.09 -0.09)">
      <use xlink:href="#DejaVuSans-19"/>
      <use xlink:href="#DejaVuSans-48" transform="translate(63.625 0)"/>
     </g>
    </g>
    <g id="line2d_46">
     <path d="M 281.964375 48.076594 
L 288.264375 48.076594 
L 294.564375 48.076594 
" style="fill: none; stroke: #e0b400; stroke-width: 2; stroke-linecap: square"/>
     <g>
      <use xlink:href="#m38334313ed" x="288.264375" y="48.076594" style="fill: #e0b400; stroke: #e0b400"/>
     </g>
    </g>
    <g id="text_23">
     <!-- 7e -->
     <g style="fill: #c2c2c2" transform="translate(301.764375 51.226594) scale(0.09 -0.09)">
      <use xlink:href="#DejaVuSans-1a"/>
      <use xlink:href="#DejaVuSans-48" transform="translate(63.625 0)"/>
     </g>
    </g>
    <g id="line2d_47">
     <path d="M 321.128438 48.076594 
L 327.428438 48.076594 
L 333.728438 48.076594 
" style="fill: none; stroke: #e05299; stroke-width: 2; stroke-linecap: square"/>
     <g>
      <use xlink:href="#m36d823098b" x="327.428438" y="48.076594" style="fill: #e05299; stroke: #e05299"/>
     </g>
    </g>
    <g id="text_24">
     <!-- 8e -->
     <g style="fill: #c2c2c2" transform="translate(340.928438 51.226594) scale(0.09 -0.09)">
      <use xlink:href="#DejaVuSans-1b"/>
      <use xlink:href="#DejaVuSans-48" transform="translate(63.625 0)"/>
     </g>
    </g>
    <g id="line2d_48">
     <path d="M 360.2925 48.076594 
L 366.5925 48.076594 
L 372.8925 48.076594 
" style="fill: none; stroke: #8a6d3b; stroke-width: 2; stroke-linecap: square"/>
     <g>
      <use xlink:href="#m3e75491db9" x="366.5925" y="48.076594" style="fill: #8a6d3b; stroke: #8a6d3b"/>
     </g>
    </g>
    <g id="text_25">
     <!-- 9e -->
     <g style="fill: #c2c2c2" transform="translate(380.0925 51.226594) scale(0.09 -0.09)">
      <use xlink:href="#DejaVuSans-1c"/>
      <use xlink:href="#DejaVuSans-48" transform="translate(63.625 0)"/>
     </g>
    </g>
   </g>
  </g>
 </g>
 <defs>
  <clipPath id="p629d7fd459">
   <rect x="38.88" y="36.288" width="589.68" height="176.256"/>
  </clipPath>
 </defs>
</svg>
