<?xml version="1.0" encoding="utf-8" standalone="no"?>
<!DOCTYPE svg PUBLIC "-//W3C//DTD SVG 1.1//EN"
  "http://www.w3.org/Graphics/SVG/1.1/DTD/svg11.dtd">
<svg xmlns:xlink="http://www.w3.org/1999/xlink" width="648pt" height="259.2pt" viewBox="0 0 648 259.2" xmlns="http://www.w3.org/2000/svg" version="1.1">
 <metadata>
  <rdf:RDF xmlns:dc="http://purl.org/dc/elements/1.1/" xmlns:cc="http://creativecommons.org/ns#" xmlns:rdf="http://www.w3.org/1999/02/22-rdf-syntax-ns#">
   <cc:Work>
    <dc:type rdf:resource="http://purl.org/dc/dcmitype/StillImage"/>
    <dc:date>2026-07-15T20:53:57.609370</dc:date>
    <dc:format>image/svg+xml</dc:format>
    <dc:creator>
     <cc:Agent>
      <dc:title>Matplotlib v3.11.0, https://matplotlib.org/</dc:title>
     </cc:Agent>
    </dc:creator>
   </cc:Work>
  </rdf:RDF>
 </metadata>
 <defs>
  <style type="text/css">*{stroke-linejoin: round; stroke-linecap: butt}</style>
 </defs>
 <g id="figure_1">
  <g id="patch_1">
   <path d="M 0 259.2 
L 648 259.2 
L 648 0 
L 0 0 
z
" style="fill: #262626"/>
  </g>
  <g id="axes_1">
   <g id="patch_2">
    <path d="M 38.88 212.544 
L 628.56 212.544 
L 628.56 36.288 
L 38.88 36.288 
z
" style="fill: #262626"/>
   </g>
   <g id="matplotlib.axis_1">
    <g id="xtick_1">
     <g id="line2d_1">
      <path d="M 75.976612 212.544 
L 75.976612 36.288 
" clip-path="url(#pb834a08a25)" style="fill: none; stroke: #e1e0d9; stroke-width: 0.8; stroke-linecap: square"/>
     </g>
     <g id="line2d_2"/>
     <g id="text_1">
      <!-- 00h -->
      <g style="fill: #898781" transform="translate(67.398487 223.783473) scale(0.09 -0.09)">
       <defs>
        <path id="DejaVuSans-13" d="M 2034 4250 
Q 1547 4250 1301 3770 
Q 1056 3291 1056 2328 
Q 1056 1369 1301 889 
Q 1547 409 2034 409 
Q 2525 409 2770 889 
Q 3016 1369 3016 2328 
Q 3016 3291 2770 3770 
Q 2525 4250 2034 4250 
z
M 2034 4750 
Q 2819 4750 3233 4129 
Q 3647 3509 3647 2328 
Q 3647 1150 3233 529 
Q 2819 -91 2034 -91 
Q 1250 -91 836 529 
Q 422 1150 422 2328 
Q 422 3509 836 4129 
Q 1250 4750 2034 4750 
z
" transform="scale(0.015625)"/>
        <path id="DejaVuSans-4b" d="M 3513 2113 
L 3513 0 
L 2938 0 
L 2938 2094 
Q 2938 2591 2744 2837 
Q 2550 3084 2163 3084 
Q 1697 3084 1428 2787 
Q 1159 2491 1159 1978 
L 1159 0 
L 581 0 
L 581 4863 
L 1159 4863 
L 1159 2956 
Q 1366 3272 1645 3428 
Q 1925 3584 2291 3584 
Q 2894 3584 3203 3211 
Q 3513 2838 3513 2113 
z
" transform="scale(0.015625)"/>
       </defs>
       <use xlink:href="#DejaVuSans-13"/>
       <use xlink:href="#DejaVuSans-13" transform="translate(63.625 0)"/>
       <use xlink:href="#DejaVuSans-4b" transform="translate(127.25 0)"/>
      </g>
      <!-- 15/07 -->
      <g style="fill: #898781" transform="translate(63.008174 234.58523) scale(0.09 -0.09)">
       <defs>
        <path id="DejaVuSans-14" d="M 794 531 
L 1825 531 
L 1825 4091 
L 703 3866 
L 703 4441 
L 1819 4666 
L 2450 4666 
L 2450 531 
L 3481 531 
L 3481 0 
L 794 0 
L 794 531 
z
" transform="scale(0.015625)"/>
        <path id="DejaVuSans-18" d="M 691 4666 
L 3169 4666 
L 3169 4134 
L 1269 4134 
L 1269 2991 
Q 1406 3038 1543 3061 
Q 1681 3084 1819 3084 
Q 2600 3084 3056 2656 
Q 3513 2228 3513 1497 
Q 3513 744 3044 326 
Q 2575 -91 1722 -91 
Q 1428 -91 1123 -41 
Q 819 9 494 109 
L 494 744 
Q 775 591 1075 516 
Q 1375 441 1709 441 
Q 2250 441 2565 725 
Q 2881 1009 2881 1497 
Q 2881 1984 2565 2268 
Q 2250 2553 1709 2553 
Q 1456 2553 1204 2497 
Q 953 2441 691 2322 
L 691 4666 
z
" transform="scale(0.015625)"/>
        <path id="DejaVuSans-12" d="M 1625 4666 
L 2156 4666 
L 531 -594 
L 0 -594 
L 1625 4666 
z
" transform="scale(0.015625)"/>
        <path id="DejaVuSans-1a" d="M 525 4666 
L 3525 4666 
L 3525 4397 
L 1831 0 
L 1172 0 
L 2766 4134 
L 525 4134 
L 525 4666 
z
" transform="scale(0.015625)"/>
       </defs>
       <use xlink:href="#DejaVuSans-14"/>
       <use xlink:href="#DejaVuSans-18" transform="translate(63.625 0)"/>
       <use xlink:href="#DejaVuSans-12" transform="translate(127.25 0)"/>
       <use xlink:href="#DejaVuSans-13" transform="translate(160.9375 0)"/>
       <use xlink:href="#DejaVuSans-1a" transform="translate(224.5625 0)"/>
      </g>
     </g>
    </g>
    <g id="xtick_2">
     <g id="line2d_3">
      <path d="M 146.88444 212.544 
L 146.88444 36.288 
" clip-path="url(#pb834a08a25)" style="fill: none; stroke: #e1e0d9; stroke-width: 0.8; stroke-linecap: square"/>
     </g>
     <g id="line2d_4"/>
     <g id="text_2">
      <!-- 03h -->
      <g style="fill: #898781" transform="translate(138.306315 223.783473) scale(0.09 -0.09)">
       <defs>
        <path id="DejaVuSans-16" d="M 2597 2516 
Q 3050 2419 3304 2112 
Q 3559 1806 3559 1356 
Q 3559 666 3084 287 
Q 2609 -91 1734 -91 
Q 1441 -91 1130 -33 
Q 819 25 488 141 
L 488 750 
Q 750 597 1062 519 
Q 1375 441 1716 441 
Q 2309 441 2620 675 
Q 2931 909 2931 1356 
Q 2931 1769 2642 2001 
Q 2353 2234 1838 2234 
L 1294 2234 
L 1294 2753 
L 1863 2753 
Q 2328 2753 2575 2939 
Q 2822 3125 2822 3475 
Q 2822 3834 2567 4026 
Q 2313 4219 1838 4219 
Q 1578 4219 1281 4162 
Q 984 4106 628 3988 
L 628 4550 
Q 988 4650 1302 4700 
Q 1616 4750 1894 4750 
Q 2613 4750 3031 4423 
Q 3450 4097 3450 3541 
Q 3450 3153 3228 2886 
Q 3006 2619 2597 2516 
z
" transform="scale(0.015625)"/>
       </defs>
       <use xlink:href="#DejaVuSans-13"/>
       <use xlink:href="#DejaVuSans-16" transform="translate(63.625 0)"/>
       <use xlink:href="#DejaVuSans-4b" transform="translate(127.25 0)"/>
      </g>
      <!-- 15/07 -->
      <g style="fill: #898781" transform="translate(133.916002 234.58523) scale(0.09 -0.09)">
       <use xlink:href="#DejaVuSans-14"/>
       <use xlink:href="#DejaVuSans-18" transform="translate(63.625 0)"/>
       <use xlink:href="#DejaVuSans-12" transform="translate(127.25 0)"/>
       <use xlink:href="#DejaVuSans-13" transform="translate(160.9375 0)"/>
       <use xlink:href="#DejaVuSans-1a" transform="translate(224.5625 0)"/>
      </g>
     </g>
    </g>
    <g id="xtick_3">
     <g id="line2d_5">
      <path d="M 217.792267 212.544 
L 217.792267 36.288 
" clip-path="url(#pb834a08a25)" style="fill: none; stroke: #e1e0d9; stroke-width: 0.8; stroke-linecap: square"/>
     </g>
     <g id="line2d_6"/>
     <g id="text_3">
      <!-- 06h -->
      <g style="fill: #898781" transform="translate(209.214142 223.783473) scale(0.09 -0.09)">
       <defs>
        <path id="DejaVuSans-19" d="M 2113 2584 
Q 1688 2584 1439 2293 
Q 1191 2003 1191 1497 
Q 1191 994 1439 701 
Q 1688 409 2113 409 
Q 2538 409 2786 701 
Q 3034 994 3034 1497 
Q 3034 2003 2786 2293 
Q 2538 2584 2113 2584 
z
M 3366 4563 
L 3366 3988 
Q 3128 4100 2886 4159 
Q 2644 4219 2406 4219 
Q 1781 4219 1451 3797 
Q 1122 3375 1075 2522 
Q 1259 2794 1537 2939 
Q 1816 3084 2150 3084 
Q 2853 3084 3261 2657 
Q 3669 2231 3669 1497 
Q 3669 778 3244 343 
Q 2819 -91 2113 -91 
Q 1303 -91 875 529 
Q 447 1150 447 2328 
Q 447 3434 972 4092 
Q 1497 4750 2381 4750 
Q 2619 4750 2861 4703 
Q 3103 4656 3366 4563 
z
" transform="scale(0.015625)"/>
       </defs>
       <use xlink:href="#DejaVuSans-13"/>
       <use xlink:href="#DejaVuSans-19" transform="translate(63.625 0)"/>
       <use xlink:href="#DejaVuSans-4b" transform="translate(127.25 0)"/>
      </g>
      <!-- 15/07 -->
      <g style="fill: #898781" transform="translate(204.82383 234.58523) scale(0.09 -0.09)">
       <use xlink:href="#DejaVuSans-14"/>
       <use xlink:href="#DejaVuSans-18" transform="translate(63.625 0)"/>
       <use xlink:href="#DejaVuSans-12" transform="translate(127.25 0)"/>
       <use xlink:href="#DejaVuSans-13" transform="translate(160.9375 0)"/>
       <use xlink:href="#DejaVuSans-1a" transform="translate(224.5625 0)"/>
      </g>
     </g>
    </g>
    <g id="xtick_4">
     <g id="line2d_7">
      <path d="M 288.700095 212.544 
L 288.700095 36.288 
" clip-path="url(#pb834a08a25)" style="fill: none; stroke: #e1e0d9; stroke-width: 0.8; stroke-linecap: square"/>
     </g>
     <g id="line2d_8"/>
     <g id="text_4">
      <!-- 09h -->
      <g style="fill: #898781" transform="translate(280.12197 223.783473) scale(0.09 -0.09)">
       <defs>
        <path id="DejaVuSans-1c" d="M 703 97 
L 703 672 
Q 941 559 1184 500 
Q 1428 441 1663 441 
Q 2288 441 2617 861 
Q 2947 1281 2994 2138 
Q 2813 1869 2534 1725 
Q 2256 1581 1919 1581 
Q 1219 1581 811 2004 
Q 403 2428 403 3163 
Q 403 3881 828 4315 
Q 1253 4750 1959 4750 
Q 2769 4750 3195 4129 
Q 3622 3509 3622 2328 
Q 3622 1225 3098 567 
Q 2575 -91 1691 -91 
Q 1453 -91 1209 -44 
Q 966 3 703 97 
z
M 1959 2075 
Q 2384 2075 2632 2365 
Q 2881 2656 2881 3163 
Q 2881 3666 2632 3958 
Q 2384 4250 1959 4250 
Q 1534 4250 1286 3958 
Q 1038 3666 1038 3163 
Q 1038 2656 1286 2365 
Q 1534 2075 1959 2075 
z
" transform="scale(0.015625)"/>
       </defs>
       <use xlink:href="#DejaVuSans-13"/>
       <use xlink:href="#DejaVuSans-1c" transform="translate(63.625 0)"/>
       <use xlink:href="#DejaVuSans-4b" transform="translate(127.25 0)"/>
      </g>
      <!-- 15/07 -->
      <g style="fill: #898781" transform="translate(275.731657 234.58523) scale(0.09 -0.09)">
       <use xlink:href="#DejaVuSans-14"/>
       <use xlink:href="#DejaVuSans-18" transform="translate(63.625 0)"/>
       <use xlink:href="#DejaVuSans-12" transform="translate(127.25 0)"/>
       <use xlink:href="#DejaVuSans-13" transform="translate(160.9375 0)"/>
       <use xlink:href="#DejaVuSans-1a" transform="translate(224.5625 0)"/>
      </g>
     </g>
    </g>
    <g id="xtick_5">
     <g id="line2d_9">
      <path d="M 359.607923 212.544 
L 359.607923 36.288 
" clip-path="url(#pb834a08a25)" style="fill: none; stroke: #e1e0d9; stroke-width: 0.8; stroke-linecap: square"/>
     </g>
     <g id="line2d_10"/>
     <g id="text_5">
      <!-- 12h -->
      <g style="fill: #898781" transform="translate(351.029798 223.783473) scale(0.09 -0.09)">
       <defs>
        <path id="DejaVuSans-15" d="M 1228 531 
L 3431 531 
L 3431 0 
L 469 0 
L 469 531 
Q 828 903 1448 1529 
Q 2069 2156 2228 2338 
Q 2531 2678 2651 2914 
Q 2772 3150 2772 3378 
Q 2772 3750 2511 3984 
Q 2250 4219 1831 4219 
Q 1534 4219 1204 4116 
Q 875 4013 500 3803 
L 500 4441 
Q 881 4594 1212 4672 
Q 1544 4750 1819 4750 
Q 2544 4750 2975 4387 
Q 3406 4025 3406 3419 
Q 3406 3131 3298 2873 
Q 3191 2616 2906 2266 
Q 2828 2175 2409 1742 
Q 1991 1309 1228 531 
z
" transform="scale(0.015625)"/>
       </defs>
       <use xlink:href="#DejaVuSans-14"/>
       <use xlink:href="#DejaVuSans-15" transform="translate(63.625 0)"/>
       <use xlink:href="#DejaVuSans-4b" transform="translate(127.25 0)"/>
      </g>
      <!-- 15/07 -->
      <g style="fill: #898781" transform="translate(346.639485 234.58523) scale(0.09 -0.09)">
       <use xlink:href="#DejaVuSans-14"/>
       <use xlink:href="#DejaVuSans-18" transform="translate(63.625 0)"/>
       <use xlink:href="#DejaVuSans-12" transform="translate(127.25 0)"/>
       <use xlink:href="#DejaVuSans-13" transform="translate(160.9375 0)"/>
       <use xlink:href="#DejaVuSans-1a" transform="translate(224.5625 0)"/>
      </g>
     </g>
    </g>
    <g id="xtick_6">
     <g id="line2d_11">
      <path d="M 430.51575 212.544 
L 430.51575 36.288 
" clip-path="url(#pb834a08a25)" style="fill: none; stroke: #e1e0d9; stroke-width: 0.8; stroke-linecap: square"/>
     </g>
     <g id="line2d_12"/>
     <g id="text_6">
      <!-- 15h -->
      <g style="fill: #898781" transform="translate(421.937625 223.783473) scale(0.09 -0.09)">
       <use xlink:href="#DejaVuSans-14"/>
       <use xlink:href="#DejaVuSans-18" transform="translate(63.625 0)"/>
       <use xlink:href="#DejaVuSans-4b" transform="translate(127.25 0)"/>
      </g>
      <!-- 15/07 -->
      <g style="fill: #898781" transform="translate(417.547313 234.58523) scale(0.09 -0.09)">
       <use xlink:href="#DejaVuSans-14"/>
       <use xlink:href="#DejaVuSans-18" transform="translate(63.625 0)"/>
       <use xlink:href="#DejaVuSans-12" transform="translate(127.25 0)"/>
       <use xlink:href="#DejaVuSans-13" transform="translate(160.9375 0)"/>
       <use xlink:href="#DejaVuSans-1a" transform="translate(224.5625 0)"/>
      </g>
     </g>
    </g>
    <g id="xtick_7">
     <g id="line2d_13">
      <path d="M 501.423578 212.544 
L 501.423578 36.288 
" clip-path="url(#pb834a08a25)" style="fill: none; stroke: #e1e0d9; stroke-width: 0.8; stroke-linecap: square"/>
     </g>
     <g id="line2d_14"/>
     <g id="text_7">
      <!-- 18h -->
      <g style="fill: #898781" transform="translate(492.845453 223.783473) scale(0.09 -0.09)">
       <defs>
        <path id="DejaVuSans-1b" d="M 2034 2216 
Q 1584 2216 1326 1975 
Q 1069 1734 1069 1313 
Q 1069 891 1326 650 
Q 1584 409 2034 409 
Q 2484 409 2743 651 
Q 3003 894 3003 1313 
Q 3003 1734 2745 1975 
Q 2488 2216 2034 2216 
z
M 1403 2484 
Q 997 2584 770 2862 
Q 544 3141 544 3541 
Q 544 4100 942 4425 
Q 1341 4750 2034 4750 
Q 2731 4750 3128 4425 
Q 3525 4100 3525 3541 
Q 3525 3141 3298 2862 
Q 3072 2584 2669 2484 
Q 3125 2378 3379 2068 
Q 3634 1759 3634 1313 
Q 3634 634 3220 271 
Q 2806 -91 2034 -91 
Q 1263 -91 848 271 
Q 434 634 434 1313 
Q 434 1759 690 2068 
Q 947 2378 1403 2484 
z
M 1172 3481 
Q 1172 3119 1398 2916 
Q 1625 2713 2034 2713 
Q 2441 2713 2670 2916 
Q 2900 3119 2900 3481 
Q 2900 3844 2670 4047 
Q 2441 4250 2034 4250 
Q 1625 4250 1398 4047 
Q 1172 3844 1172 3481 
z
" transform="scale(0.015625)"/>
       </defs>
       <use xlink:href="#DejaVuSans-14"/>
       <use xlink:href="#DejaVuSans-1b" transform="translate(63.625 0)"/>
       <use xlink:href="#DejaVuSans-4b" transform="translate(127.25 0)"/>
      </g>
      <!-- 15/07 -->
      <g style="fill: #898781" transform="translate(488.455141 234.58523) scale(0.09 -0.09)">
       <use xlink:href="#DejaVuSans-14"/>
       <use xlink:href="#DejaVuSans-18" transform="translate(63.625 0)"/>
       <use xlink:href="#DejaVuSans-12" transform="translate(127.25 0)"/>
       <use xlink:href="#DejaVuSans-13" transform="translate(160.9375 0)"/>
       <use xlink:href="#DejaVuSans-1a" transform="translate(224.5625 0)"/>
      </g>
     </g>
    </g>
    <g id="xtick_8">
     <g id="line2d_15">
      <path d="M 572.331406 212.544 
L 572.331406 36.288 
" clip-path="url(#pb834a08a25)" style="fill: none; stroke: #e1e0d9; stroke-width: 0.8; stroke-linecap: square"/>
     </g>
     <g id="line2d_16"/>
     <g id="text_8">
      <!-- 21h -->
      <g style="fill: #898781" transform="translate(563.753281 223.783473) scale(0.09 -0.09)">
       <use xlink:href="#DejaVuSans-15"/>
       <use xlink:href="#DejaVuSans-14" transform="translate(63.625 0)"/>
       <use xlink:href="#DejaVuSans-4b" transform="translate(127.25 0)"/>
      </g>
      <!-- 15/07 -->
      <g style="fill: #898781" transform="translate(559.362968 234.58523) scale(0.09 -0.09)">
       <use xlink:href="#DejaVuSans-14"/>
       <use xlink:href="#DejaVuSans-18" transform="translate(63.625 0)"/>
       <use xlink:href="#DejaVuSans-12" transform="translate(127.25 0)"/>
       <use xlink:href="#DejaVuSans-13" transform="translate(160.9375 0)"/>
       <use xlink:href="#DejaVuSans-1a" transform="translate(224.5625 0)"/>
      </g>
     </g>
    </g>
   </g>
   <g id="matplotlib.axis_2">
    <g id="ytick_1">
     <g id="line2d_17">
      <path d="M 38.88 212.544 
L 628.56 212.544 
" clip-path="url(#pb834a08a25)" style="fill: none; stroke: #e1e0d9; stroke-width: 0.8; stroke-linecap: square"/>
     </g>
     <g id="line2d_18"/>
     <g id="text_9">
      <!-- 0 -->
      <g style="fill: #898781" transform="translate(29.65375 215.962945) scale(0.09 -0.09)">
       <use xlink:href="#DejaVuSans-13"/>
      </g>
     </g>
    </g>
    <g id="ytick_2">
     <g id="line2d_19">
      <path d="M 38.88 174.252451 
L 628.56 174.252451 
" clip-path="url(#pb834a08a25)" style="fill: none; stroke: #e1e0d9; stroke-width: 0.8; stroke-linecap: square"/>
     </g>
     <g id="line2d_20"/>
     <g id="text_10">
      <!-- 100 -->
      <g style="fill: #898781" transform="translate(18.20125 177.671396) scale(0.09 -0.09)">
       <use xlink:href="#DejaVuSans-14"/>
       <use xlink:href="#DejaVuSans-13" transform="translate(63.625 0)"/>
       <use xlink:href="#DejaVuSans-13" transform="translate(127.25 0)"/>
      </g>
     </g>
    </g>
    <g id="ytick_3">
     <g id="line2d_21">
      <path d="M 38.88 135.960902 
L 628.56 135.960902 
" clip-path="url(#pb834a08a25)" style="fill: none; stroke: #e1e0d9; stroke-width: 0.8; stroke-linecap: square"/>
     </g>
     <g id="line2d_22"/>
     <g id="text_11">
      <!-- 200 -->
      <g style="fill: #898781" transform="translate(18.20125 139.379847) scale(0.09 -0.09)">
       <use xlink:href="#DejaVuSans-15"/>
       <use xlink:href="#DejaVuSans-13" transform="translate(63.625 0)"/>
       <use xlink:href="#DejaVuSans-13" transform="translate(127.25 0)"/>
      </g>
     </g>
    </g>
    <g id="ytick_4">
     <g id="line2d_23">
      <path d="M 38.88 97.669353 
L 628.56 97.669353 
" clip-path="url(#pb834a08a25)" style="fill: none; stroke: #e1e0d9; stroke-width: 0.8; stroke-linecap: square"/>
     </g>
     <g id="line2d_24"/>
     <g id="text_12">
      <!-- 300 -->
      <g style="fill: #898781" transform="translate(18.20125 101.088298) scale(0.09 -0.09)">
       <use xlink:href="#DejaVuSans-16"/>
       <use xlink:href="#DejaVuSans-13" transform="translate(63.625 0)"/>
       <use xlink:href="#DejaVuSans-13" transform="translate(127.25 0)"/>
      </g>
     </g>
    </g>
    <g id="ytick_5">
     <g id="line2d_25">
      <path d="M 38.88 59.377804 
L 628.56 59.377804 
" clip-path="url(#pb834a08a25)" style="fill: none; stroke: #e1e0d9; stroke-width: 0.8; stroke-linecap: square"/>
     </g>
     <g id="line2d_26"/>
     <g id="text_13">
      <!-- 400 -->
      <g style="fill: #898781" transform="translate(18.20125 62.796749) scale(0.09 -0.09)">
       <defs>
        <path id="DejaVuSans-17" d="M 2419 4116 
L 825 1625 
L 2419 1625 
L 2419 4116 
z
M 2253 4666 
L 3047 4666 
L 3047 1625 
L 3713 1625 
L 3713 1100 
L 3047 1100 
L 3047 0 
L 2419 0 
L 2419 1100 
L 313 1100 
L 313 1709 
L 2253 4666 
z
" transform="scale(0.015625)"/>
       </defs>
       <use xlink:href="#DejaVuSans-17"/>
       <use xlink:href="#DejaVuSans-13" transform="translate(63.625 0)"/>
       <use xlink:href="#DejaVuSans-13" transform="translate(127.25 0)"/>
      </g>
     </g>
    </g>
   </g>
   <g id="line2d_27">
    <path d="M 50.22 126.388015 
L 73.324134 188.420324 
L 96.802503 207.566099 
L 118.225859 207.183183 
L 167.611848 206.417352 
L 236.26113 205.268606 
L 292.993958 207.183183 
L 340.173925 193.01531 
L 358.137242 191.100733 
L 393.788122 189.951986 
L 446.32557 190.717817 
L 448.446239 189.951986 
L 452.779495 189.569071 
L 486.716769 186.122831 
L 529.451867 182.293676 
L 573.152098 170.423296 
L 617.22 183.059507 
" clip-path="url(#pb834a08a25)" style="fill: none; stroke: #2a78d6; stroke-width: 2; stroke-linecap: square"/>
    <defs>
     <path id="maadbf026f5" d="M 0 1.5 
C 0.397805 1.5 0.77937 1.341951 1.06066 1.06066 
C 1.341951 0.77937 1.5 0.397805 1.5 0 
C 1.5 -0.397805 1.341951 -0.77937 1.06066 -1.06066 
C 0.77937 -1.341951 0.397805 -1.5 0 -1.5 
C -0.397805 -1.5 -0.77937 -1.341951 -1.06066 -1.06066 
C -1.341951 -0.77937 -1.5 -0.397805 -1.5 0 
C -1.5 0.397805 -1.341951 0.77937 -1.06066 1.06066 
C -0.77937 1.341951 -0.397805 1.5 0 1.5 
z
" style="stroke: #2a78d6"/>
    </defs>
    <g clip-path="url(#pb834a08a25)">
     <use xlink:href="#maadbf026f5" x="50.22" y="126.388015" style="fill: #2a78d6; stroke: #2a78d6"/>
     <use xlink:href="#maadbf026f5" x="73.324134" y="188.420324" style="fill: #2a78d6; stroke: #2a78d6"/>
     <use xlink:href="#maadbf026f5" x="96.802503" y="207.566099" style="fill: #2a78d6; stroke: #2a78d6"/>
     <use xlink:href="#maadbf026f5" x="118.225859" y="207.183183" style="fill: #2a78d6; stroke: #2a78d6"/>
     <use xlink:href="#maadbf026f5" x="167.611848" y="206.417352" style="fill: #2a78d6; stroke: #2a78d6"/>
     <use xlink:href="#maadbf026f5" x="236.26113" y="205.268606" style="fill: #2a78d6; stroke: #2a78d6"/>
     <use xlink:href="#maadbf026f5" x="292.993958" y="207.183183" style="fill: #2a78d6; stroke: #2a78d6"/>
     <use xlink:href="#maadbf026f5" x="340.173925" y="193.01531" style="fill: #2a78d6; stroke: #2a78d6"/>
     <use xlink:href="#maadbf026f5" x="358.137242" y="191.100733" style="fill: #2a78d6; stroke: #2a78d6"/>
     <use xlink:href="#maadbf026f5" x="393.788122" y="189.951986" style="fill: #2a78d6; stroke: #2a78d6"/>
     <use xlink:href="#maadbf026f5" x="446.32557" y="190.717817" style="fill: #2a78d6; stroke: #2a78d6"/>
     <use xlink:href="#maadbf026f5" x="448.446239" y="189.951986" style="fill: #2a78d6; stroke: #2a78d6"/>
     <use xlink:href="#maadbf026f5" x="452.779495" y="189.569071" style="fill: #2a78d6; stroke: #2a78d6"/>
     <use xlink:href="#maadbf026f5" x="486.716769" y="186.122831" style="fill: #2a78d6; stroke: #2a78d6"/>
     <use xlink:href="#maadbf026f5" x="529.451867" y="182.293676" style="fill: #2a78d6; stroke: #2a78d6"/>
     <use xlink:href="#maadbf026f5" x="573.152098" y="170.423296" style="fill: #2a78d6; stroke: #2a78d6"/>
     <use xlink:href="#maadbf026f5" x="617.22" y="183.059507" style="fill: #2a78d6; stroke: #2a78d6"/>
    </g>
   </g>
   <g id="line2d_28">
    <path d="M 50.22 44.4441 
L 73.324134 118.346789 
L 96.802503 174.252451 
L 118.225859 176.167028 
L 167.611848 188.037409 
L 236.26113 188.420324 
L 292.993958 159.701662 
L 340.173925 99.58393 
L 358.137242 90.011043 
L 393.788122 104.561832 
L 446.32557 116.432212 
L 448.446239 116.432212 
L 452.779495 114.134719 
L 486.716769 130.21717 
L 529.451867 176.932859 
L 573.152098 162.382071 
L 617.22 180.379099 
" clip-path="url(#pb834a08a25)" style="fill: none; stroke: #eb6834; stroke-width: 2; stroke-linecap: square"/>
    <defs>
     <path id="m8b8722129c" d="M 0 1.5 
C 0.397805 1.5 0.77937 1.341951 1.06066 1.06066 
C 1.341951 0.77937 1.5 0.397805 1.5 0 
C 1.5 -0.397805 1.341951 -0.77937 1.06066 -1.06066 
C 0.77937 -1.341951 0.397805 -1.5 0 -1.5 
C -0.397805 -1.5 -0.77937 -1.341951 -1.06066 -1.06066 
C -1.341951 -0.77937 -1.5 -0.397805 -1.5 0 
C -1.5 0.397805 -1.341951 0.77937 -1.06066 1.06066 
C -0.77937 1.341951 -0.397805 1.5 0 1.5 
z
" style="stroke: #eb6834"/>
    </defs>
    <g clip-path="url(#pb834a08a25)">
     <use xlink:href="#m8b8722129c" x="50.22" y="44.4441" style="fill: #eb6834; stroke: #eb6834"/>
     <use xlink:href="#m8b8722129c" x="73.324134" y="118.346789" style="fill: #eb6834; stroke: #eb6834"/>
     <use xlink:href="#m8b8722129c" x="96.802503" y="174.252451" style="fill: #eb6834; stroke: #eb6834"/>
     <use xlink:href="#m8b8722129c" x="118.225859" y="176.167028" style="fill: #eb6834; stroke: #eb6834"/>
     <use xlink:href="#m8b8722129c" x="167.611848" y="188.037409" style="fill: #eb6834; stroke: #eb6834"/>
     <use xlink:href="#m8b8722129c" x="236.26113" y="188.420324" style="fill: #eb6834; stroke: #eb6834"/>
     <use xlink:href="#m8b8722129c" x="292.993958" y="159.701662" style="fill: #eb6834; stroke: #eb6834"/>
     <use xlink:href="#m8b8722129c" x="340.173925" y="99.58393" style="fill: #eb6834; stroke: #eb6834"/>
     <use xlink:href="#m8b8722129c" x="358.137242" y="90.011043" style="fill: #eb6834; stroke: #eb6834"/>
     <use xlink:href="#m8b8722129c" x="393.788122" y="104.561832" style="fill: #eb6834; stroke: #eb6834"/>
     <use xlink:href="#m8b8722129c" x="446.32557" y="116.432212" style="fill: #eb6834; stroke: #eb6834"/>
     <use xlink:href="#m8b8722129c" x="448.446239" y="116.432212" style="fill: #eb6834; stroke: #eb6834"/>
     <use xlink:href="#m8b8722129c" x="452.779495" y="114.134719" style="fill: #eb6834; stroke: #eb6834"/>
     <use xlink:href="#m8b8722129c" x="486.716769" y="130.21717" style="fill: #eb6834; stroke: #eb6834"/>
     <use xlink:href="#m8b8722129c" x="529.451867" y="176.932859" style="fill: #eb6834; stroke: #eb6834"/>
     <use xlink:href="#m8b8722129c" x="573.152098" y="162.382071" style="fill: #eb6834; stroke: #eb6834"/>
     <use xlink:href="#m8b8722129c" x="617.22" y="180.379099" style="fill: #eb6834; stroke: #eb6834"/>
    </g>
   </g>
   <g id="line2d_29">
    <path d="M 50.22 179.613268 
L 73.324134 160.467493 
L 96.802503 150.894606 
L 118.225859 153.192099 
L 167.611848 147.065451 
L 236.26113 109.922649 
L 292.993958 103.796001 
L 340.173925 84.650226 
L 358.137242 90.393959 
L 393.788122 112.985973 
L 446.32557 88.862297 
L 448.446239 91.925621 
L 452.779495 99.201015 
L 486.716769 158.552916 
L 529.451867 160.467493 
L 573.152098 158.935831 
L 617.22 144.385043 
" clip-path="url(#pb834a08a25)" style="fill: none; stroke: #007f1c; stroke-width: 2; stroke-linecap: square"/>
    <defs>
     <path id="me63baca362" d="M 0 1.5 
C 0.397805 1.5 0.77937 1.341951 1.06066 1.06066 
C 1.341951 0.77937 1.5 0.397805 1.5 0 
C 1.5 -0.397805 1.341951 -0.77937 1.06066 -1.06066 
C 0.77937 -1.341951 0.397805 -1.5 0 -1.5 
C -0.397805 -1.5 -0.77937 -1.341951 -1.06066 -1.06066 
C -1.341951 -0.77937 -1.5 -0.397805 -1.5 0 
C -1.5 0.397805 -1.341951 0.77937 -1.06066 1.06066 
C -0.77937 1.341951 -0.397805 1.5 0 1.5 
z
" style="stroke: #007f1c"/>
    </defs>
    <g clip-path="url(#pb834a08a25)">
     <use xlink:href="#me63baca362" x="50.22" y="179.613268" style="fill: #007f1c; stroke: #007f1c"/>
     <use xlink:href="#me63baca362" x="73.324134" y="160.467493" style="fill: #007f1c; stroke: #007f1c"/>
     <use xlink:href="#me63baca362" x="96.802503" y="150.894606" style="fill: #007f1c; stroke: #007f1c"/>
     <use xlink:href="#me63baca362" x="118.225859" y="153.192099" style="fill: #007f1c; stroke: #007f1c"/>
     <use xlink:href="#me63baca362" x="167.611848" y="147.065451" style="fill: #007f1c; stroke: #007f1c"/>
     <use xlink:href="#me63baca362" x="236.26113" y="109.922649" style="fill: #007f1c; stroke: #007f1c"/>
     <use xlink:href="#me63baca362" x="292.993958" y="103.796001" style="fill: #007f1c; stroke: #007f1c"/>
     <use xlink:href="#me63baca362" x="340.173925" y="84.650226" style="fill: #007f1c; stroke: #007f1c"/>
     <use xlink:href="#me63baca362" x="358.137242" y="90.393959" style="fill: #007f1c; stroke: #007f1c"/>
     <use xlink:href="#me63baca362" x="393.788122" y="112.985973" style="fill: #007f1c; stroke: #007f1c"/>
     <use xlink:href="#me63baca362" x="446.32557" y="88.862297" style="fill: #007f1c; stroke: #007f1c"/>
     <use xlink:href="#me63baca362" x="448.446239" y="91.925621" style="fill: #007f1c; stroke: #007f1c"/>
     <use xlink:href="#me63baca362" x="452.779495" y="99.201015" style="fill: #007f1c; stroke: #007f1c"/>
     <use xlink:href="#me63baca362" x="486.716769" y="158.552916" style="fill: #007f1c; stroke: #007f1c"/>
     <use xlink:href="#me63baca362" x="529.451867" y="160.467493" style="fill: #007f1c; stroke: #007f1c"/>
     <use xlink:href="#me63baca362" x="573.152098" y="158.935831" style="fill: #007f1c; stroke: #007f1c"/>
     <use xlink:href="#me63baca362" x="617.22" y="144.385043" style="fill: #007f1c; stroke: #007f1c"/>
    </g>
   </g>
   <g id="line2d_30">
    <path d="M 50.22 158.17 
L 73.324134 155.106677 
L 96.802503 161.233324 
L 118.225859 169.27455 
L 167.611848 178.847437 
L 236.26113 179.613268 
L 292.993958 206.417352 
L 340.173925 204.502775 
L 358.137242 203.354028 
L 393.788122 204.119859 
L 446.32557 188.420324 
L 448.446239 188.80324 
L 452.779495 185.357 
L 486.716769 190.334902 
L 529.451867 155.872507 
L 573.152098 145.533789 
L 617.22 134.046325 
" clip-path="url(#pb834a08a25)" style="fill: none; stroke: #d03b3b; stroke-width: 2; stroke-linecap: square"/>
    <defs>
     <path id="mca2d785f6b" d="M 0 1.5 
C 0.397805 1.5 0.77937 1.341951 1.06066 1.06066 
C 1.341951 0.77937 1.5 0.397805 1.5 0 
C 1.5 -0.397805 1.341951 -0.77937 1.06066 -1.06066 
C 0.77937 -1.341951 0.397805 -1.5 0 -1.5 
C -0.397805 -1.5 -0.77937 -1.341951 -1.06066 -1.06066 
C -1.341951 -0.77937 -1.5 -0.397805 -1.5 0 
C -1.5 0.397805 -1.341951 0.77937 -1.06066 1.06066 
C -0.77937 1.341951 -0.397805 1.5 0 1.5 
z
" style="stroke: #d03b3b"/>
    </defs>
    <g clip-path="url(#pb834a08a25)">
     <use xlink:href="#mca2d785f6b" x="50.22" y="158.17" style="fill: #d03b3b; stroke: #d03b3b"/>
     <use xlink:href="#mca2d785f6b" x="73.324134" y="155.106677" style="fill: #d03b3b; stroke: #d03b3b"/>
     <use xlink:href="#mca2d785f6b" x="96.802503" y="161.233324" style="fill: #d03b3b; stroke: #d03b3b"/>
     <use xlink:href="#mca2d785f6b" x="118.225859" y="169.27455" style="fill: #d03b3b; stroke: #d03b3b"/>
     <use xlink:href="#mca2d785f6b" x="167.611848" y="178.847437" style="fill: #d03b3b; stroke: #d03b3b"/>
     <use xlink:href="#mca2d785f6b" x="236.26113" y="179.613268" style="fill: #d03b3b; stroke: #d03b3b"/>
     <use xlink:href="#mca2d785f6b" x="292.993958" y="206.417352" style="fill: #d03b3b; stroke: #d03b3b"/>
     <use xlink:href="#mca2d785f6b" x="340.173925" y="204.502775" style="fill: #d03b3b; stroke: #d03b3b"/>
     <use xlink:href="#mca2d785f6b" x="358.137242" y="203.354028" style="fill: #d03b3b; stroke: #d03b3b"/>
     <use xlink:href="#mca2d785f6b" x="393.788122" y="204.119859" style="fill: #d03b3b; stroke: #d03b3b"/>
     <use xlink:href="#mca2d785f6b" x="446.32557" y="188.420324" style="fill: #d03b3b; stroke: #d03b3b"/>
     <use xlink:href="#mca2d785f6b" x="448.446239" y="188.80324" style="fill: #d03b3b; stroke: #d03b3b"/>
     <use xlink:href="#mca2d785f6b" x="452.779495" y="185.357" style="fill: #d03b3b; stroke: #d03b3b"/>
     <use xlink:href="#mca2d785f6b" x="486.716769" y="190.334902" style="fill: #d03b3b; stroke: #d03b3b"/>
     <use xlink:href="#mca2d785f6b" x="529.451867" y="155.872507" style="fill: #d03b3b; stroke: #d03b3b"/>
     <use xlink:href="#mca2d785f6b" x="573.152098" y="145.533789" style="fill: #d03b3b; stroke: #d03b3b"/>
     <use xlink:href="#mca2d785f6b" x="617.22" y="134.046325" style="fill: #d03b3b; stroke: #d03b3b"/>
    </g>
   </g>
   <g id="line2d_31">
    <path d="M 50.22 169.657465 
L 73.324134 188.037409 
L 96.802503 190.334902 
L 118.225859 181.910761 
L 167.611848 180.379099 
L 236.26113 187.654493 
L 292.993958 204.88569 
L 340.173925 204.119859 
L 358.137242 205.651521 
L 393.788122 203.354028 
L 446.32557 197.610296 
L 448.446239 199.524873 
L 452.779495 201.056535 
L 486.716769 202.588197 
L 529.451867 183.059507 
L 573.152098 141.321719 
L 617.22 143.236296 
" clip-path="url(#pb834a08a25)" style="fill: none; stroke: #9b5de5; stroke-width: 2; stroke-linecap: square"/>
    <defs>
     <path id="m1155794bd6" d="M 0 1.5 
C 0.397805 1.5 0.77937 1.341951 1.06066 1.06066 
C 1.341951 0.77937 1.5 0.397805 1.5 0 
C 1.5 -0.397805 1.341951 -0.77937 1.06066 -1.06066 
C 0.77937 -1.341951 0.397805 -1.5 0 -1.5 
C -0.397805 -1.5 -0.77937 -1.341951 -1.06066 -1.06066 
C -1.341951 -0.77937 -1.5 -0.397805 -1.5 0 
C -1.5 0.397805 -1.341951 0.77937 -1.06066 1.06066 
C -0.77937 1.341951 -0.397805 1.5 0 1.5 
z
" style="stroke: #9b5de5"/>
    </defs>
    <g clip-path="url(#pb834a08a25)">
     <use xlink:href="#m1155794bd6" x="50.22" y="169.657465" style="fill: #9b5de5; stroke: #9b5de5"/>
     <use xlink:href="#m1155794bd6" x="73.324134" y="188.037409" style="fill: #9b5de5; stroke: #9b5de5"/>
     <use xlink:href="#m1155794bd6" x="96.802503" y="190.334902" style="fill: #9b5de5; stroke: #9b5de5"/>
     <use xlink:href="#m1155794bd6" x="118.225859" y="181.910761" style="fill: #9b5de5; stroke: #9b5de5"/>
     <use xlink:href="#m1155794bd6" x="167.611848" y="180.379099" style="fill: #9b5de5; stroke: #9b5de5"/>
     <use xlink:href="#m1155794bd6" x="236.26113" y="187.654493" style="fill: #9b5de5; stroke: #9b5de5"/>
     <use xlink:href="#m1155794bd6" x="292.993958" y="204.88569" style="fill: #9b5de5; stroke: #9b5de5"/>
     <use xlink:href="#m1155794bd6" x="340.173925" y="204.119859" style="fill: #9b5de5; stroke: #9b5de5"/>
     <use xlink:href="#m1155794bd6" x="358.137242" y="205.651521" style="fill: #9b5de5; stroke: #9b5de5"/>
     <use xlink:href="#m1155794bd6" x="393.788122" y="203.354028" style="fill: #9b5de5; stroke: #9b5de5"/>
     <use xlink:href="#m1155794bd6" x="446.32557" y="197.610296" style="fill: #9b5de5; stroke: #9b5de5"/>
     <use xlink:href="#m1155794bd6" x="448.446239" y="199.524873" style="fill: #9b5de5; stroke: #9b5de5"/>
     <use xlink:href="#m1155794bd6" x="452.779495" y="201.056535" style="fill: #9b5de5; stroke: #9b5de5"/>
     <use xlink:href="#m1155794bd6" x="486.716769" y="202.588197" style="fill: #9b5de5; stroke: #9b5de5"/>
     <use xlink:href="#m1155794bd6" x="529.451867" y="183.059507" style="fill: #9b5de5; stroke: #9b5de5"/>
     <use xlink:href="#m1155794bd6" x="573.152098" y="141.321719" style="fill: #9b5de5; stroke: #9b5de5"/>
     <use xlink:href="#m1155794bd6" x="617.22" y="143.236296" style="fill: #9b5de5; stroke: #9b5de5"/>
    </g>
   </g>
   <g id="line2d_32">
    <path d="M 50.22 189.186155 
L 73.324134 190.717817 
L 96.802503 207.566099 
L 118.225859 204.502775 
L 167.611848 207.566099 
L 236.26113 202.971113 
L 292.993958 170.806212 
L 340.173925 147.448367 
L 358.137242 145.150874 
L 393.788122 154.340846 
L 446.32557 145.916705 
L 448.446239 147.448367 
L 452.779495 148.980029 
L 486.716769 170.423296 
L 529.451867 194.546972 
L 573.152098 194.929887 
L 617.22 206.800268 
" clip-path="url(#pb834a08a25)" style="fill: none; stroke: #00b4b4; stroke-width: 2; stroke-linecap: square"/>
    <defs>
     <path id="m5c4cf9bb36" d="M 0 1.5 
C 0.397805 1.5 0.77937 1.341951 1.06066 1.06066 
C 1.341951 0.77937 1.5 0.397805 1.5 0 
C 1.5 -0.397805 1.341951 -0.77937 1.06066 -1.06066 
C 0.77937 -1.341951 0.397805 -1.5 0 -1.5 
C -0.397805 -1.5 -0.77937 -1.341951 -1.06066 -1.06066 
C -1.341951 -0.77937 -1.5 -0.397805 -1.5 0 
C -1.5 0.397805 -1.341951 0.77937 -1.06066 1.06066 
C -0.77937 1.341951 -0.397805 1.5 0 1.5 
z
" style="stroke: #00b4b4"/>
    </defs>
    <g clip-path="url(#pb834a08a25)">
     <use xlink:href="#m5c4cf9bb36" x="50.22" y="189.186155" style="fill: #00b4b4; stroke: #00b4b4"/>
     <use xlink:href="#m5c4cf9bb36" x="73.324134" y="190.717817" style="fill: #00b4b4; stroke: #00b4b4"/>
     <use xlink:href="#m5c4cf9bb36" x="96.802503" y="207.566099" style="fill: #00b4b4; stroke: #00b4b4"/>
     <use xlink:href="#m5c4cf9bb36" x="118.225859" y="204.502775" style="fill: #00b4b4; stroke: #00b4b4"/>
     <use xlink:href="#m5c4cf9bb36" x="167.611848" y="207.566099" style="fill: #00b4b4; stroke: #00b4b4"/>
     <use xlink:href="#m5c4cf9bb36" x="236.26113" y="202.971113" style="fill: #00b4b4; stroke: #00b4b4"/>
     <use xlink:href="#m5c4cf9bb36" x="292.993958" y="170.806212" style="fill: #00b4b4; stroke: #00b4b4"/>
     <use xlink:href="#m5c4cf9bb36" x="340.173925" y="147.448367" style="fill: #00b4b4; stroke: #00b4b4"/>
     <use xlink:href="#m5c4cf9bb36" x="358.137242" y="145.150874" style="fill: #00b4b4; stroke: #00b4b4"/>
     <use xlink:href="#m5c4cf9bb36" x="393.788122" y="154.340846" style="fill: #00b4b4; stroke: #00b4b4"/>
     <use xlink:href="#m5c4cf9bb36" x="446.32557" y="145.916705" style="fill: #00b4b4; stroke: #00b4b4"/>
     <use xlink:href="#m5c4cf9bb36" x="448.446239" y="147.448367" style="fill: #00b4b4; stroke: #00b4b4"/>
     <use xlink:href="#m5c4cf9bb36" x="452.779495" y="148.980029" style="fill: #00b4b4; stroke: #00b4b4"/>
     <use xlink:href="#m5c4cf9bb36" x="486.716769" y="170.423296" style="fill: #00b4b4; stroke: #00b4b4"/>
     <use xlink:href="#m5c4cf9bb36" x="529.451867" y="194.546972" style="fill: #00b4b4; stroke: #00b4b4"/>
     <use xlink:href="#m5c4cf9bb36" x="573.152098" y="194.929887" style="fill: #00b4b4; stroke: #00b4b4"/>
     <use xlink:href="#m5c4cf9bb36" x="617.22" y="206.800268" style="fill: #00b4b4; stroke: #00b4b4"/>
    </g>
   </g>
   <g id="line2d_33">
    <path d="M 50.22 168.891634 
L 73.324134 161.233324 
L 96.802503 168.508719 
L 118.225859 171.189127 
L 167.611848 178.847437 
L 236.26113 176.167028 
L 292.993958 147.831282 
L 340.173925 150.894606 
L 358.137242 143.619212 
L 393.788122 155.872507 
L 446.32557 158.935831 
L 448.446239 161.233324 
L 452.779495 160.467493 
L 486.716769 183.825338 
L 529.451867 169.27455 
L 573.152098 169.657465 
L 617.22 163.147902 
" clip-path="url(#pb834a08a25)" style="fill: none; stroke: #e0b400; stroke-width: 2; stroke-linecap: square"/>
    <defs>
     <path id="m5a95d51d3d" d="M 0 1.5 
C 0.397805 1.5 0.77937 1.341951 1.06066 1.06066 
C 1.341951 0.77937 1.5 0.397805 1.5 0 
C 1.5 -0.397805 1.341951 -0.77937 1.06066 -1.06066 
C 0.77937 -1.341951 0.397805 -1.5 0 -1.5 
C -0.397805 -1.5 -0.77937 -1.341951 -1.06066 -1.06066 
C -1.341951 -0.77937 -1.5 -0.397805 -1.5 0 
C -1.5 0.397805 -1.341951 0.77937 -1.06066 1.06066 
C -0.77937 1.341951 -0.397805 1.5 0 1.5 
z
" style="stroke: #e0b400"/>
    </defs>
    <g clip-path="url(#pb834a08a25)">
     <use xlink:href="#m5a95d51d3d" x="50.22" y="168.891634" style="fill: #e0b400; stroke: #e0b400"/>
     <use xlink:href="#m5a95d51d3d" x="73.324134" y="161.233324" style="fill: #e0b400; stroke: #e0b400"/>
     <use xlink:href="#m5a95d51d3d" x="96.802503" y="168.508719" style="fill: #e0b400; stroke: #e0b400"/>
     <use xlink:href="#m5a95d51d3d" x="118.225859" y="171.189127" style="fill: #e0b400; stroke: #e0b400"/>
     <use xlink:href="#m5a95d51d3d" x="167.611848" y="178.847437" style="fill: #e0b400; stroke: #e0b400"/>
     <use xlink:href="#m5a95d51d3d" x="236.26113" y="176.167028" style="fill: #e0b400; stroke: #e0b400"/>
     <use xlink:href="#m5a95d51d3d" x="292.993958" y="147.831282" style="fill: #e0b400; stroke: #e0b400"/>
     <use xlink:href="#m5a95d51d3d" x="340.173925" y="150.894606" style="fill: #e0b400; stroke: #e0b400"/>
     <use xlink:href="#m5a95d51d3d" x="358.137242" y="143.619212" style="fill: #e0b400; stroke: #e0b400"/>
     <use xlink:href="#m5a95d51d3d" x="393.788122" y="155.872507" style="fill: #e0b400; stroke: #e0b400"/>
     <use xlink:href="#m5a95d51d3d" x="446.32557" y="158.935831" style="fill: #e0b400; stroke: #e0b400"/>
     <use xlink:href="#m5a95d51d3d" x="448.446239" y="161.233324" style="fill: #e0b400; stroke: #e0b400"/>
     <use xlink:href="#m5a95d51d3d" x="452.779495" y="160.467493" style="fill: #e0b400; stroke: #e0b400"/>
     <use xlink:href="#m5a95d51d3d" x="486.716769" y="183.825338" style="fill: #e0b400; stroke: #e0b400"/>
     <use xlink:href="#m5a95d51d3d" x="529.451867" y="169.27455" style="fill: #e0b400; stroke: #e0b400"/>
     <use xlink:href="#m5a95d51d3d" x="573.152098" y="169.657465" style="fill: #e0b400; stroke: #e0b400"/>
     <use xlink:href="#m5a95d51d3d" x="617.22" y="163.147902" style="fill: #e0b400; stroke: #e0b400"/>
    </g>
   </g>
   <g id="line2d_34">
    <path d="M 50.22 201.439451 
L 73.324134 182.676592 
L 96.802503 116.815128 
L 118.225859 101.115592 
L 167.611848 80.821071 
L 236.26113 101.115592 
L 292.993958 201.056535 
L 340.173925 203.354028 
L 358.137242 201.056535 
L 393.788122 186.888662 
L 446.32557 182.676592 
L 448.446239 183.825338 
L 452.779495 183.059507 
L 486.716769 191.100733 
L 529.451867 176.549944 
L 573.152098 163.913733 
L 617.22 129.834254 
" clip-path="url(#pb834a08a25)" style="fill: none; stroke: #e05299; stroke-width: 2; stroke-linecap: square"/>
    <defs>
     <path id="m7605ec4064" d="M 0 1.5 
C 0.397805 1.5 0.77937 1.341951 1.06066 1.06066 
C 1.341951 0.77937 1.5 0.397805 1.5 0 
C 1.5 -0.397805 1.341951 -0.77937 1.06066 -1.06066 
C 0.77937 -1.341951 0.397805 -1.5 0 -1.5 
C -0.397805 -1.5 -0.77937 -1.341951 -1.06066 -1.06066 
C -1.341951 -0.77937 -1.5 -0.397805 -1.5 0 
C -1.5 0.397805 -1.341951 0.77937 -1.06066 1.06066 
C -0.77937 1.341951 -0.397805 1.5 0 1.5 
z
" style="stroke: #e05299"/>
    </defs>
    <g clip-path="url(#pb834a08a25)">
     <use xlink:href="#m7605ec4064" x="50.22" y="201.439451" style="fill: #e05299; stroke: #e05299"/>
     <use xlink:href="#m7605ec4064" x="73.324134" y="182.676592" style="fill: #e05299; stroke: #e05299"/>
     <use xlink:href="#m7605ec4064" x="96.802503" y="116.815128" style="fill: #e05299; stroke: #e05299"/>
     <use xlink:href="#m7605ec4064" x="118.225859" y="101.115592" style="fill: #e05299; stroke: #e05299"/>
     <use xlink:href="#m7605ec4064" x="167.611848" y="80.821071" style="fill: #e05299; stroke: #e05299"/>
     <use xlink:href="#m7605ec4064" x="236.26113" y="101.115592" style="fill: #e05299; stroke: #e05299"/>
     <use xlink:href="#m7605ec4064" x="292.993958" y="201.056535" style="fill: #e05299; stroke: #e05299"/>
     <use xlink:href="#m7605ec4064" x="340.173925" y="203.354028" style="fill: #e05299; stroke: #e05299"/>
     <use xlink:href="#m7605ec4064" x="358.137242" y="201.056535" style="fill: #e05299; stroke: #e05299"/>
     <use xlink:href="#m7605ec4064" x="393.788122" y="186.888662" style="fill: #e05299; stroke: #e05299"/>
     <use xlink:href="#m7605ec4064" x="446.32557" y="182.676592" style="fill: #e05299; stroke: #e05299"/>
     <use xlink:href="#m7605ec4064" x="448.446239" y="183.825338" style="fill: #e05299; stroke: #e05299"/>
     <use xlink:href="#m7605ec4064" x="452.779495" y="183.059507" style="fill: #e05299; stroke: #e05299"/>
     <use xlink:href="#m7605ec4064" x="486.716769" y="191.100733" style="fill: #e05299; stroke: #e05299"/>
     <use xlink:href="#m7605ec4064" x="529.451867" y="176.549944" style="fill: #e05299; stroke: #e05299"/>
     <use xlink:href="#m7605ec4064" x="573.152098" y="163.913733" style="fill: #e05299; stroke: #e05299"/>
     <use xlink:href="#m7605ec4064" x="617.22" y="129.834254" style="fill: #e05299; stroke: #e05299"/>
    </g>
   </g>
   <g id="line2d_35">
    <path d="M 50.22 196.461549 
L 73.324134 188.037409 
L 96.802503 180.379099 
L 118.225859 176.549944 
L 167.611848 169.27455 
L 236.26113 177.69869 
L 292.993958 164.679564 
L 340.173925 157.787085 
L 358.137242 152.809184 
L 393.788122 146.29962 
L 446.32557 165.062479 
L 448.446239 165.82831 
L 452.779495 168.125803 
L 486.716769 194.164056 
L 529.451867 206.034437 
L 573.152098 196.078634 
L 617.22 193.398226 
" clip-path="url(#pb834a08a25)" style="fill: none; stroke: #8a6d3b; stroke-width: 2; stroke-linecap: square"/>
    <defs>
     <path id="m89be02a8c9" d="M 0 1.5 
C 0.397805 1.5 0.77937 1.341951 1.06066 1.06066 
C 1.341951 0.77937 1.5 0.397805 1.5 0 
C 1.5 -0.397805 1.341951 -0.77937 1.06066 -1.06066 
C 0.77937 -1.341951 0.397805 -1.5 0 -1.5 
C -0.397805 -1.5 -0.77937 -1.341951 -1.06066 -1.06066 
C -1.341951 -0.77937 -1.5 -0.397805 -1.5 0 
C -1.5 0.397805 -1.341951 0.77937 -1.06066 1.06066 
C -0.77937 1.341951 -0.397805 1.5 0 1.5 
z
" style="stroke: #8a6d3b"/>
    </defs>
    <g clip-path="url(#pb834a08a25)">
     <use xlink:href="#m89be02a8c9" x="50.22" y="196.461549" style="fill: #8a6d3b; stroke: #8a6d3b"/>
     <use xlink:href="#m89be02a8c9" x="73.324134" y="188.037409" style="fill: #8a6d3b; stroke: #8a6d3b"/>
     <use xlink:href="#m89be02a8c9" x="96.802503" y="180.379099" style="fill: #8a6d3b; stroke: #8a6d3b"/>
     <use xlink:href="#m89be02a8c9" x="118.225859" y="176.549944" style="fill: #8a6d3b; stroke: #8a6d3b"/>
     <use xlink:href="#m89be02a8c9" x="167.611848" y="169.27455" style="fill: #8a6d3b; stroke: #8a6d3b"/>
     <use xlink:href="#m89be02a8c9" x="236.26113" y="177.69869" style="fill: #8a6d3b; stroke: #8a6d3b"/>
     <use xlink:href="#m89be02a8c9" x="292.993958" y="164.679564" style="fill: #8a6d3b; stroke: #8a6d3b"/>
     <use xlink:href="#m89be02a8c9" x="340.173925" y="157.787085" style="fill: #8a6d3b; stroke: #8a6d3b"/>
     <use xlink:href="#m89be02a8c9" x="358.137242" y="152.809184" style="fill: #8a6d3b; stroke: #8a6d3b"/>
     <use xlink:href="#m89be02a8c9" x="393.788122" y="146.29962" style="fill: #8a6d3b; stroke: #8a6d3b"/>
     <use xlink:href="#m89be02a8c9" x="446.32557" y="165.062479" style="fill: #8a6d3b; stroke: #8a6d3b"/>
     <use xlink:href="#m89be02a8c9" x="448.446239" y="165.82831" style="fill: #8a6d3b; stroke: #8a6d3b"/>
     <use xlink:href="#m89be02a8c9" x="452.779495" y="168.125803" style="fill: #8a6d3b; stroke: #8a6d3b"/>
     <use xlink:href="#m89be02a8c9" x="486.716769" y="194.164056" style="fill: #8a6d3b; stroke: #8a6d3b"/>
     <use xlink:href="#m89be02a8c9" x="529.451867" y="206.034437" style="fill: #8a6d3b; stroke: #8a6d3b"/>
     <use xlink:href="#m89be02a8c9" x="573.152098" y="196.078634" style="fill: #8a6d3b; stroke: #8a6d3b"/>
     <use xlink:href="#m89be02a8c9" x="617.22" y="193.398226" style="fill: #8a6d3b; stroke: #8a6d3b"/>
    </g>
   </g>
   <g id="patch_3">
    <path d="M 38.88 212.544 
L 628.56 212.544 
" style="fill: none; stroke: #e1e0d9; stroke-width: 0.8; stroke-linejoin: miter; stroke-linecap: square"/>
   </g>
   <g id="text_14">
    <!-- Electrical bikes available by arrondissement — last 24 hours -->
    <g style="fill: #c2c2c2" transform="translate(38.88 24.288) scale(0.13 -0.13)">
     <defs>
      <path id="DejaVuSans-Bold-28" d="M 588 4666 
L 3834 4666 
L 3834 3756 
L 1791 3756 
L 1791 2888 
L 3713 2888 
L 3713 1978 
L 1791 1978 
L 1791 909 
L 3903 909 
L 3903 0 
L 588 0 
L 588 4666 
z
" transform="scale(0.015625)"/>
      <path id="DejaVuSans-Bold-4f" d="M 538 4863 
L 1656 4863 
L 1656 0 
L 538 0 
L 538 4863 
z
" transform="scale(0.015625)"/>
      <path id="DejaVuSans-Bold-48" d="M 4031 1759 
L 4031 1441 
L 1416 1441 
Q 1456 1047 1700 850 
Q 1944 653 2381 653 
Q 2734 653 3104 758 
Q 3475 863 3866 1075 
L 3866 213 
Q 3469 63 3072 -14 
Q 2675 -91 2278 -91 
Q 1328 -91 801 392 
Q 275 875 275 1747 
Q 275 2603 792 3093 
Q 1309 3584 2216 3584 
Q 3041 3584 3536 3087 
Q 4031 2591 4031 1759 
z
M 2881 2131 
Q 2881 2450 2695 2645 
Q 2509 2841 2209 2841 
Q 1884 2841 1681 2658 
Q 1478 2475 1428 2131 
L 2881 2131 
z
" transform="scale(0.015625)"/>
      <path id="DejaVuSans-Bold-46" d="M 3366 3391 
L 3366 2478 
Q 3138 2634 2908 2709 
Q 2678 2784 2431 2784 
Q 1963 2784 1702 2511 
Q 1441 2238 1441 1747 
Q 1441 1256 1702 982 
Q 1963 709 2431 709 
Q 2694 709 2930 787 
Q 3166 866 3366 1019 
L 3366 103 
Q 3103 6 2833 -42 
Q 2563 -91 2291 -91 
Q 1344 -91 809 395 
Q 275 881 275 1747 
Q 275 2613 809 3098 
Q 1344 3584 2291 3584 
Q 2566 3584 2833 3536 
Q 3100 3488 3366 3391 
z
" transform="scale(0.015625)"/>
      <path id="DejaVuSans-Bold-57" d="M 1759 4494 
L 1759 3500 
L 2913 3500 
L 2913 2700 
L 1759 2700 
L 1759 1216 
Q 1759 972 1856 886 
Q 1953 800 2241 800 
L 2816 800 
L 2816 0 
L 1856 0 
Q 1194 0 917 276 
Q 641 553 641 1216 
L 641 2700 
L 84 2700 
L 84 3500 
L 641 3500 
L 641 4494 
L 1759 4494 
z
" transform="scale(0.015625)"/>
      <path id="DejaVuSans-Bold-55" d="M 3138 2547 
Q 2991 2616 2845 2648 
Q 2700 2681 2553 2681 
Q 2122 2681 1889 2404 
Q 1656 2128 1656 1613 
L 1656 0 
L 538 0 
L 538 3500 
L 1656 3500 
L 1656 2925 
Q 1872 3269 2151 3426 
Q 2431 3584 2822 3584 
Q 2878 3584 2943 3579 
Q 3009 3575 3134 3559 
L 3138 2547 
z
" transform="scale(0.015625)"/>
      <path id="DejaVuSans-Bold-4c" d="M 538 3500 
L 1656 3500 
L 1656 0 
L 538 0 
L 538 3500 
z
M 538 4863 
L 1656 4863 
L 1656 3950 
L 538 3950 
L 538 4863 
z
" transform="scale(0.015625)"/>
      <path id="DejaVuSans-Bold-44" d="M 2106 1575 
Q 1756 1575 1579 1456 
Q 1403 1338 1403 1106 
Q 1403 894 1545 773 
Q 1688 653 1941 653 
Q 2256 653 2472 879 
Q 2688 1106 2688 1447 
L 2688 1575 
L 2106 1575 
z
M 3816 1997 
L 3816 0 
L 2688 0 
L 2688 519 
Q 2463 200 2181 54 
Q 1900 -91 1497 -91 
Q 953 -91 614 226 
Q 275 544 275 1050 
Q 275 1666 698 1953 
Q 1122 2241 2028 2241 
L 2688 2241 
L 2688 2328 
Q 2688 2594 2478 2717 
Q 2269 2841 1825 2841 
Q 1466 2841 1156 2769 
Q 847 2697 581 2553 
L 581 3406 
Q 941 3494 1303 3539 
Q 1666 3584 2028 3584 
Q 2975 3584 3395 3211 
Q 3816 2838 3816 1997 
z
" transform="scale(0.015625)"/>
      <path id="DejaVuSans-Bold-3" transform="scale(0.015625)"/>
      <path id="DejaVuSans-Bold-45" d="M 2400 722 
Q 2759 722 2948 984 
Q 3138 1247 3138 1747 
Q 3138 2247 2948 2509 
Q 2759 2772 2400 2772 
Q 2041 2772 1848 2508 
Q 1656 2244 1656 1747 
Q 1656 1250 1848 986 
Q 2041 722 2400 722 
z
M 1656 2988 
Q 1888 3294 2169 3439 
Q 2450 3584 2816 3584 
Q 3463 3584 3878 3070 
Q 4294 2556 4294 1747 
Q 4294 938 3878 423 
Q 3463 -91 2816 -91 
Q 2450 -91 2169 54 
Q 1888 200 1656 506 
L 1656 0 
L 538 0 
L 538 4863 
L 1656 4863 
L 1656 2988 
z
" transform="scale(0.015625)"/>
      <path id="DejaVuSans-Bold-4e" d="M 538 4863 
L 1656 4863 
L 1656 2216 
L 2944 3500 
L 4244 3500 
L 2534 1894 
L 4378 0 
L 3022 0 
L 1656 1459 
L 1656 0 
L 538 0 
L 538 4863 
z
" transform="scale(0.015625)"/>
      <path id="DejaVuSans-Bold-56" d="M 3272 3391 
L 3272 2541 
Q 2913 2691 2578 2766 
Q 2244 2841 1947 2841 
Q 1628 2841 1473 2761 
Q 1319 2681 1319 2516 
Q 1319 2381 1436 2309 
Q 1553 2238 1856 2203 
L 2053 2175 
Q 2913 2066 3209 1816 
Q 3506 1566 3506 1031 
Q 3506 472 3093 190 
Q 2681 -91 1863 -91 
Q 1516 -91 1145 -36 
Q 775 19 384 128 
L 384 978 
Q 719 816 1070 734 
Q 1422 653 1784 653 
Q 2113 653 2278 743 
Q 2444 834 2444 1013 
Q 2444 1163 2330 1236 
Q 2216 1309 1875 1350 
L 1678 1375 
Q 931 1469 631 1722 
Q 331 1975 331 2491 
Q 331 3047 712 3315 
Q 1094 3584 1881 3584 
Q 2191 3584 2531 3537 
Q 2872 3491 3272 3391 
z
" transform="scale(0.015625)"/>
      <path id="DejaVuSans-Bold-59" d="M 97 3500 
L 1216 3500 
L 2088 1081 
L 2956 3500 
L 4078 3500 
L 2700 0 
L 1472 0 
L 97 3500 
z
" transform="scale(0.015625)"/>
      <path id="DejaVuSans-Bold-5c" d="M 78 3500 
L 1197 3500 
L 2138 1125 
L 2938 3500 
L 4056 3500 
L 2584 -331 
Q 2363 -916 2067 -1148 
Q 1772 -1381 1288 -1381 
L 641 -1381 
L 641 -647 
L 991 -647 
Q 1275 -647 1404 -556 
Q 1534 -466 1606 -231 
L 1638 -134 
L 78 3500 
z
" transform="scale(0.015625)"/>
      <path id="DejaVuSans-Bold-52" d="M 2203 2784 
Q 1831 2784 1636 2517 
Q 1441 2250 1441 1747 
Q 1441 1244 1636 976 
Q 1831 709 2203 709 
Q 2569 709 2762 976 
Q 2956 1244 2956 1747 
Q 2956 2250 2762 2517 
Q 2569 2784 2203 2784 
z
M 2203 3584 
Q 3106 3584 3614 3096 
Q 4122 2609 4122 1747 
Q 4122 884 3614 396 
Q 3106 -91 2203 -91 
Q 1297 -91 786 396 
Q 275 884 275 1747 
Q 275 2609 786 3096 
Q 1297 3584 2203 3584 
z
" transform="scale(0.015625)"/>
      <path id="DejaVuSans-Bold-51" d="M 4056 2131 
L 4056 0 
L 2931 0 
L 2931 347 
L 2931 1631 
Q 2931 2084 2911 2256 
Q 2891 2428 2841 2509 
Q 2775 2619 2662 2680 
Q 2550 2741 2406 2741 
Q 2056 2741 1856 2470 
Q 1656 2200 1656 1722 
L 1656 0 
L 538 0 
L 538 3500 
L 1656 3500 
L 1656 2988 
Q 1909 3294 2193 3439 
Q 2478 3584 2822 3584 
Q 3428 3584 3742 3212 
Q 4056 2841 4056 2131 
z
" transform="scale(0.015625)"/>
      <path id="DejaVuSans-Bold-47" d="M 2919 2988 
L 2919 4863 
L 4044 4863 
L 4044 0 
L 2919 0 
L 2919 506 
Q 2688 197 2409 53 
Q 2131 -91 1766 -91 
Q 1119 -91 703 423 
Q 288 938 288 1747 
Q 288 2556 703 3070 
Q 1119 3584 1766 3584 
Q 2128 3584 2408 3439 
Q 2688 3294 2919 2988 
z
M 2181 722 
Q 2541 722 2730 984 
Q 2919 1247 2919 1747 
Q 2919 2247 2730 2509 
Q 2541 2772 2181 2772 
Q 1825 2772 1636 2509 
Q 1447 2247 1447 1747 
Q 1447 1247 1636 984 
Q 1825 722 2181 722 
z
" transform="scale(0.015625)"/>
      <path id="DejaVuSans-Bold-50" d="M 3781 2919 
Q 3994 3244 4286 3414 
Q 4578 3584 4928 3584 
Q 5531 3584 5847 3212 
Q 6163 2841 6163 2131 
L 6163 0 
L 5038 0 
L 5038 1825 
Q 5041 1866 5042 1909 
Q 5044 1953 5044 2034 
Q 5044 2406 4934 2573 
Q 4825 2741 4581 2741 
Q 4263 2741 4089 2478 
Q 3916 2216 3909 1719 
L 3909 0 
L 2784 0 
L 2784 1825 
Q 2784 2406 2684 2573 
Q 2584 2741 2328 2741 
Q 2006 2741 1831 2477 
Q 1656 2213 1656 1722 
L 1656 0 
L 531 0 
L 531 3500 
L 1656 3500 
L 1656 2988 
Q 1863 3284 2130 3434 
Q 2397 3584 2719 3584 
Q 3081 3584 3359 3409 
Q 3638 3234 3781 2919 
z
" transform="scale(0.015625)"/>
      <path id="DejaVuSans-Bold-af6" d="M 344 2156 
L 6056 2156 
L 6056 1350 
L 344 1350 
L 344 2156 
z
" transform="scale(0.015625)"/>
      <path id="DejaVuSans-Bold-15" d="M 1844 884 
L 3897 884 
L 3897 0 
L 506 0 
L 506 884 
L 2209 2388 
Q 2438 2594 2547 2791 
Q 2656 2988 2656 3200 
Q 2656 3528 2436 3728 
Q 2216 3928 1850 3928 
Q 1569 3928 1234 3808 
Q 900 3688 519 3450 
L 519 4475 
Q 925 4609 1322 4679 
Q 1719 4750 2100 4750 
Q 2938 4750 3402 4381 
Q 3866 4013 3866 3353 
Q 3866 2972 3669 2642 
Q 3472 2313 2841 1759 
L 1844 884 
z
" transform="scale(0.015625)"/>
      <path id="DejaVuSans-Bold-17" d="M 2356 3675 
L 1038 1722 
L 2356 1722 
L 2356 3675 
z
M 2156 4666 
L 3494 4666 
L 3494 1722 
L 4159 1722 
L 4159 850 
L 3494 850 
L 3494 0 
L 2356 0 
L 2356 850 
L 288 850 
L 288 1881 
L 2156 4666 
z
" transform="scale(0.015625)"/>
      <path id="DejaVuSans-Bold-4b" d="M 4056 2131 
L 4056 0 
L 2931 0 
L 2931 347 
L 2931 1625 
Q 2931 2084 2911 2256 
Q 2891 2428 2841 2509 
Q 2775 2619 2662 2680 
Q 2550 2741 2406 2741 
Q 2056 2741 1856 2470 
Q 1656 2200 1656 1722 
L 1656 0 
L 538 0 
L 538 4863 
L 1656 4863 
L 1656 2988 
Q 1909 3294 2193 3439 
Q 2478 3584 2822 3584 
Q 3428 3584 3742 3212 
Q 4056 2841 4056 2131 
z
" transform="scale(0.015625)"/>
      <path id="DejaVuSans-Bold-58" d="M 500 1363 
L 500 3500 
L 1625 3500 
L 1625 3150 
Q 1625 2866 1622 2436 
Q 1619 2006 1619 1863 
Q 1619 1441 1641 1255 
Q 1663 1069 1716 984 
Q 1784 875 1895 815 
Q 2006 756 2150 756 
Q 2500 756 2700 1025 
Q 2900 1294 2900 1772 
L 2900 3500 
L 4019 3500 
L 4019 0 
L 2900 0 
L 2900 506 
Q 2647 200 2364 54 
Q 2081 -91 1741 -91 
Q 1134 -91 817 281 
Q 500 653 500 1363 
z
" transform="scale(0.015625)"/>
     </defs>
     <use xlink:href="#DejaVuSans-Bold-28"/>
     <use xlink:href="#DejaVuSans-Bold-4f" transform="translate(68.3125 0)"/>
     <use xlink:href="#DejaVuSans-Bold-48" transform="translate(102.59375 0)"/>
     <use xlink:href="#DejaVuSans-Bold-46" transform="translate(170.421875 0)"/>
     <use xlink:href="#DejaVuSans-Bold-57" transform="translate(229.703125 0)"/>
     <use xlink:href="#DejaVuSans-Bold-55" transform="translate(277.5 0)"/>
     <use xlink:href="#DejaVuSans-Bold-4c" transform="translate(326.8125 0)"/>
     <use xlink:href="#DejaVuSans-Bold-46" transform="translate(361.09375 0)"/>
     <use xlink:href="#DejaVuSans-Bold-44" transform="translate(420.375 0)"/>
     <use xlink:href="#DejaVuSans-Bold-4f" transform="translate(487.859375 0)"/>
     <use xlink:href="#DejaVuSans-Bold-3" transform="translate(522.140625 0)"/>
     <use xlink:href="#DejaVuSans-Bold-45" transform="translate(556.953125 0)"/>
     <use xlink:href="#DejaVuSans-Bold-4c" transform="translate(628.53125 0)"/>
     <use xlink:href="#DejaVuSans-Bold-4e" transform="translate(662.8125 0)"/>
     <use xlink:href="#DejaVuSans-Bold-48" transform="translate(726.625 0)"/>
     <use xlink:href="#DejaVuSans-Bold-56" transform="translate(794.453125 0)"/>
     <use xlink:href="#DejaVuSans-Bold-3" transform="translate(853.96875 0)"/>
     <use xlink:href="#DejaVuSans-Bold-44" transform="translate(888.78125 0)"/>
     <use xlink:href="#DejaVuSans-Bold-59" transform="translate(956.265625 0)"/>
     <use xlink:href="#DejaVuSans-Bold-44" transform="translate(1021.453125 0)"/>
     <use xlink:href="#DejaVuSans-Bold-4c" transform="translate(1088.9375 0)"/>
     <use xlink:href="#DejaVuSans-Bold-4f" transform="translate(1123.21875 0)"/>
     <use xlink:href="#DejaVuSans-Bold-44" transform="translate(1157.5 0)"/>
     <use xlink:href="#DejaVuSans-Bold-45" transform="translate(1224.984375 0)"/>
     <use xlink:href="#DejaVuSans-Bold-4f" transform="translate(1296.5625 0)"/>
     <use xlink:href="#DejaVuSans-Bold-48" transform="translate(1330.84375 0)"/>
     <use xlink:href="#DejaVuSans-Bold-3" transform="translate(1398.671875 0)"/>
     <use xlink:href="#DejaVuSans-Bold-45" transform="translate(1433.484375 0)"/>
     <use xlink:href="#DejaVuSans-Bold-5c" transform="translate(1505.0625 0)"/>
     <use xlink:href="#DejaVuSans-Bold-3" transform="translate(1570.25 0)"/>
     <use xlink:href="#DejaVuSans-Bold-44" transform="translate(1605.0625 0)"/>
     <use xlink:href="#DejaVuSans-Bold-55" transform="translate(1672.546875 0)"/>
     <use xlink:href="#DejaVuSans-Bold-55" transform="translate(1721.859375 0)"/>
     <use xlink:href="#DejaVuSans-Bold-52" transform="translate(1771.171875 0)"/>
     <use xlink:href="#DejaVuSans-Bold-51" transform="translate(1839.875 0)"/>
     <use xlink:href="#DejaVuSans-Bold-47" transform="translate(1911.0625 0)"/>
     <use xlink:href="#DejaVuSans-Bold-4c" transform="translate(1982.640625 0)"/>
     <use xlink:href="#DejaVuSans-Bold-56" transform="translate(2016.921875 0)"/>
     <use xlink:href="#DejaVuSans-Bold-56" transform="translate(2076.4375 0)"/>
     <use xlink:href="#DejaVuSans-Bold-48" transform="translate(2135.953125 0)"/>
     <use xlink:href="#DejaVuSans-Bold-50" transform="translate(2203.78125 0)"/>
     <use xlink:href="#DejaVuSans-Bold-48" transform="translate(2307.984375 0)"/>
     <use xlink:href="#DejaVuSans-Bold-51" transform="translate(2375.8125 0)"/>
     <use xlink:href="#DejaVuSans-Bold-57" transform="translate(2447 0)"/>
     <use xlink:href="#DejaVuSans-Bold-3" transform="translate(2494.796875 0)"/>
     <use xlink:href="#DejaVuSans-Bold-af6" transform="translate(2529.609375 0)"/>
     <use xlink:href="#DejaVuSans-Bold-3" transform="translate(2629.609375 0)"/>
     <use xlink:href="#DejaVuSans-Bold-4f" transform="translate(2664.421875 0)"/>
     <use xlink:href="#DejaVuSans-Bold-44" transform="translate(2698.703125 0)"/>
     <use xlink:href="#DejaVuSans-Bold-56" transform="translate(2766.1875 0)"/>
     <use xlink:href="#DejaVuSans-Bold-57" transform="translate(2825.703125 0)"/>
     <use xlink:href="#DejaVuSans-Bold-3" transform="translate(2873.5 0)"/>
     <use xlink:href="#DejaVuSans-Bold-15" transform="translate(2908.3125 0)"/>
     <use xlink:href="#DejaVuSans-Bold-17" transform="translate(2977.890625 0)"/>
     <use xlink:href="#DejaVuSans-Bold-3" transform="translate(3047.46875 0)"/>
     <use xlink:href="#DejaVuSans-Bold-4b" transform="translate(3082.28125 0)"/>
     <use xlink:href="#DejaVuSans-Bold-52" transform="translate(3153.46875 0)"/>
     <use xlink:href="#DejaVuSans-Bold-58" transform="translate(3222.171875 0)"/>
     <use xlink:href="#DejaVuSans-Bold-55" transform="translate(3293.359375 0)"/>
     <use xlink:href="#DejaVuSans-Bold-56" transform="translate(3342.671875 0)"/>
    </g>
   </g>
   <g id="legend_1">
    <g id="line2d_36">
     <path d="M 46.98 48.076594 
L 53.28 48.076594 
L 59.58 48.076594 
" style="fill: none; stroke: #2a78d6; stroke-width: 2; stroke-linecap: square"/>
     <g>
      <use xlink:href="#maadbf026f5" x="53.28" y="48.076594" style="fill: #2a78d6; stroke: #2a78d6"/>
     </g>
    </g>
    <g id="text_15">
     <!-- 1e -->
     <g style="fill: #c2c2c2" transform="translate(66.78 51.226594) scale(0.09 -0.09)">
      <defs>
       <path id="DejaVuSans-48" d="M 3597 1894 
L 3597 1613 
L 953 1613 
Q 991 1019 1311 708 
Q 1631 397 2203 397 
Q 2534 397 2845 478 
Q 3156 559 3463 722 
L 3463 178 
Q 3153 47 2828 -22 
Q 2503 -91 2169 -91 
Q 1331 -91 842 396 
Q 353 884 353 1716 
Q 353 2575 817 3079 
Q 1281 3584 2069 3584 
Q 2775 3584 3186 3129 
Q 3597 2675 3597 1894 
z
M 3022 2063 
Q 3016 2534 2758 2815 
Q 2500 3097 2075 3097 
Q 1594 3097 1305 2825 
Q 1016 2553 972 2059 
L 3022 2063 
z
" transform="scale(0.015625)"/>
      </defs>
      <use xlink:href="#DejaVuSans-14"/>
      <use xlink:href="#DejaVuSans-48" transform="translate(63.625 0)"/>
     </g>
    </g>
    <g id="line2d_37">
     <path d="M 86.144062 48.076594 
L 92.444062 48.076594 
L 98.744062 48.076594 
" style="fill: none; stroke: #eb6834; stroke-width: 2; stroke-linecap: square"/>
     <g>
      <use xlink:href="#m8b8722129c" x="92.444062" y="48.076594" style="fill: #eb6834; stroke: #eb6834"/>
     </g>
    </g>
    <g id="text_16">
     <!-- 2e -->
     <g style="fill: #c2c2c2" transform="translate(105.944062 51.226594) scale(0.09 -0.09)">
      <use xlink:href="#DejaVuSans-15"/>
      <use xlink:href="#DejaVuSans-48" transform="translate(63.625 0)"/>
     </g>
    </g>
    <g id="line2d_38">
     <path d="M 125.308125 48.076594 
L 131.608125 48.076594 
L 137.908125 48.076594 
" style="fill: none; stroke: #007f1c; stroke-width: 2; stroke-linecap: square"/>
     <g>
      <use xlink:href="#me63baca362" x="131.608125" y="48.076594" style="fill: #007f1c; stroke: #007f1c"/>
     </g>
    </g>
    <g id="text_17">
     <!-- 3e -->
     <g style="fill: #c2c2c2" transform="translate(145.108125 51.226594) scale(0.09 -0.09)">
      <use xlink:href="#DejaVuSans-16"/>
      <use xlink:href="#DejaVuSans-48" transform="translate(63.625 0)"/>
     </g>
    </g>
    <g id="line2d_39">
     <path d="M 164.472187 48.076594 
L 170.772188 48.076594 
L 177.072187 48.076594 
" style="fill: none; stroke: #d03b3b; stroke-width: 2; stroke-linecap: square"/>
     <g>
      <use xlink:href="#mca2d785f6b" x="170.772188" y="48.076594" style="fill: #d03b3b; stroke: #d03b3b"/>
     </g>
    </g>
    <g id="text_18">
     <!-- 4e -->
     <g style="fill: #c2c2c2" transform="translate(184.272188 51.226594) scale(0.09 -0.09)">
      <use xlink:href="#DejaVuSans-17"/>
      <use xlink:href="#DejaVuSans-48" transform="translate(63.625 0)"/>
     </g>
    </g>
    <g id="line2d_40">
     <path d="M 203.63625 48.076594 
L 209.93625 48.076594 
L 216.23625 48.076594 
" style="fill: none; stroke: #9b5de5; stroke-width: 2; stroke-linecap: square"/>
     <g>
      <use xlink:href="#m1155794bd6" x="209.93625" y="48.076594" style="fill: #9b5de5; stroke: #9b5de5"/>
     </g>
    </g>
    <g id="text_19">
     <!-- 5e -->
     <g style="fill: #c2c2c2" transform="translate(223.43625 51.226594) scale(0.09 -0.09)">
      <use xlink:href="#DejaVuSans-18"/>
      <use xlink:href="#DejaVuSans-48" transform="translate(63.625 0)"/>
     </g>
    </g>
    <g id="line2d_41">
     <path d="M 242.800312 48.076594 
L 249.100313 48.076594 
L 255.400312 48.076594 
" style="fill: none; stroke: #00b4b4; stroke-width: 2; stroke-linecap: square"/>
     <g>
      <use xlink:href="#m5c4cf9bb36" x="249.100313" y="48.076594" style="fill: #00b4b4; stroke: #00b4b4"/>
     </g>
    </g>
    <g id="text_20">
     <!-- 6e -->
     <g style="fill: #c2c2c2" transform="translate(262.600312 51.226594) scale(0.09 -0.09)">
      <use xlink:href="#DejaVuSans-19"/>
      <use xlink:href="#DejaVuSans-48" transform="translate(63.625 0)"/>
     </g>
    </g>
    <g id="line2d_42">
     <path d="M 281.964375 48.076594 
L 288.264375 48.076594 
L 294.564375 48.076594 
" style="fill: none; stroke: #e0b400; stroke-width: 2; stroke-linecap: square"/>
     <g>
      <use xlink:href="#m5a95d51d3d" x="288.264375" y="48.076594" style="fill: #e0b400; stroke: #e0b400"/>
     </g>
    </g>
    <g id="text_21">
     <!-- 7e -->
     <g style="fill: #c2c2c2" transform="translate(301.764375 51.226594) scale(0.09 -0.09)">
      <use xlink:href="#DejaVuSans-1a"/>
      <use xlink:href="#DejaVuSans-48" transform="translate(63.625 0)"/>
     </g>
    </g>
    <g id="line2d_43">
     <path d="M 321.128438 48.076594 
L 327.428438 48.076594 
L 333.728438 48.076594 
" style="fill: none; stroke: #e05299; stroke-width: 2; stroke-linecap: square"/>
     <g>
      <use xlink:href="#m7605ec4064" x="327.428438" y="48.076594" style="fill: #e05299; stroke: #e05299"/>
     </g>
    </g>
    <g id="text_22">
     <!-- 8e -->
     <g style="fill: #c2c2c2" transform="translate(340.928438 51.226594) scale(0.09 -0.09)">
      <use xlink:href="#DejaVuSans-1b"/>
      <use xlink:href="#DejaVuSans-48" transform="translate(63.625 0)"/>
     </g>
    </g>
    <g id="line2d_44">
     <path d="M 360.2925 48.076594 
L 366.5925 48.076594 
L 372.8925 48.076594 
" style="fill: none; stroke: #8a6d3b; stroke-width: 2; stroke-linecap: square"/>
     <g>
      <use xlink:href="#m89be02a8c9" x="366.5925" y="48.076594" style="fill: #8a6d3b; stroke: #8a6d3b"/>
     </g>
    </g>
    <g id="text_23">
     <!-- 9e -->
     <g style="fill: #c2c2c2" transform="translate(380.0925 51.226594) scale(0.09 -0.09)">
      <use xlink:href="#DejaVuSans-1c"/>
      <use xlink:href="#DejaVuSans-48" transform="translate(63.625 0)"/>
     </g>
    </g>
   </g>
  </g>
 </g>
 <defs>
  <clipPath id="pb834a08a25">
   <rect x="38.88" y="36.288" width="589.68" height="176.256"/>
  </clipPath>
 </defs>
</svg>
